<?xml version="1.0" encoding="utf-8"?>
<!-- Generator: Adobe Illustrator 28.0.0, SVG Export Plug-In . SVG Version: 6.00 Build 0)  -->
<svg version="1.0" id="Layer_1" xmlns="http://www.w3.org/2000/svg" xmlns:xlink="http://www.w3.org/1999/xlink" x="0px" y="0px"
	 viewBox="0 0 611 658" style="enable-background:new 0 0 611 658;" xml:space="preserve">
<style type="text/css">
	.st0{fill:#2E0900;}
	.st1{fill:#009B00;}
	.st2{fill:#007100;}
	.st3{fill:#910400;}
	.st4{fill:#1A2E35;}
	.st5{opacity:0.43;fill:url(#SVGID_1_);}
	.st6{fill:#141313;}
	.st7{fill:#FFFFFF;}
	.st8{opacity:0.4;fill:#FFFFFF;}
	.st9{fill:none;stroke:#B9D4F6;stroke-miterlimit:10;}
	.st10{fill:#73B6B0;}
	.st11{fill:#B9D4F6;}
	.st12{fill:url(#SVGID_00000163782121958311308720000004408020210879657139_);}
	.st13{fill:url(#SVGID_00000003824837695189411040000013364736973081731750_);}
	.st14{fill:url(#SVGID_00000021105814198672561380000002871263734763190433_);}
	.st15{fill:url(#SVGID_00000102532584174682062960000006763063882011308223_);}
	.st16{fill:url(#SVGID_00000122678547027155737630000000471196861743808423_);}
	.st17{fill:url(#SVGID_00000040538557207084004660000010180378227795015564_);}
	.st18{fill:#FFBEB0;}
	.st19{fill:url(#SVGID_00000147899850180964334890000001784642718331578810_);}
	.st20{fill:#34315E;}
	.st21{fill:#004FFF;}
	.st22{fill:url(#SVGID_00000090289237211391509920000018397418504487379870_);}
	.st23{fill:url(#SVGID_00000183237262828479178590000008477994283447236268_);}
	.st24{fill:url(#SVGID_00000062162940404898771210000007389413386759723436_);}
	.st25{fill:#373362;}
	.st26{fill:url(#SVGID_00000065754453641286261560000009446097795470840248_);}
	.st27{fill:#E89A7B;}
	.st28{fill:url(#XMLID_00000054262792376609230470000014590830329213384636_);}
	.st29{fill:url(#XMLID_00000009568890728051545610000004159443795456521612_);}
	.st30{fill:#FEC4AD;}
	.st31{fill:url(#SVGID_00000035506305077870291820000011133943360495632532_);}
	.st32{fill:url(#SVGID_00000037665868635842184150000001374317712306053763_);}
	.st33{fill:url(#SVGID_00000119105802026694918450000014954622202219208323_);}
	.st34{fill:url(#SVGID_00000035506003943782626200000012078367772416535426_);}
	.st35{fill:#071E2B;}
	.st36{fill:url(#SVGID_00000090277887865224726480000011448539281880141743_);}
	.st37{fill:url(#SVGID_00000064355755182823372750000003821993362832155548_);}
	.st38{fill:url(#SVGID_00000161607037796493398150000001444856357090464686_);}
	.st39{fill:url(#SVGID_00000101793906004408111060000009470274046178030724_);}
	.st40{fill:url(#SVGID_00000092450605369341927650000012131105927652061350_);}
	.st41{fill:url(#SVGID_00000088124589062854517680000018407168872051474111_);}
	.st42{fill:url(#SVGID_00000049909791136658889500000018340187922466725524_);}
	.st43{fill:#FEB097;}
	.st44{fill:url(#SVGID_00000159464739574554089270000013407512466388763281_);}
	.st45{fill:url(#SVGID_00000119812290530945047010000003490328745108499587_);}
	.st46{fill:#F7E0CA;}
	.st47{fill:#FFD0C5;}
	.st48{fill:url(#SVGID_00000031189229733224761060000013487793637533729162_);}
	.st49{fill:url(#SVGID_00000040542790402675353060000010104799338577342634_);}
	.st50{fill:url(#SVGID_00000022557218031052019980000012637523731366885509_);}
	.st51{fill:#005000;}
	.st52{fill:#00AB00;}
	.st53{fill:#FF0B0B;}
	.st54{opacity:0.7;}
</style>
<g>
	<g>
		<g>
			<path class="st0" d="M310.43,581.01c0,0-4.17-28.66-3.82-45.33c0.35-16.67-0.02-35.43-0.02-35.43h1.92c0,0-1.3,33.09,0.11,53.05
				c1.41,19.94,5.14,27.71,5.14,27.71H310.43"/>
		</g>
		<g>
			<path class="st1" d="M322.85,468.01c-0.39-0.98-0.86-2-1.75-2.56c-1.22-0.77-2.82-0.45-4.18,0.03
				c-5.8,2.05-10.95,12.87-13.29,18.56l7.7,25.96C325.24,497.1,327.65,480.17,322.85,468.01z"/>
		</g>
		<g>
			<g>
				<path class="st0" d="M320.65,466.49c0.01,0-0.03,0.12-0.11,0.34c-0.1,0.25-0.22,0.56-0.38,0.95c-0.34,0.82-0.81,2.01-1.38,3.48
					c-1.14,2.95-2.58,7.07-3.87,11.71c-1.29,4.65-2.17,8.92-2.72,12.03c-0.27,1.56-0.48,2.82-0.61,3.69c-0.07,0.41-0.12,0.74-0.16,1
					c-0.04,0.23-0.07,0.35-0.08,0.35c-0.01,0-0.01-0.12,0.02-0.36c0.03-0.27,0.06-0.6,0.11-1.01c0.09-0.88,0.27-2.15,0.51-3.71
					c0.49-3.13,1.35-7.42,2.64-12.08c1.3-4.66,2.78-8.78,3.97-11.71c0.59-1.47,1.1-2.64,1.47-3.45c0.18-0.37,0.32-0.68,0.43-0.92
					C320.58,466.6,320.64,466.49,320.65,466.49z"/>
			</g>
		</g>
		<g>
			<path class="st2" d="M307.91,516.22c-7.22-3.99-11.48-11.5-11.88-19.74c-0.28-5.76,1.49-11.41,3.5-16.82
				c0.17-0.47,0.38-0.97,0.82-1.22c0.61-0.34,1.36-0.04,1.97,0.31c5.25,2.99,8.43,8.69,10.12,14.48c1.13,3.86,1.71,7.92,1.19,11.91
				C313.1,509.12,310.82,513.46,307.91,516.22"/>
		</g>
		<g>
			<g>
				<path class="st0" d="M307.91,516.22c-0.01,0-0.02-0.12-0.03-0.35c0-0.26-0.01-0.59-0.02-1c0-0.86-0.04-2.12-0.11-3.66
					c-0.14-3.09-0.54-7.34-1.34-11.99c-0.8-4.65-1.77-8.81-2.49-11.82c-0.35-1.47-0.64-2.68-0.85-3.56
					c-0.09-0.39-0.16-0.72-0.22-0.97c-0.05-0.22-0.07-0.34-0.06-0.34c0.01,0,0.05,0.11,0.12,0.33c0.07,0.25,0.17,0.57,0.28,0.96
					c0.24,0.83,0.57,2.04,0.95,3.54c0.77,3,1.78,7.16,2.58,11.82c0.8,4.66,1.17,8.94,1.25,12.04c0.04,1.55,0.04,2.8,0.01,3.67
					c-0.02,0.4-0.03,0.73-0.04,1C307.93,516.1,307.92,516.22,307.91,516.22z"/>
			</g>
		</g>
		<g>
			<path class="st1" d="M316.05,560.07c7.11,1.56,12.96,6.57,19.82,9.01c4.54,1.61,9.67,2.18,13.29,5.36
				c-0.87-2.19-2.93-3.66-4.93-4.91c-5.64-3.52-11.68-6.4-17.96-8.57c-3.23-1.11-6.73-2.04-10.01-1.13"/>
		</g>
		<g>
			<path class="st1" d="M305.78,566.4c-8.9-0.14-18.27-7.72-27.13-8.17C287.92,555.23,301.19,557.68,305.78,566.4"/>
		</g>
		<g>
			<path class="st1" d="M309.26,545.05c4.52-1.63,9.48-1.71,14.23-0.97c4.75,0.74,9.33,2.26,13.89,3.78
				c-0.46-3.09-2.96-5.41-5.31-7.47c-1.77-1.55-3.55-3.1-5.58-4.29c-2.03-1.18-4.34-1.99-6.69-1.89c-2.83,0.12-5.53,1.58-7.38,3.72
				C310.56,540.08,309.56,542.23,309.26,545.05"/>
		</g>
		<g>
			<path class="st2" d="M290.99,535.22c-5.6-4.78-14.09-4.32-21.46-4.15c11.32,5.41,23.52,12.84,33.28,20.74
				C303.11,546.6,298.07,541.26,290.99,535.22z"/>
		</g>
		<g>
			<path class="st1" d="M311.78,528.62c2.82-1.88,5.67-3.67,8.62-5.01c2.95-1.34,5.7-3.47,8.55-5.02c3.69-2,6.89-4.78,10.28-7.26
				c3.39-2.48,7.11-4.72,11.26-5.37c-3.38-0.7-6.92-0.32-10.25,0.59c-3.33,0.91-6.5,2.33-9.65,3.75c-4.37,1.97-8.82,3.99-12.39,7.18
				C314.63,520.68,311.4,523.84,311.78,528.62"/>
		</g>
		<g>
			<g>
				<path class="st0" d="M335.71,566.4c-0.01,0.01-0.1-0.03-0.28-0.12c-0.21-0.11-0.47-0.24-0.78-0.4
					c-0.67-0.36-1.63-0.89-2.84-1.49c-0.6-0.32-1.26-0.65-1.99-0.99c-0.71-0.35-1.49-0.7-2.31-1.06c-1.64-0.7-3.48-1.43-5.48-1.91
					c-2-0.49-3.98-0.6-5.71-0.14c-0.87,0.21-1.69,0.42-2.42,0.72c-0.73,0.3-1.38,0.64-1.95,1c-1.14,0.72-1.94,1.48-2.45,2.03
					c-0.52,0.55-0.77,0.89-0.79,0.87c-0.01-0.01,0.05-0.1,0.16-0.26c0.11-0.17,0.29-0.4,0.54-0.69c0.49-0.58,1.28-1.38,2.42-2.13
					c0.57-0.38,1.23-0.74,1.97-1.06c0.74-0.32,1.58-0.54,2.45-0.76c1.76-0.48,3.83-0.38,5.85,0.12c2.03,0.48,3.88,1.23,5.53,1.95
					c0.82,0.36,1.6,0.72,2.31,1.09c0.72,0.35,1.38,0.69,1.97,1.02c1.2,0.64,2.15,1.2,2.8,1.59c0.3,0.18,0.55,0.33,0.75,0.45
					C335.63,566.33,335.71,566.39,335.71,566.4z"/>
			</g>
		</g>
		<g>
			<g>
				<path class="st0" d="M299.14,561.99c0.01-0.02,0.21,0.04,0.56,0.16c0.35,0.12,0.85,0.33,1.45,0.63c1.2,0.59,2.77,1.6,4.25,3.02
					c1.48,1.42,2.55,2.96,3.18,4.13c0.32,0.59,0.55,1.08,0.69,1.42c0.14,0.35,0.21,0.54,0.19,0.55c-0.05,0.02-0.38-0.73-1.07-1.86
					c-0.68-1.13-1.76-2.61-3.21-4.01c-1.45-1.39-2.98-2.41-4.14-3.05C299.88,562.34,299.12,562.04,299.14,561.99z"/>
			</g>
		</g>
		<g>
			<g>
				<path class="st0" d="M279.44,534.77c0-0.01,0.13,0.03,0.38,0.11c0.28,0.1,0.63,0.22,1.07,0.38c0.47,0.17,1.04,0.38,1.68,0.62
					c0.66,0.24,1.37,0.6,2.18,0.96c3.2,1.45,7.47,3.9,11.59,7.38c2.03,1.77,3.87,3.57,5.4,5.32c1.53,1.76,2.83,3.42,3.84,4.86
					c1.02,1.44,1.79,2.64,2.32,3.47c0.25,0.39,0.45,0.71,0.61,0.95c0.14,0.22,0.21,0.34,0.2,0.34s-0.09-0.1-0.25-0.31
					c-0.16-0.21-0.38-0.52-0.66-0.92c-0.56-0.81-1.36-1.99-2.39-3.41c-1.03-1.42-2.34-3.06-3.87-4.8c-1.54-1.74-3.37-3.52-5.39-5.27
					c-4.09-3.46-8.31-5.92-11.48-7.42c-0.8-0.37-1.5-0.74-2.15-1c-0.64-0.26-1.19-0.48-1.66-0.67c-0.43-0.18-0.78-0.32-1.05-0.44
					C279.56,534.84,279.44,534.78,279.44,534.77z"/>
			</g>
		</g>
		<g>
			<g>
				<path class="st0" d="M322.61,540.04c-0.01,0.02-0.26-0.01-0.71-0.09c-0.24-0.05-0.52-0.1-0.82-0.15
					c-0.32-0.06-0.69-0.06-1.09-0.1c-1.6-0.12-3.93,0.02-6.12,1.21c-1.1,0.56-2.03,1.31-2.78,2.07c-0.77,0.75-1.35,1.53-1.79,2.21
					c-0.89,1.37-1.17,2.35-1.22,2.34c-0.02,0,0.03-0.26,0.18-0.69c0.16-0.43,0.42-1.06,0.85-1.76c0.42-0.71,1-1.52,1.77-2.3
					c0.76-0.78,1.71-1.57,2.84-2.14c2.25-1.23,4.67-1.33,6.29-1.15c0.41,0.06,0.79,0.07,1.1,0.15c0.3,0.08,0.57,0.14,0.82,0.21
					C322.38,539.95,322.62,540.02,322.61,540.04z"/>
			</g>
		</g>
		<g>
			<g>
				<path class="st0" d="M331.56,512.29c0,0.01-0.11,0.08-0.34,0.21c-0.26,0.14-0.59,0.32-0.99,0.54c-0.86,0.47-2.11,1.15-3.62,2.04
					c-1.5,0.9-3.27,2.01-5.16,3.36c-1.88,1.35-3.9,2.92-5.76,4.82c-0.92,0.96-1.76,1.96-2.35,3.05c-0.58,1.12-1.14,2.2-1.65,3.24
					c-1.03,2.08-1.87,3.99-2.47,5.63c-0.6,1.64-0.98,3.01-1.2,3.96c-0.23,0.95-0.31,1.49-0.34,1.48c-0.01,0,0-0.14,0.04-0.39
					c0.03-0.26,0.09-0.64,0.18-1.12c0.19-0.97,0.53-2.35,1.11-4.01c0.58-1.66,1.4-3.59,2.42-5.68c0.51-1.05,1.06-2.13,1.64-3.26
					c0.61-1.14,1.47-2.15,2.4-3.13c1.88-1.93,3.92-3.5,5.82-4.84c1.9-1.34,3.69-2.43,5.21-3.31c1.53-0.87,2.79-1.53,3.67-1.96
					c0.42-0.2,0.76-0.36,1.02-0.49C331.43,512.33,331.55,512.28,331.56,512.29z"/>
			</g>
		</g>
		<g>
			<g>
				<path class="st0" d="M306.6,539.24c-0.02,0-0.08-0.26-0.18-0.75c-0.1-0.55-0.23-1.24-0.39-2.06c-0.34-1.73-0.86-4.12-1.68-6.68
					c-0.82-2.56-1.81-4.79-2.54-6.4c-0.35-0.76-0.64-1.4-0.87-1.91c-0.2-0.45-0.3-0.71-0.29-0.72c0.02-0.01,0.16,0.23,0.4,0.66
					c0.24,0.43,0.57,1.07,0.96,1.86c0.78,1.59,1.82,3.82,2.64,6.4c0.83,2.58,1.32,4.99,1.6,6.74c0.14,0.88,0.24,1.58,0.29,2.08
					C306.6,538.97,306.62,539.24,306.6,539.24z"/>
			</g>
		</g>
		<g>
			<path class="st1" d="M305.95,518.99c-0.22-3.36-1.32-6.63-2.89-9.61c-4.32-8.17-12.44-14.22-21.5-16.03
				c6.64,9.89,13.27,19.78,19.91,29.67l2.57,5.3C305.79,525.43,306.18,522.35,305.95,518.99z"/>
		</g>
	</g>
	<g>
		<g>
			<g>
				<rect x="288.22" y="577.46" class="st3" width="46.29" height="8.2"/>
			</g>
		</g>
		<g>
			<g>
				<polygon class="st3" points="291.68,584.04 295.62,609.5 326.35,609.5 331.05,584.04 				"/>
			</g>
		</g>
		<g>
			<g>
				<g>
					<path class="st4" d="M334.48,585.68c0,0.09-10.44,0.16-23.32,0.16c-12.88,0-23.32-0.07-23.32-0.16
						c0-0.09,10.44-0.16,23.32-0.16C324.04,585.51,334.48,585.59,334.48,585.68z"/>
				</g>
			</g>
		</g>
	</g>
</g>
<g>
	<g>
		<linearGradient id="SVGID_1_" gradientUnits="userSpaceOnUse" x1="317.69" y1="562.436" x2="304.7586" y2="628.7098">
			<stop  offset="0" style="stop-color:#E9F0FF"/>
			<stop  offset="1" style="stop-color:#C2D7F0"/>
		</linearGradient>
		<path class="st5" d="M592.97,612.59c-15.76-6.36-57.16-10.11-107.14-10.59c-41.29-0.4-82.4,1.44-118.17,4.24
			c-33.39,2.61-60.6,7.41-94.46,9.62c-31.84,2.08-75.92,1.51-110.3,2.02c-55.57,0.83-142.95,1.93-152,11.67
			c-6.26,6.73,42.5,9.98,84.53,10.82c31.98,0.64,64.31,0.43,96.45,0.17c29.83-0.24,57.06-0.02,87.01,0.19
			c107.64,0.77,291.72-0.02,319.1-18.09C602.79,619.46,601.08,615.86,592.97,612.59z"/>
		<g>
			<g>
				<path id="XMLID_5_" class="st6" d="M344.97,618.98H530.7c4.87,0,8.82-3.95,8.82-8.82V224.59c0-4.87-3.95-8.82-8.82-8.82H344.97
					c-4.87,0-8.82,3.95-8.82,8.82v385.57C336.15,615.03,340.1,618.98,344.97,618.98z"/>
				<path id="XMLID_33_" d="M336.99,618.98h185.73c4.87,0,8.82-3.95,8.82-8.82V224.59c0-4.87-3.95-8.82-8.82-8.82H336.99
					c-4.87,0-8.82,3.95-8.82,8.82v385.57C328.17,615.03,332.12,618.98,336.99,618.98z"/>
				<path class="st7" d="M483.94,228.12l-6.83,16.2c-0.77,1.82-2.43,2.99-4.26,2.99h-91.21c-1.83,0-3.5-1.17-4.26-2.99l-6.83-16.2
					c-0.77-1.82-2.43-2.99-4.26-2.99h-22.01c-3.91,0-7.07,3.47-7.07,7.76v367.34c0,4.28,3.17,7.76,7.07,7.76h170.09
					c3.91,0,7.07-3.47,7.07-7.76V232.89c0-4.28-3.17-7.76-7.07-7.76H488.2C486.37,225.13,484.71,226.3,483.94,228.12z"/>
				<g>
					<path id="XMLID_32_" class="st8" d="M412.2,234.88h44.94c1.32,0,2.39-1.07,2.39-2.39l0,0c0-1.32-1.07-2.39-2.39-2.39H412.2
						c-1.32,0-2.39,1.07-2.39,2.39l0,0C409.82,233.81,410.89,234.88,412.2,234.88z"/>
					<path class="st8" d="M403.05,232.5c0,1.51-1.22,2.73-2.73,2.73c-1.51,0-2.73-1.22-2.73-2.73c0-1.51,1.22-2.73,2.73-2.73
						C401.83,229.77,403.05,230.99,403.05,232.5z"/>
				</g>
				<path class="st9" d="M482.33,510.87H378.29c-4.54,0-8.22-3.68-8.22-8.22v-9.45c0-4.54,3.68-8.22,8.22-8.22h104.04
					c4.54,0,8.22,3.68,8.22,8.22v9.45C490.55,507.19,486.87,510.87,482.33,510.87z"/>
				<path class="st7" d="M415.23,597.98c0-6.96,5.64-12.59,12.59-12.59c6.96,0,12.59,5.64,12.59,12.59"/>
				<path class="st10" d="M373.91,424.41L373.91,424.41c-8.3,0-15.03-6.73-15.03-15.03l0,0c0-8.3,6.73-15.03,15.03-15.03l0,0
					c8.3,0,15.03,6.73,15.03,15.03l0,0C388.94,417.68,382.21,424.41,373.91,424.41z"/>
				<g>
					<rect x="401.94" y="415.44" class="st11" width="5.29" height="5.24"/>
					<rect x="413.57" y="415.44" class="st11" width="80.8" height="5.24"/>
					<rect x="413.57" y="426.55" class="st11" width="96.9" height="5.24"/>
					<rect x="413.57" y="437.66" class="st11" width="67.56" height="5.24"/>
					
						<linearGradient id="SVGID_00000142871839242002200790000018397003759143856776_" gradientUnits="userSpaceOnUse" x1="426.8991" y1="465.7417" x2="437.2664" y2="447.7849">
						<stop  offset="0" style="stop-color:#FFB300"/>
						<stop  offset="1" style="stop-color:#FFE21B"/>
					</linearGradient>
					
						<rect x="414.53" y="454.93" style="fill:url(#SVGID_00000142871839242002200790000018397003759143856776_);" width="35.11" height="3.67"/>
					
						<linearGradient id="SVGID_00000128484932045619437160000004018593639892153779_" gradientUnits="userSpaceOnUse" x1="474.3542" y1="468.4904" x2="487.8954" y2="445.0363">
						<stop  offset="0" style="stop-color:#FFB300"/>
						<stop  offset="1" style="stop-color:#FFE21B"/>
					</linearGradient>
					
						<rect x="457.22" y="454.93" style="fill:url(#SVGID_00000128484932045619437160000004018593639892153779_);" width="47.8" height="3.67"/>
					<rect x="401.94" y="393.96" class="st11" width="69.49" height="7.78"/>
				</g>
				<g>
					
						<linearGradient id="SVGID_00000138557529422992170230000016072431984602813887_" gradientUnits="userSpaceOnUse" x1="361.4273" y1="297.7491" x2="373.1874" y2="277.3799">
						<stop  offset="0" style="stop-color:#FFB300"/>
						<stop  offset="1" style="stop-color:#FFE21B"/>
					</linearGradient>
					<path style="fill:url(#SVGID_00000138557529422992170230000016072431984602813887_);" d="M369.83,275.86l2.06,4.18
						c0.31,0.62,0.9,1.06,1.59,1.16l4.61,0.67c1.74,0.25,2.43,2.39,1.17,3.61l-3.34,3.25c-0.5,0.49-0.73,1.19-0.61,1.87l0.79,4.59
						c0.3,1.73-1.52,3.05-3.07,2.23l-4.12-2.17c-0.62-0.32-1.35-0.32-1.97,0l-4.12,2.17c-1.55,0.82-3.37-0.5-3.07-2.23l0.79-4.59
						c0.12-0.69-0.11-1.39-0.61-1.87l-3.34-3.25c-1.26-1.22-0.56-3.36,1.17-3.61l4.61-0.67c0.69-0.1,1.28-0.53,1.59-1.16l2.06-4.18
						C366.81,274.28,369.05,274.28,369.83,275.86z"/>
					
						<linearGradient id="SVGID_00000105389750292163501300000017069858049103984530_" gradientUnits="userSpaceOnUse" x1="392.7078" y1="297.7491" x2="404.4679" y2="277.38">
						<stop  offset="0" style="stop-color:#FFB300"/>
						<stop  offset="1" style="stop-color:#FFE21B"/>
					</linearGradient>
					<path style="fill:url(#SVGID_00000105389750292163501300000017069858049103984530_);" d="M401.11,275.86l2.06,4.18
						c0.31,0.62,0.9,1.06,1.59,1.16l4.61,0.67c1.74,0.25,2.43,2.38,1.17,3.61l-3.34,3.25c-0.5,0.49-0.73,1.19-0.61,1.87l0.79,4.59
						c0.3,1.73-1.52,3.05-3.07,2.23l-4.12-2.17c-0.62-0.32-1.35-0.32-1.97,0l-4.12,2.17c-1.55,0.82-3.37-0.5-3.07-2.23l0.79-4.59
						c0.12-0.69-0.11-1.39-0.61-1.87l-3.34-3.25c-1.26-1.22-0.56-3.36,1.17-3.61l4.61-0.67c0.69-0.1,1.28-0.53,1.59-1.16l2.06-4.18
						C398.09,274.28,400.33,274.28,401.11,275.86z"/>
					
						<linearGradient id="SVGID_00000163751742828377355620000007516365690400078490_" gradientUnits="userSpaceOnUse" x1="423.9884" y1="297.7491" x2="435.7485" y2="277.3799">
						<stop  offset="0" style="stop-color:#FFB300"/>
						<stop  offset="1" style="stop-color:#FFE21B"/>
					</linearGradient>
					<path style="fill:url(#SVGID_00000163751742828377355620000007516365690400078490_);" d="M432.39,275.86l2.06,4.18
						c0.31,0.62,0.9,1.06,1.59,1.16l4.61,0.67c1.74,0.25,2.43,2.39,1.17,3.61l-3.34,3.25c-0.5,0.49-0.73,1.19-0.61,1.87l0.79,4.59
						c0.3,1.73-1.52,3.05-3.07,2.23l-4.12-2.17c-0.62-0.32-1.35-0.32-1.97,0l-4.12,2.17c-1.55,0.82-3.37-0.5-3.07-2.23l0.79-4.59
						c0.12-0.69-0.11-1.39-0.61-1.87l-3.34-3.25c-1.26-1.22-0.56-3.36,1.17-3.61l4.61-0.67c0.69-0.1,1.29-0.53,1.59-1.16l2.06-4.18
						C429.37,274.28,431.61,274.28,432.39,275.86z"/>
					
						<linearGradient id="SVGID_00000064323135051356418360000014059299865287105469_" gradientUnits="userSpaceOnUse" x1="455.2689" y1="297.7491" x2="467.029" y2="277.38">
						<stop  offset="0" style="stop-color:#FFB300"/>
						<stop  offset="1" style="stop-color:#FFE21B"/>
					</linearGradient>
					<path style="fill:url(#SVGID_00000064323135051356418360000014059299865287105469_);" d="M463.67,275.86l2.06,4.18
						c0.31,0.62,0.9,1.06,1.59,1.16l4.61,0.67c1.74,0.25,2.43,2.38,1.17,3.61l-3.34,3.25c-0.5,0.49-0.73,1.19-0.61,1.87l0.79,4.59
						c0.3,1.73-1.52,3.05-3.07,2.23l-4.12-2.17c-0.62-0.32-1.35-0.32-1.97,0l-4.12,2.17c-1.55,0.82-3.37-0.5-3.07-2.23l0.79-4.59
						c0.12-0.69-0.11-1.39-0.61-1.87l-3.34-3.25c-1.26-1.22-0.56-3.36,1.17-3.61l4.61-0.67c0.69-0.1,1.29-0.53,1.59-1.16l2.06-4.18
						C460.65,274.28,462.89,274.28,463.67,275.86z"/>
					<path class="st11" d="M494.95,275.86l2.06,4.18c0.31,0.62,0.9,1.06,1.59,1.16l4.61,0.67c1.74,0.25,2.43,2.39,1.17,3.61
						l-3.34,3.25c-0.5,0.49-0.73,1.19-0.61,1.87l0.79,4.59c0.3,1.73-1.52,3.05-3.07,2.23l-4.12-2.17c-0.62-0.32-1.35-0.32-1.97,0
						l-4.12,2.17c-1.55,0.82-3.37-0.5-3.07-2.23l0.79-4.59c0.12-0.69-0.11-1.39-0.61-1.87l-3.34-3.25
						c-1.26-1.22-0.56-3.36,1.17-3.61l4.61-0.67c0.69-0.1,1.29-0.53,1.59-1.16l2.06-4.18C491.93,274.28,494.17,274.28,494.95,275.86
						z"/>
				</g>
			</g>
			<g>
				<path class="st18" d="M459.37,301.27c-1.99,0.44-4.39,4.51-5.69,6.47s-4.57,7.4-4.57,7.4s-2.38,0.94-3.56,2.37
					c-1.18,1.43-1.73,4.17-1.16,6.61s-0.55,5.45-0.55,5.45c-0.72,2.61-4.34,11.74-5.93,14.22c-6,9.35-8.5,14.16-8.5,14.16
					c-3.67,1.41-13.74,4.33-13.74,4.33s-7.27,1.81-6.93,2.36c0.21,6.33,2.51,10.3,2.63,16.66c0,0,14.92-4.42,18.04-5.31
					c1.34-0.38,6.27-2.8,8.17-4.82c4.14-4.4,10.21-18.52,10.68-20.86c1.07-5.32,4.07-15.88,7.13-19.41c1.2-1.39,3.72-3.91,4.72-5.96
					c1-2.05,2.06-5.31,2.08-6.64c0.02-1.33-1.29-1.75-1.29-1.75s0.14-1.36-0.51-2.24c-0.65-0.88-1.98-0.92-1.98-0.92
					s-0.29-0.55-0.52-1.37c-0.23-0.81-2.15-1.02-1.7-1.31c0.45-0.29,2.34-4.83,3.79-6.67C460.67,303.17,461.36,300.83,459.37,301.27
					z"/>
				<path class="st18" d="M344.1,406.14c0.67,10.65,3.52,24.69,3.27,31.04c-0.26,6.35,3.04,30.8,4.85,38.77
					c1.8,7.97,5.59,19.58,5.59,19.58l7.35-7.88c0,0,0.33-13.15,0-23.12c-0.33-9.97-1.67-17.99-2.67-27.35
					c-1-9.36,2.82-31.04,2.82-31.04H344.1z"/>
				
					<linearGradient id="SVGID_00000084529718403673336470000008120264554387750329_" gradientUnits="userSpaceOnUse" x1="359.8865" y1="368.4711" x2="354.9549" y2="403.1154">
					<stop  offset="0" style="stop-color:#FD5462"/>
					<stop  offset="1" style="stop-color:#B51A69"/>
				</linearGradient>
				<path style="fill:url(#SVGID_00000084529718403673336470000008120264554387750329_);" d="M355.77,366.25
					c-6.31,3.41-11.1,13.44-13.05,28.82c-1.95,15.38,0,18.05,0,18.05s6.33,2.67,13.05,1.34c6.72-1.34,11.4-3.01,11.4-3.01
					s-5.35-22.06-6.69-30.08C359.15,373.34,355.77,366.25,355.77,366.25z"/>
				<path d="M364.42,610.93c-0.39,6.26-0.61,12.72-1.09,18.98c5.59,0.43,10.7-0.43,16.29,0c0,0-3.66-6.79-6.59-8.16
					c0-2.32-0.01-3.48-0.02-5.79C370.49,613.93,366.93,612.92,364.42,610.93z"/>
				<path class="st20" d="M385.23,469.79c0.34,5.59,0.5,8.39,0.77,13.99c0,0-3.29,1.73-3.5,4.83c-2.07,30.28-3.11,61.15-5.95,91.22
					c-1.54,16.33-1.66,36.25-1.66,36.25c-4.16-0.28-8.54-0.42-12.69-0.69c-1.63-26.95-3.66-58.58-5.78-85.47
					c-3.25-41.2-2.46-65.37-2.46-65.37C366.47,466.56,372.73,467.61,385.23,469.79z"/>
				<path class="st21" d="M385.23,469.79c-7.86-7.24-23.21,4.92-31.32-2.01c-0.09,7.86-0.03,29.72,2.52,62.13
					c2.12,26.9,4.15,58.52,5.78,85.47c4.15,0.28,8.54,0.42,12.69,0.69c0,0,0.11-19.93,1.66-36.25c2.72-28.78,3.56-58.28,5.64-87.3
					C380.68,491.45,386.6,471.05,385.23,469.79z"/>
				
					<linearGradient id="SVGID_00000137097014099894488060000005375394163918574503_" gradientUnits="userSpaceOnUse" x1="941.5524" y1="371.8977" x2="925.8801" y2="391.8443" gradientTransform="matrix(1 0 0 1 -526.9829 0)">
					<stop  offset="0" style="stop-color:#FD5462"/>
					<stop  offset="1" style="stop-color:#B51A69"/>
				</linearGradient>
				<path style="fill:url(#SVGID_00000137097014099894488060000005375394163918574503_);" d="M420.04,360.74l-14.99,2.53
					c0,0-0.3-0.04-0.75-0.09c-0.76,9.67-1.88,26.14-1.64,35.96c3.74-5.11,19.95-15.69,19.95-15.69
					C424.77,378.84,420.04,360.74,420.04,360.74z"/>
				<path d="M392.45,612.75c-0.4,6.43-0.63,10.72-1.12,17.15c5.59,0.43,11.85-0.43,17.44,0c0,0-3.65-4.66-6.58-6.06
					c0-2.38,0-3.57-0.01-5.94C399.67,615.83,394.96,614.8,392.45,612.75z"/>
				<path class="st18" d="M390.32,323.8c0,0-0.14,9.96,0.29,12.16c0.43,2.2-0.19,6.49-0.53,9.36c-0.35,2.87-1.63,5.05-2.78,5.27
					c0,0,1.58,7.24,2.2,10.94c0,0-10.57,3.15-20.35,0.99c0,0,1.03-2.85,0.05-9.8c0,0,2.87-18.52,9.43-23.67
					C385.19,323.9,390.32,323.8,390.32,323.8z"/>
				<path d="M389.55,326.49c1.81-0.54,4.17-5.29,0.96-9.72c-3.22-4.43-11-5.69-16.96-4.72c-5.97,0.97-12.98,5.2-14.43,8.39
					c-1.44,3.19,0.14,5.99,0.14,5.99s-3,1.3-3.39,5.9c-0.39,4.6,0.3,8.3,4.41,11.62c4.11,3.32,8.93,8.76,8.93,8.76
					s9.81-2.13,12.32-2.13c0,0,3.77-6.15,4.49-8.02c0,0-3.27-4.2-1.34-8.02c0.91-1.8,2.64-0.01,3,2.31
					c0.37,2.31,0.66,4.08,0.66,4.08c0.41-0.52,0.62-0.78,1.03-1.3c0,0,0.22-5.29-0.02-7.72
					C389.11,329.48,389.55,326.49,389.55,326.49z"/>
				<path class="st20" d="M377.65,470.61c0.11,1.78,0.2,3.27,0.28,4.67c0.25,4.31,1.76,8.37,3.87,12.14
					c0.26,0.46,0.45,0.98,0.54,1.55c4.76,30.14,8.3,61.47,8.81,91.86c0.28,16.65-1.69,36.74-1.69,36.74
					c4.15,0.28,9.69,0.42,13.85,0.7c5.33-27.75,5.16-60.59,7.23-88.39c3.18-42.74-2.08-61.14-2.08-61.14
					C396.14,469.49,389.97,469.86,377.65,470.61z"/>
				<path class="st21" d="M377.65,470.61c0.11,1.78,0.2,3.27,0.28,4.67c0.25,4.31,1.76,8.37,3.87,12.14
					c0.26,0.46,0.45,0.98,0.54,1.55c4.76,30.14,8.3,61.47,8.81,91.86c0.28,16.65-1.69,36.74-1.69,36.74
					c4.15,0.28,9.69,0.42,13.85,0.7c5.33-27.75,5.16-60.59,7.23-88.39c3.18-42.74-2.08-61.14-2.08-61.14
					C396.14,469.49,389.97,469.86,377.65,470.61z"/>
				
					<linearGradient id="SVGID_00000026145256444538095990000010824848724008267961_" gradientUnits="userSpaceOnUse" x1="906.6574" y1="357.3853" x2="906.6574" y2="364.4019" gradientTransform="matrix(1 0 0 1 -526.9829 0)">
					<stop  offset="0" style="stop-color:#FD5462"/>
					<stop  offset="1" style="stop-color:#B51A69"/>
				</linearGradient>
				<path style="fill:url(#SVGID_00000026145256444538095990000010824848724008267961_);" d="M367.26,364.4
					c0,0,18.49-1.6,24.83-0.32c0,0-0.6-3.82-1.58-5.26c0,0-11.32-2.82-22-0.53C368.52,358.28,367.16,361.41,367.26,364.4z"/>
				
					<linearGradient id="SVGID_00000123428055942299547140000014299399354808399769_" gradientUnits="userSpaceOnUse" x1="915.9072" y1="364.7522" x2="904.509" y2="444.8234" gradientTransform="matrix(1 0 0 1 -526.9829 0)">
					<stop  offset="0" style="stop-color:#FD5462"/>
					<stop  offset="1" style="stop-color:#B51A69"/>
				</linearGradient>
				<path style="fill:url(#SVGID_00000123428055942299547140000014299399354808399769_);" d="M369.05,361.97l-13.28,4.29
					c0,0-6.03,8.83-7.1,17.22c-1.6,12.52-0.25,23.95,0.57,29.71c1.37,9.62,2.61,21.82,1.7,33.01c-0.91,11.2-3.57,22.06-3.57,22.06
					s9.59,2.36,27.87,4.89c18.27,2.53,35.69,1.09,35.69,1.09s-1.21-35.43-2.79-57.31c-1.59-21.88-1.74-22.89-1.74-22.89
					c-0.77-13.13-0.2-17.63-1.35-30.76c-4.82,0.75-8.28-0.93-13.1-0.17C384.7,361.67,370.96,361.03,369.05,361.97z"/>
			</g>
			<g>
				<path class="st25" d="M279.7,341.88l-0.64,0.45c0,0,0.65,3.15,0.01,4.51c-0.64,1.36-1.99,1.26-1.99,1.26l0.04,0.46
					c0,0,0.49,0.37,1.38-0.11c0.89-0.48,1.9-2.1,1.85-4.21c-0.02-1.05-0.07-1.71-0.12-2.12
					C280.05,342.04,279.87,341.96,279.7,341.88z"/>
				
					<linearGradient id="SVGID_00000079482598166869309380000004939354312742287549_" gradientUnits="userSpaceOnUse" x1="719.9193" y1="437.2314" x2="672.2796" y2="474.735" gradientTransform="matrix(-1 0 0 1 912.1999 0)">
					<stop  offset="0" style="stop-color:#EE4F33"/>
					<stop  offset="1" style="stop-color:#BD0048"/>
				</linearGradient>
				<path style="fill:url(#SVGID_00000079482598166869309380000004939354312742287549_);" d="M250.06,446
					c-8.06-0.09-32.32,0-32.32,0s-4.84,39.23-2.82,45.18c2.02,5.94,34.27,10.49,35.08,6.2C250.8,493.08,250.06,446,250.06,446z"/>
				<path class="st27" d="M306.69,391.25c-0.29-2.81-0.44-4.12-1.39-6.23c-0.62-1.38,1.02-10.58,1.02-10.58l5.5,2.63
					c0,0,0.1,9.38-0.37,11.11C310.97,389.92,306.69,391.25,306.69,391.25z"/>
				<g>
					
						<linearGradient id="XMLID_00000014615989019358093860000000255256219807000988_" gradientUnits="userSpaceOnUse" x1="332.2582" y1="348.6915" x2="313.113" y2="367.2258" gradientTransform="matrix(0.997 -0.0776 0.0776 0.997 -28.0043 32.3524)">
						<stop  offset="0" style="stop-color:#9CA0A9"/>
						<stop  offset="1" style="stop-color:#465464"/>
					</linearGradient>
					<path id="XMLID_6_" style="fill:url(#XMLID_00000014615989019358093860000000255256219807000988_);" d="M305.51,385.49
						l11.96,1.14c0.52,0.05,1.03-0.34,1.13-0.86l4.88-25.14c0.1-0.53-0.93-1.67-1.45-1.72l-11.27-0.46
						c-0.52-0.05-1.03,0.34-1.13,0.86l-5.58,24.87C303.95,384.71,304.98,385.45,305.51,385.49z"/>
					
						<linearGradient id="XMLID_00000023248455084311404500000009075375186164534665_" gradientUnits="userSpaceOnUse" x1="352.1609" y1="346.8522" x2="337.3492" y2="377.6896" gradientTransform="matrix(1.1792 -0.1063 -0.1932 0.8655 -20.6788 92.0119)">
						<stop  offset="0" style="stop-color:#9CA0A9"/>
						<stop  offset="1" style="stop-color:#717C8A"/>
					</linearGradient>
					<path id="XMLID_37_" style="fill:url(#XMLID_00000023248455084311404500000009075375186164534665_);" d="M304.81,384.81
						l11.96,1.14c0.52,0.05,1.03-0.34,1.13-0.86l4.88-25.14c0.1-0.53-0.24-0.99-0.76-1.04l-11.96-1.14
						c-0.52-0.05-1.03,0.34-1.13,0.86l-4.88,25.14C303.95,384.3,304.29,384.76,304.81,384.81z"/>
					<path class="st7" d="M319.18,360.26l-0.62,0.91c-0.07,0.1-0.19,0.16-0.31,0.15l-5.81-0.55c-0.12-0.01-0.21-0.09-0.24-0.2
						l-0.25-0.99c-0.03-0.11-0.12-0.19-0.24-0.2l-1.4-0.13c-0.25-0.02-0.49,0.16-0.54,0.41l-4.28,22.02
						c-0.05,0.25,0.11,0.47,0.36,0.5l10.83,1.03c0.25,0.02,0.49-0.16,0.54-0.41l4.28-22.02c0.05-0.25-0.11-0.47-0.36-0.5l-1.67-0.16
						C319.37,360.1,319.25,360.16,319.18,360.26z"/>
					<path class="st7" d="M310.89,384.63c-0.4-0.04-0.67-0.4-0.59-0.81c0.08-0.41,0.47-0.7,0.87-0.67c0.4,0.04,0.67,0.4,0.59,0.81
						C311.68,384.37,311.29,384.67,310.89,384.63z"/>
				</g>
				<path class="st30" d="M254.19,595.68c-0.47,7.04,0.47,24.86,2.34,27.67c0.36,0.55,0.84,1.2,1.36,1.9h-0.03
					c-1.58-1.36-3.14-2.75-4.81-3.99c-1.98-1.47-4.12-2.7-6.23-3.97c-0.11-2.72-0.34-5.84-0.73-9.42
					c-1.88-16.88-6.44-45.26-4.56-68.12c1.48-18.03-0.83-40.28-2.57-56.1c9.06-0.03,18.11-0.09,27.17-0.23
					c-0.65,13.98-1.41,28.43-2.68,35.82C261.1,532.84,254.66,588.65,254.19,595.68z"/>
				<path class="st30" d="M279.22,595.68c-0.32,4.81,0.02,16.94,0.86,23.59c-2.75,0.04-5.49-2.19-8.24-2.19
					c-0.12-2.67-0.34-5.72-0.73-9.21c-1.88-16.88-7.79-38.47-6.78-68.12c0.62-18.13-2.59-40.42-4.66-56.23
					c4.61-0.05,9.22-0.12,13.83-0.21c4.38-0.09,8.76-0.08,13.14-0.09c0.27,12.55,1.24,26.55-0.4,36.02
					C283.91,532.84,279.69,588.65,279.22,595.68z"/>
				<path class="st30" d="M278.97,351.35c-0.21,1-0.28,7.94-2.04,9.66c-1.76,1.72-5.61-2.5-6.25-0.75
					c-0.66,1.74,2.74,12.71,2.74,12.71l-18.88,2.25l-0.31-15.68c0,0-1.74-6.15-0.14-14.58c1.61-8.43,16.43-14.92,16.43-14.92
					c0.66-0.48,1.32-3.84,2.61-2.71c2,1.76,3.23,8.28,4.07,11.52C278.04,342.09,279.19,350.35,278.97,351.35z"/>
				
					<linearGradient id="SVGID_00000036964000465078609180000016084751009938283190_" gradientUnits="userSpaceOnUse" x1="237.3576" y1="606.84" x2="270.2391" y2="512.1409">
					<stop  offset="0" style="stop-color:#4D3E3C"/>
					<stop  offset="1" style="stop-color:#1C1014"/>
				</linearGradient>
				<path style="fill:url(#SVGID_00000036964000465078609180000016084751009938283190_);" d="M225.94,600.39
					c-0.04-20.57,0.18-50.82,1.36-74.68c2.27-46.07,6.01-65.01,6.01-65.01l52.94,12.08c0.83,31.12,7.05,113.9,8.29,127.15
					C257.46,627.84,235.46,601.69,225.94,600.39z"/>
				<path class="st30" d="M304.99,396.29c-0.47-3.02,1.47-8.34,2.67-11.02c1.2-2.68,3.96-6.49,3.94-9.75
					c-0.02-3.26,1.84-3.53,2.7-1.53c0.86,2,0.71,9.06,0.71,9.06s3.92-2.39,4.19-5c0.27-2.61,2.25-7.95,2.59-9.27
					c0.24-0.93,0.76,0.94,0.54,4.42c-0.22,3.53-0.63,8.16-0.74,9.81c-0.11,1.65-4.17,3.8-5.21,5.55c-1.04,1.75-4.4,3.9-4.61,7.2
					L304.99,396.29z"/>
				
					<linearGradient id="SVGID_00000159446504508451169250000000233956047299156128_" gradientUnits="userSpaceOnUse" x1="642.3211" y1="315.3323" x2="613.1554" y2="419.3567" gradientTransform="matrix(-0.997 0.0776 0.0776 0.997 881.1871 -38.6215)">
					<stop  offset="0" style="stop-color:#000000"/>
					<stop  offset="1" style="stop-color:#FF00E3"/>
				</linearGradient>
				<path style="fill:url(#SVGID_00000159446504508451169250000000233956047299156128_);" d="M269.73,372.32
					c0,0,7.24-0.68,10.49,2.71c3.25,3.39,16.61,31.58,16.61,31.58l7.83-14.39l9.09,1.78c0,0-6.74,28.3-10.3,34.08
					c-1.6,2.6-4.81,7.03-10.45,2.46c-2.29-1.86-23.17-28.51-23.17-28.51S269.74,381.05,269.73,372.32z"/>
				
					<linearGradient id="SVGID_00000165229982792047344870000002776213883089358476_" gradientUnits="userSpaceOnUse" x1="686.9374" y1="329.4937" x2="649.8558" y2="461.7516" gradientTransform="matrix(-1 0 0 1 912.1999 0)">
					<stop  offset="0" style="stop-color:#000000"/>
					<stop  offset="1" style="stop-color:#FF00E3"/>
				</linearGradient>
				<path style="fill:url(#SVGID_00000165229982792047344870000002776213883089358476_);" d="M286.44,404.04
					c1.52,7.89-1.78,13.64-2.66,21.63c-0.33,3.05-1.39,13.1-0.64,17.95c2.25,14.53,4.86,37.78,6.51,40.02c0,0-10.59,7.96-33.22,6.86
					c-22.63-1.1-28.39-7.26-28.39-7.26s7.21-33.64,7.21-45.67c0-12.03-1.75-40.28,0.01-51.78c0.97-6.35,5.58-9.34,8.76-11.16
					c5.76-3.31,25.71-2.29,25.71-2.29S284.78,395.46,286.44,404.04z"/>
				
					<linearGradient id="SVGID_00000037679463832713459420000004047119653212362892_" gradientUnits="userSpaceOnUse" x1="692.9017" y1="401.0354" x2="641.6913" y2="441.3499" gradientTransform="matrix(-1 0 0 1 912.1999 0)">
					<stop  offset="0" style="stop-color:#EE4F33"/>
					<stop  offset="1" style="stop-color:#BD0048"/>
				</linearGradient>
				<path style="fill:url(#SVGID_00000037679463832713459420000004047119653212362892_);" d="M238.75,378.04
					c-6.16,32.94-16.58,67.48-17.12,70.71h3.88l18.51-74.15L238.75,378.04z"/>
				<path d="M240.51,370.27c2.88,5.1,13.72,5.05,19.64,4.51c6.86-0.62,15.26-1.53,21.24-4.6c-0.1-0.2-1.56-5.25-2.43-6.84
					c-4.75-8.63-4.1-23.56-4.1-23.56s0,0,0,0c0.86-3.03,1.25-6.2,0.47-8.74c0.08-0.26,0.14-0.56,0.13-0.91c0,0-3.07-7.88-12.21-7.64
					c-3.04,0.08-6.86,1.05-10.2,2.85c-10.16,1.51-14.18,9.66-13.41,19.58C240.16,351.59,237.6,365.12,240.51,370.27z"/>
				<g>
					<path class="st35" d="M258.5,630.03h-8.35c0,0,0.26-5.38-1-6.43c-3.55-2.98-3.09-9.39,0-8.1c3.09,1.29,5.4,7.07,7.33,10.67
						C258.42,629.77,258.5,630.03,258.5,630.03z"/>
					
						<linearGradient id="SVGID_00000111190000135533877780000000217228830946791099_" gradientUnits="userSpaceOnUse" x1="256.9009" y1="614.4726" x2="255.0976" y2="624.9316">
						<stop  offset="0" style="stop-color:#EE4F33"/>
						<stop  offset="1" style="stop-color:#BD0048"/>
					</linearGradient>
					<path style="fill:url(#SVGID_00000111190000135533877780000000217228830946791099_);" d="M264.73,630.03h-6.23
						c0,0-2.22,0.14-3.34-3.64c-0.27-0.93-0.6-1.74-0.94-2.44c-0.88-1.79-4.95-0.68-5.15,1.31c0,0.02-0.38,4.77-0.38,4.77h-1.83
						c0,0,0.35-6.76-0.15-8.09c-0.72-1.93-1.36-4.02-0.4-5.78c1.09-2,5.63-0.96,7.05,0.43c1.67,1.64,1.88,2.54,3.78,4.82
						c1.88,2.25,3.36,2.39,5.14,3.5C264.06,626.02,264.73,630.03,264.73,630.03z"/>
				</g>
				<g>
					<path class="st35" d="M283.24,630.03h-8.35c0,0,0.26-5.38-0.99-6.43c-3.55-2.98-3.09-9.39,0-8.1c3.09,1.29,5.4,7.07,7.33,10.67
						C283.15,629.77,283.24,630.03,283.24,630.03z"/>
					
						<linearGradient id="SVGID_00000081637646222751905770000003653720329925251765_" gradientUnits="userSpaceOnUse" x1="280.9227" y1="618.6143" x2="279.1194" y2="629.0732">
						<stop  offset="0" style="stop-color:#EE4F33"/>
						<stop  offset="1" style="stop-color:#BD0048"/>
					</linearGradient>
					<path style="fill:url(#SVGID_00000081637646222751905770000003653720329925251765_);" d="M289.46,630.03h-6.23
						c0,0-2.22,0.14-3.34-3.64c-0.27-0.93-0.6-1.74-0.94-2.44c-0.88-1.79-4.95-0.68-5.15,1.31c0,0.02-0.38,4.77-0.38,4.77h-1.83
						c0,0,0.35-6.76-0.15-8.09c-0.72-1.93-1.36-4.02-0.4-5.78c1.09-2,5.63-0.96,7.05,0.43c1.67,1.64,1.88,2.54,3.78,4.82
						c1.88,2.25,3.36,2.39,5.14,3.5C288.8,626.02,289.46,630.03,289.46,630.03z"/>
				</g>
				<path class="st25" d="M279.51,341.78l-7.05,2.38l-0.51,0.7l3.41-1.01l1,0.22l3.89-1.1l-0.07-0.86
					C279.96,342,279.73,341.89,279.51,341.78z"/>
			</g>
			<g>
				
					<linearGradient id="SVGID_00000142145237844653522160000005524453471983523741_" gradientUnits="userSpaceOnUse" x1="119.4139" y1="624.5809" x2="143.1479" y2="624.5809">
					<stop  offset="0" style="stop-color:#120B06"/>
					<stop  offset="1" style="stop-color:#362D27"/>
				</linearGradient>
				<path style="fill:url(#SVGID_00000142145237844653522160000005524453471983523741_);" d="M119.41,619.14v10.89h23.73
					c0,0-0.89-3.94-12.15-5.76l-1.66-5.13H119.41z"/>
				
					<linearGradient id="SVGID_00000163062641616987826680000002024277241804010415_" gradientUnits="userSpaceOnUse" x1="155.5116" y1="624.5809" x2="179.2458" y2="624.5809">
					<stop  offset="0" style="stop-color:#120B06"/>
					<stop  offset="1" style="stop-color:#362D27"/>
				</linearGradient>
				<path style="fill:url(#SVGID_00000163062641616987826680000002024277241804010415_);" d="M155.51,619.14v10.89h23.73
					c0,0-0.89-3.94-12.15-5.76l-1.66-5.13H155.51z"/>
				
					<linearGradient id="SVGID_00000061445716447465950710000011706066424543445159_" gradientUnits="userSpaceOnUse" x1="209.0376" y1="516.205" x2="166.6663" y2="537.541">
					<stop  offset="0" style="stop-color:#81533E"/>
					<stop  offset="1" style="stop-color:#7D4926"/>
				</linearGradient>
				<path style="fill:url(#SVGID_00000061445716447465950710000011706066424543445159_);" d="M151.89,490.04
					c0,0,2.46,48.23,2.95,56.82c0.49,8.58,0,74.73,0,74.73s12.27,0.29,12.27,0c0-0.29,11.57-75.09,13.07-96.23
					c1.5-21.15,0.62-46.22,2.61-49.14c1.99-2.92-5.37-19.05-5.37-19.05l-17.37-0.56L151.89,490.04z"/>
				<path d="M151.89,490.04c0,0,2.46,48.23,2.95,56.82c0.49,8.58,0,74.73,0,74.73s12.27,0.29,12.27,0
					c0-0.29,11.57-75.09,13.07-96.23c1.5-21.15,0.62-46.22,2.61-49.14c1.99-2.92-5.37-19.05-5.37-19.05l-17.37-0.56L151.89,490.04z"
					/>
				
					<linearGradient id="SVGID_00000123441172113667176030000006846728037193220502_" gradientUnits="userSpaceOnUse" x1="150.8048" y1="540.278" x2="125.0211" y2="537.8455">
					<stop  offset="0" style="stop-color:#81533E"/>
					<stop  offset="1" style="stop-color:#7D4926"/>
				</linearGradient>
				<path style="fill:url(#SVGID_00000123441172113667176030000006846728037193220502_);" d="M123.4,457.02
					c0,0-3.32,30.43-3.44,59.04c-0.12,28.61-2.05,105.57-2.05,105.57h13.1c0,0,13.51-74.11,18.42-92.5
					c4.91-18.39,17.68-71.77,17.68-71.77L123.4,457.02z"/>
				<path d="M123.4,457.02c0,0-3.32,30.43-3.44,59.04c-0.12,28.61-2.05,105.57-2.05,105.57h13.1c0,0,13.51-74.11,18.42-92.5
					c4.91-18.39,17.68-71.77,17.68-71.77L123.4,457.02z"/>
				
					<linearGradient id="SVGID_00000069381478331136975460000014190788198340317062_" gradientUnits="userSpaceOnUse" x1="160.4671" y1="400.5476" x2="201.1938" y2="400.5476">
					<stop  offset="0" style="stop-color:#000000"/>
					<stop  offset="0.9637" style="stop-color:#15FBFF"/>
					<stop  offset="1" style="stop-color:#376E46"/>
				</linearGradient>
				<path style="fill:url(#SVGID_00000069381478331136975460000014190788198340317062_);" d="M166.02,367.31
					c5.12,1.48,6.34,6.39,8.22,12.8c1.88,6.41,6.1,23.92,5.59,28.57c0,0,3.28-3.47,7.35-5.33c6.14-2.8,8.98-4.36,8.98-4.36
					l5.03,5.09c0,0-13.96,17.5-19.96,23.51c-6,6-11.25,10.25-13.98,0c-2.73-10.25-3.94-18.58-5.97-30.68
					C157.93,376.92,166.02,367.31,166.02,367.31z"/>
				<path class="st43" d="M141.45,340.47c0,0-2.08,7.05-3.41,10.59c-1.33,3.54-2.25,5.11-3.1,6c-0.85,0.9-10.49,7.8-10.49,7.8
					s9.48,9.98,16.2,9.98c6.72,0,20.62-8.19,20.62-8.19s-7.33-6.08-8.42-9.15c-1.09-3.07-0.66-9.8-0.66-9.8L141.45,340.47z"/>
				
					<linearGradient id="SVGID_00000067228715028424248160000011381425016527720841_" gradientUnits="userSpaceOnUse" x1="146.2617" y1="347.7632" x2="142.7131" y2="366.5862">
					<stop  offset="0" style="stop-color:#AE8C8F"/>
					<stop  offset="0.9677" style="stop-color:#FFFFFF;stop-opacity:0"/>
				</linearGradient>
				<path style="fill:url(#SVGID_00000067228715028424248160000011381425016527720841_);" d="M141.45,340.47
					c0,0-2.08,7.05-3.41,10.59c-1.33,3.54-2.25,5.11-3.1,6c-0.85,0.9-10.49,7.8-10.49,7.8s9.48,9.98,16.2,9.98
					c6.72,0,20.62-8.19,20.62-8.19s-7.33-6.08-8.42-9.15c-1.09-3.07-0.66-9.8-0.66-9.8L141.45,340.47z"/>
				<path class="st43" d="M155.97,318.87c1.74,1.47,6.25,6.53,6.94,10.46c0.69,3.93,0.05,12.92-0.48,16.73
					c-0.73,5.27-2.26,9.85-5.64,12.02c-3.38,2.18-9.8-1.16-12.92-4.23c-3.12-3.07-3.59-7.91-4.53-12.35
					c-0.95-4.44-0.2-9.32-0.2-9.32s-1.87-7.3,1.61-10.42C154.11,309.85,158.37,316.52,155.97,318.87z"/>
				<path d="M160.4,323.39c-2.2,1.75-7.04,1.69-11.08,1.28c-4.04-0.42-6.65-2.56-6.77,0.39c-0.12,2.95,1.41,5.96,1.64,8.44
					c0.24,2.48-0.17,3.58-0.17,3.58s-3.05,2.87-3.94,4.05c-0.34,0.46,0.39,2.67,0.37,4.34c-0.04,2.68-1.84,7.44-1.84,7.44
					s-3.93-6.77-4.32-7.9c-0.39-1.13-3.56-7.34-5.65-10.9c-2.09-3.56-2.42-10.45,5.52-16.32c7.94-5.87,14.35-6.12,18.23-4.36
					c3.89,1.76,7.35,1.05,7.35,1.05S164.09,320.45,160.4,323.39z"/>
				<path class="st43" d="M142.41,339.37c-0.2-1.86-1.16-6.8-5.52-6.52c-4.36,0.28-1.1,6.98,0.11,8.62
					c1.64,2.22,3.66,3.01,3.66,3.01S142.71,342.16,142.41,339.37z"/>
				
					<linearGradient id="SVGID_00000069391380529289406850000002630924026387568256_" gradientUnits="userSpaceOnUse" x1="110.7603" y1="414.6285" x2="179.8347" y2="414.6285">
					<stop  offset="0" style="stop-color:#000000"/>
					<stop  offset="0.9637" style="stop-color:#15FBFF"/>
					<stop  offset="1" style="stop-color:#376E46"/>
				</linearGradient>
				<path style="fill:url(#SVGID_00000069391380529289406850000002630924026387568256_);" d="M130.64,358.3l-19.88,15.6
					c0,0,5.98,23.34,6.25,32.62c0.15,5.28,2.69,29.47,3.86,43.73c0.88,10.78,1,15.18,3.88,16.38c7.6,3.14,22.42,5.55,36.26,3.65
					c8.23-1.13,15.23-6.32,17.88-10.64c2.26-3.68-0.21-8.9-0.72-15.76c-1.15-15.44-4.18-35.89-4.92-42.32
					c-1.06-9.28-7.24-34.25-7.24-34.25l-9.66-4.32l-0.75,5.3L130.64,358.3z"/>
				<polygon class="st46" points="132.87,356.71 152.55,366.84 147.14,373.77 129.58,358.3 				"/>
				<polygon class="st46" points="152.55,366.84 157.93,371.64 157.93,362.24 155.24,361.3 				"/>
				<path class="st47" d="M181.04,420.36c0,0,5.5-5.53,8.45-8.44c4.62-4.56,10.3-9.92,10.3-9.92l-4.88-3.99c0,0-5.97,3.52-12.43,6.9
					c-4.04,2.12-5.6,5.03-5.64,9.21C176.79,418.54,179.68,420.88,181.04,420.36z"/>
				
					<linearGradient id="SVGID_00000182524456615878226570000000496188087025179548_" gradientUnits="userSpaceOnUse" x1="200.0719" y1="385.7668" x2="188.7395" y2="405.4569">
					<stop  offset="0" style="stop-color:#C9D9FF"/>
					<stop  offset="1" style="stop-color:#99BAE0"/>
				</linearGradient>
				<path style="fill:url(#SVGID_00000182524456615878226570000000496188087025179548_);" d="M195.27,408.12l-7.98,1.39
					c-0.74,0.13-1.22-0.44-1.07-1.28l3.68-19.89c0.16-0.84,0.88-1.62,1.63-1.75l7.98-1.39c0.74-0.13,2.74,0.65,2.59,1.49l-5.2,19.68
					C196.74,407.2,196.01,407.99,195.27,408.12z"/>
				
					<linearGradient id="SVGID_00000138544540383939789120000006790607267964622527_" gradientUnits="userSpaceOnUse" x1="205.3582" y1="385.2575" x2="194.4507" y2="398.5732">
					<stop  offset="0" style="stop-color:#A3BBE3"/>
					<stop  offset="1" style="stop-color:#6A8FBA"/>
				</linearGradient>
				<path style="fill:url(#SVGID_00000138544540383939789120000006790607267964622527_);" d="M196.77,408.78l-7.98,1.39
					c-0.74,0.13-1.22-0.44-1.07-1.28l3.68-19.89c0.16-0.84,0.88-1.62,1.63-1.75l7.98-1.39c0.74-0.13,1.22,0.44,1.07,1.28
					l-3.68,19.89C198.25,407.86,197.52,408.65,196.77,408.78z"/>
				<path class="st47" d="M144.37,422.07c2.37-1.71,9.91-5.23,9.91-5.23s13.33-2.28,17.45-4.23c2.6-1.23,8.76-6.03,11.2-9.06
					c2.45-3.03,4.59-4.03,6.8-5.09s4.04-2.14,4.37-1.19c0.33,0.95-0.85,1.67-1.91,2.4c-1.05,0.73-4.09,2.93-5.02,3.67
					c-0.93,0.74-0.49,1.96-0.49,1.96s1.39-0.05,3.03,0.06c1.64,0.1,5.56,0.08,5.88,1.16c0.32,1.08-2.14,1.99-3.9,1.75
					c-1.76-0.24-3.69,0.43-3.69,0.43s1.21,1,3.37,0.87c2.16-0.13,2.77,0.17,2.35,0.94c-0.42,0.77-2.37,1.58-2.37,1.58
					s0.82,1.11-0.36,1.84c-1.18,0.72-4.03,1.87-5.79,1.77c-1.77-0.11-6.4,3.59-9.3,3.41c-2.9-0.18-15.65,8.19-21.86,10.59
					s-15.67,4.07-15.67,4.07L144.37,422.07z"/>
				<path class="st47" d="M202.79,389.18c-1.76,0.12-3.76,1.63-4.36,3.18c-0.59,1.56,0.16,1.6,0.93,1.52
					c0.76-0.09,1.52-0.04,1.52-0.04s-1.36,1.64-2.92,2.34c-1.56,0.7-2.5,1.7-1.8,2.81c0.7,1.11,0.96,0.86,2,0.39
					c0,0-1.46,1.24-0.78,2.61c0.68,1.37,2.4,0.02,2.4,0.02s-1.7,0.96-1.27,2.31c0.43,1.35,1.51,0.09,2.67-0.23
					c1.16-0.33,2.92-2.47,2.86-3.54s-0.13-2.13-0.13-2.13s0.31-1.04,0.39-2.37c0.07-1.32,0.07-1.32,0.07-1.32l-0.54-1.63
					C203.84,393.09,204.83,389.04,202.79,389.18z"/>
				
					<linearGradient id="SVGID_00000180342282908408056590000016900475308062720159_" gradientUnits="userSpaceOnUse" x1="106.7862" y1="405.4705" x2="174.2433" y2="405.4705">
					<stop  offset="0" style="stop-color:#000000"/>
					<stop  offset="0.9637" style="stop-color:#15FBFF"/>
					<stop  offset="1" style="stop-color:#376E46"/>
				</linearGradient>
				<path style="fill:url(#SVGID_00000180342282908408056590000016900475308062720159_);" d="M110.76,373.9
					c-2.85,0.59-5.46,7.93-2.98,19.9c2.48,11.97,17.61,36.91,22.81,41.61c5.21,4.71,20.35-1.04,27.33-4.17
					c6.98-3.12,16.32-9.51,16.32-9.51l-2.59-9.52c0,0-19.95,3.92-23.31,5.11c-3.36,1.19-4.98,1.19-4.98,1.19
					s-13.01-22.9-17.73-30.45C120.92,380.54,117.71,372.48,110.76,373.9z"/>
			</g>
		</g>
	</g>
</g>
<g>
	<g>
		<g>
			<path class="st0" d="M562.34,606.61c0,0-4.17-28.66-3.82-45.33c0.35-16.67-0.02-35.43-0.02-35.43h1.92c0,0-1.3,33.09,0.11,53.05
				c1.41,19.94,5.14,27.71,5.14,27.71H562.34"/>
		</g>
		<g>
			<path class="st1" d="M574.76,493.61c-0.39-0.98-0.86-2-1.75-2.56c-1.22-0.77-2.82-0.45-4.18,0.03
				c-5.8,2.05-10.95,12.87-13.29,18.56l7.7,25.96C577.15,522.7,579.56,505.78,574.76,493.61z"/>
		</g>
		<g>
			<g>
				<path class="st0" d="M572.56,492.1c0.01,0-0.03,0.12-0.11,0.34c-0.1,0.25-0.22,0.56-0.38,0.95c-0.34,0.82-0.81,2.01-1.38,3.48
					c-1.14,2.95-2.58,7.07-3.87,11.71c-1.29,4.65-2.17,8.92-2.72,12.03c-0.27,1.56-0.48,2.82-0.61,3.69c-0.07,0.41-0.12,0.74-0.16,1
					c-0.04,0.23-0.07,0.35-0.08,0.35c-0.01,0-0.01-0.12,0.02-0.36c0.03-0.27,0.06-0.6,0.11-1.01c0.09-0.88,0.27-2.15,0.51-3.71
					c0.49-3.13,1.35-7.42,2.64-12.08c1.3-4.66,2.78-8.78,3.97-11.71c0.59-1.47,1.1-2.64,1.47-3.45c0.18-0.37,0.32-0.68,0.43-0.92
					C572.49,492.2,572.55,492.09,572.56,492.1z"/>
			</g>
		</g>
		<g>
			<path class="st2" d="M559.82,541.83c-7.22-3.99-11.48-11.5-11.88-19.74c-0.28-5.76,1.49-11.41,3.5-16.82
				c0.17-0.47,0.38-0.97,0.82-1.22c0.61-0.34,1.36-0.04,1.97,0.31c5.25,2.99,8.43,8.69,10.12,14.48c1.13,3.86,1.71,7.92,1.19,11.91
				C565.01,534.73,562.73,539.06,559.82,541.83"/>
		</g>
		<g>
			<g>
				<path class="st0" d="M559.82,541.83c-0.01,0-0.02-0.12-0.03-0.35c-0.01-0.26-0.01-0.59-0.02-1c0-0.86-0.04-2.12-0.11-3.66
					c-0.14-3.09-0.54-7.34-1.34-11.99c-0.8-4.65-1.77-8.81-2.49-11.82c-0.35-1.47-0.64-2.68-0.85-3.56
					c-0.09-0.39-0.16-0.72-0.22-0.97c-0.05-0.22-0.07-0.34-0.06-0.34c0.01,0,0.05,0.11,0.12,0.33c0.07,0.25,0.17,0.57,0.28,0.96
					c0.24,0.83,0.57,2.04,0.95,3.54c0.77,3,1.78,7.16,2.58,11.82c0.8,4.66,1.17,8.94,1.25,12.04c0.04,1.55,0.04,2.8,0.01,3.67
					c-0.02,0.4-0.03,0.73-0.04,1C559.84,541.71,559.83,541.83,559.82,541.83z"/>
			</g>
		</g>
		<g>
			<path class="st1" d="M567.96,585.67c7.11,1.56,12.96,6.57,19.82,9.01c4.54,1.61,9.67,2.18,13.29,5.36
				c-0.87-2.19-2.93-3.66-4.93-4.91c-5.64-3.52-11.68-6.4-17.96-8.57c-3.23-1.11-6.73-2.04-10.01-1.13"/>
		</g>
		<g>
			<path class="st1" d="M557.69,592.01c-8.9-0.14-18.27-7.72-27.13-8.17C539.83,580.84,553.1,583.28,557.69,592.01"/>
		</g>
		<g>
			<path class="st1" d="M561.17,570.65c4.52-1.63,9.48-1.71,14.23-0.97c4.75,0.74,9.33,2.26,13.89,3.78
				c-0.46-3.09-2.96-5.41-5.31-7.47c-1.77-1.55-3.55-3.1-5.58-4.29c-2.03-1.18-4.34-1.99-6.69-1.89c-2.83,0.12-5.53,1.58-7.38,3.72
				C562.47,565.68,561.47,567.84,561.17,570.65"/>
		</g>
		<g>
			<path class="st2" d="M542.9,560.82c-5.6-4.78-14.09-4.32-21.46-4.15c11.32,5.41,23.52,12.84,33.28,20.74
				C555.02,572.2,549.98,566.87,542.9,560.82z"/>
		</g>
		<g>
			<path class="st1" d="M563.69,554.22c2.82-1.88,5.67-3.67,8.62-5.01c2.95-1.34,5.7-3.47,8.55-5.02c3.69-2,6.89-4.78,10.28-7.26
				c3.39-2.48,7.11-4.72,11.26-5.37c-3.38-0.7-6.92-0.32-10.25,0.59c-3.33,0.91-6.5,2.33-9.65,3.75c-4.37,1.97-8.82,3.99-12.39,7.18
				C566.54,546.29,563.31,549.44,563.69,554.22"/>
		</g>
		<g>
			<g>
				<path class="st0" d="M587.62,592.01c-0.01,0.01-0.1-0.03-0.28-0.12c-0.21-0.11-0.47-0.24-0.78-0.4
					c-0.67-0.36-1.63-0.89-2.84-1.49c-0.6-0.32-1.26-0.65-1.99-0.99c-0.71-0.35-1.49-0.7-2.31-1.06c-1.64-0.7-3.48-1.43-5.48-1.91
					c-2-0.49-3.98-0.6-5.71-0.14c-0.87,0.21-1.69,0.42-2.42,0.72c-0.73,0.3-1.38,0.64-1.95,1c-1.14,0.72-1.94,1.48-2.45,2.03
					c-0.52,0.55-0.77,0.89-0.79,0.87c-0.01-0.01,0.05-0.1,0.16-0.26c0.11-0.17,0.29-0.4,0.54-0.69c0.49-0.58,1.28-1.38,2.42-2.13
					c0.57-0.38,1.23-0.74,1.97-1.06c0.74-0.32,1.58-0.54,2.45-0.76c1.76-0.48,3.83-0.38,5.85,0.12c2.03,0.48,3.88,1.23,5.53,1.95
					c0.82,0.36,1.6,0.72,2.31,1.09c0.72,0.35,1.38,0.69,1.97,1.02c1.2,0.64,2.15,1.2,2.8,1.59c0.3,0.18,0.55,0.33,0.75,0.45
					C587.54,591.94,587.62,592,587.62,592.01z"/>
			</g>
		</g>
		<g>
			<g>
				<path class="st0" d="M551.05,587.59c0.01-0.02,0.21,0.04,0.56,0.16c0.35,0.12,0.85,0.33,1.45,0.63c1.2,0.59,2.77,1.6,4.25,3.02
					c1.48,1.42,2.55,2.96,3.18,4.13c0.32,0.59,0.55,1.08,0.69,1.42c0.14,0.35,0.21,0.54,0.19,0.55c-0.05,0.02-0.38-0.73-1.07-1.86
					c-0.68-1.13-1.76-2.62-3.21-4.01c-1.45-1.39-2.98-2.41-4.14-3.05C551.79,587.95,551.03,587.65,551.05,587.59z"/>
			</g>
		</g>
		<g>
			<g>
				<path class="st0" d="M531.35,560.38c0-0.01,0.13,0.03,0.38,0.11c0.28,0.1,0.63,0.22,1.07,0.38c0.47,0.17,1.04,0.38,1.68,0.62
					c0.66,0.24,1.37,0.6,2.18,0.96c3.2,1.46,7.47,3.9,11.59,7.38c2.03,1.77,3.87,3.57,5.4,5.32c1.53,1.76,2.83,3.42,3.84,4.86
					c1.02,1.44,1.79,2.64,2.32,3.47c0.25,0.39,0.45,0.71,0.61,0.95c0.14,0.22,0.21,0.34,0.2,0.34s-0.09-0.1-0.25-0.31
					c-0.16-0.21-0.38-0.52-0.66-0.92c-0.56-0.81-1.36-1.99-2.39-3.41c-1.03-1.42-2.34-3.06-3.87-4.8c-1.54-1.74-3.37-3.52-5.39-5.27
					c-4.09-3.46-8.31-5.92-11.48-7.42c-0.8-0.37-1.5-0.74-2.15-1c-0.64-0.26-1.19-0.48-1.66-0.67c-0.43-0.18-0.78-0.32-1.05-0.44
					C531.47,560.45,531.35,560.39,531.35,560.38z"/>
			</g>
		</g>
		<g>
			<g>
				<path class="st0" d="M574.52,565.65c-0.01,0.02-0.26-0.01-0.71-0.09c-0.24-0.05-0.52-0.1-0.82-0.15
					c-0.32-0.06-0.69-0.06-1.09-0.1c-1.6-0.12-3.93,0.02-6.12,1.21c-1.1,0.56-2.03,1.31-2.78,2.07c-0.77,0.75-1.35,1.53-1.79,2.21
					c-0.89,1.37-1.17,2.35-1.22,2.34c-0.02,0,0.03-0.26,0.18-0.69c0.16-0.43,0.42-1.06,0.85-1.76c0.42-0.71,1-1.52,1.77-2.3
					c0.76-0.78,1.71-1.57,2.84-2.14c2.25-1.23,4.67-1.33,6.29-1.15c0.41,0.06,0.79,0.07,1.1,0.15c0.3,0.08,0.57,0.14,0.82,0.21
					C574.29,565.55,574.53,565.63,574.52,565.65z"/>
			</g>
		</g>
		<g>
			<g>
				<path class="st0" d="M583.47,537.9c0,0.01-0.11,0.08-0.34,0.21c-0.26,0.14-0.59,0.32-0.99,0.54c-0.86,0.47-2.11,1.15-3.62,2.04
					c-1.5,0.9-3.27,2.01-5.16,3.36c-1.88,1.35-3.9,2.92-5.76,4.82c-0.92,0.96-1.76,1.96-2.35,3.05c-0.58,1.12-1.14,2.2-1.65,3.24
					c-1.03,2.08-1.87,3.99-2.47,5.63c-0.6,1.64-0.98,3.01-1.2,3.96c-0.23,0.95-0.31,1.49-0.34,1.48c-0.01,0,0-0.14,0.04-0.39
					c0.03-0.26,0.09-0.64,0.18-1.12c0.19-0.97,0.53-2.35,1.11-4.01c0.58-1.66,1.4-3.59,2.42-5.68c0.51-1.05,1.06-2.13,1.64-3.26
					c0.61-1.14,1.47-2.15,2.4-3.13c1.88-1.93,3.92-3.5,5.82-4.84c1.9-1.34,3.69-2.43,5.21-3.31c1.53-0.87,2.79-1.53,3.67-1.96
					c0.42-0.2,0.76-0.36,1.02-0.49C583.34,537.94,583.46,537.89,583.47,537.9z"/>
			</g>
		</g>
		<g>
			<g>
				<path class="st0" d="M558.51,564.85c-0.02,0-0.08-0.26-0.18-0.75c-0.1-0.55-0.23-1.24-0.39-2.06c-0.34-1.73-0.86-4.12-1.68-6.68
					c-0.82-2.56-1.81-4.79-2.54-6.4c-0.35-0.76-0.64-1.4-0.87-1.91c-0.2-0.45-0.3-0.71-0.29-0.72c0.02-0.01,0.16,0.23,0.4,0.66
					c0.24,0.43,0.57,1.07,0.96,1.86c0.78,1.59,1.82,3.82,2.64,6.4c0.83,2.58,1.32,4.99,1.6,6.74c0.14,0.88,0.24,1.58,0.29,2.08
					C558.51,564.57,558.53,564.84,558.51,564.85z"/>
			</g>
		</g>
		<g>
			<path class="st1" d="M557.86,544.6c-0.22-3.36-1.32-6.63-2.89-9.61c-4.32-8.17-12.44-14.22-21.5-16.03
				c6.64,9.89,13.27,19.78,19.91,29.67l2.57,5.3C557.7,551.04,558.09,547.96,557.86,544.6z"/>
		</g>
	</g>
	<g>
		<g>
			<g>
				<rect x="540.13" y="603.07" class="st3" width="46.29" height="8.2"/>
			</g>
		</g>
		<g>
			<g>
				<polygon class="st3" points="543.59,609.64 547.53,635.1 578.26,635.1 582.96,609.64 				"/>
			</g>
		</g>
		<g>
			<g>
				<g>
					<path class="st4" d="M586.39,611.28c0,0.09-10.44,0.16-23.32,0.16c-12.88,0-23.32-0.07-23.32-0.16
						c0-0.09,10.44-0.16,23.32-0.16C575.95,611.12,586.39,611.19,586.39,611.28z"/>
				</g>
			</g>
		</g>
	</g>
</g>
<path class="st51" d="M515.83,343.56c0,3.31-2.69,6-6,6h-19.58c-3.31,0-6-2.69-6-6v-19.58c0-3.31,2.69-6,6-6h19.58
	c3.31,0,6,2.69,6,6"/>
<path class="st52" d="M510.16,343.56c0,3.31-2.69,6-6,6h-19.58c-3.31,0-6-2.69-6-6v-19.58c0-3.31,2.69-6,6-6h19.58
	c3.31,0,6,2.69,6,6"/>
<g>
	<g>
		<g>
			<g>
				<g>
					<polygon class="st7" points="483.46,334.23 486.65,331.04 492.78,336.5 503.02,326.21 505.98,329.39 492.33,342.63 					"/>
				</g>
			</g>
		</g>
	</g>
</g>
<g>
	<g>
		<g>
			<path class="st53" d="M319.19,317.64l-11.51,8.9c-1.31,1.01-1.55,2.91-0.54,4.21l4.85,6.27c1.01,1.31,2.91,1.55,4.21,0.54
				l3.4-2.63l3.69,0.47c0.26,0.03,0.51-0.15,0.54-0.42l0.47-3.69l3.4-2.63c1.31-1.01,1.55-2.91,0.54-4.21l-4.85-6.27
				C322.39,316.87,320.49,316.63,319.19,317.64z"/>
			<path class="st7" d="M320.77,331.54c-0.12,0.1-0.27,0.14-0.43,0.11l-4.32-0.52c-0.03,0-0.1-0.01-0.2-0.02
				c-0.09-0.01-0.24-0.05-0.45-0.1c-0.21-0.05-0.41-0.12-0.6-0.2c-0.2-0.08-0.41-0.2-0.64-0.35c-0.23-0.16-0.43-0.34-0.58-0.54
				c-0.5-0.64-0.71-1.3-0.63-1.96c0.08-0.66,0.45-1.25,1.09-1.74c0.18-0.14,0.4-0.26,0.64-0.34c0.23-0.08,0.48-0.13,0.72-0.15
				c0.23-0.02,0.43-0.02,0.61-0.02c0.09,0,0.19,0.01,0.28,0.02c0.02-0.09,0.03-0.18,0.05-0.28c0.04-0.17,0.09-0.37,0.17-0.59
				c0.08-0.23,0.18-0.45,0.32-0.66c0.14-0.21,0.3-0.39,0.49-0.53c0.64-0.5,1.3-0.71,1.96-0.62c0.66,0.08,1.25,0.45,1.75,1.09
				c0.5,0.65,0.69,1.55,0.56,2.7l-0.56,4.31C320.96,331.31,320.89,331.44,320.77,331.54z"/>
		</g>
		<g>
			<path class="st53" d="M288.57,282.8l-8.48,6.56c-0.96,0.74-1.14,2.14-0.4,3.11l3.58,4.62c0.74,0.96,2.14,1.14,3.11,0.4l2.51-1.94
				l2.72,0.35c0.19,0.02,0.37-0.11,0.4-0.31l0.35-2.72l2.51-1.94c0.96-0.74,1.14-2.14,0.4-3.11l-3.58-4.62
				C290.93,282.23,289.53,282.05,288.57,282.8z"/>
			<path class="st7" d="M289.73,293.04c-0.09,0.07-0.2,0.1-0.31,0.08l-3.19-0.38c-0.02,0-0.07,0-0.15-0.02
				c-0.06-0.01-0.17-0.03-0.33-0.07c-0.15-0.04-0.3-0.09-0.45-0.14c-0.15-0.06-0.31-0.15-0.47-0.26c-0.17-0.12-0.31-0.25-0.43-0.4
				c-0.37-0.47-0.53-0.96-0.47-1.45c0.06-0.49,0.33-0.92,0.8-1.28c0.13-0.11,0.29-0.19,0.47-0.25c0.17-0.06,0.35-0.1,0.53-0.11
				c0.17-0.01,0.32-0.02,0.45-0.01c0.07,0,0.14,0.01,0.21,0.01c0.01-0.07,0.02-0.14,0.04-0.2c0.03-0.13,0.07-0.27,0.12-0.43
				c0.06-0.17,0.13-0.33,0.23-0.49c0.1-0.16,0.22-0.29,0.36-0.39c0.47-0.37,0.96-0.52,1.44-0.46c0.49,0.06,0.92,0.33,1.29,0.81
				c0.37,0.48,0.51,1.14,0.42,1.99l-0.42,3.18C289.88,292.88,289.82,292.97,289.73,293.04z"/>
		</g>
		<g>
			<path class="st53" d="M323.38,289.46l-17.21,2.6c-1.95,0.29-3.31,2.13-3.02,4.09l1.42,9.38c0.29,1.95,2.13,3.31,4.09,3.02
				l5.09-0.77l3.58,2.64c0.26,0.19,0.62,0.13,0.81-0.12l2.64-3.58l5.09-0.77c1.95-0.29,3.31-2.13,3.02-4.09l-1.42-9.38
				C327.17,290.52,325.33,289.17,323.38,289.46z"/>
			<path class="st7" d="M316.93,304.9c-0.18,0.03-0.36-0.02-0.51-0.13l-4.21-3.06c-0.03-0.01-0.1-0.06-0.19-0.14
				c-0.08-0.06-0.22-0.19-0.41-0.36c-0.19-0.18-0.36-0.36-0.52-0.56c-0.16-0.2-0.32-0.45-0.46-0.74c-0.15-0.3-0.25-0.6-0.29-0.9
				c-0.15-0.96,0.01-1.78,0.48-2.42c0.47-0.64,1.19-1.04,2.15-1.19c0.27-0.04,0.56-0.04,0.86,0.02c0.29,0.05,0.57,0.14,0.84,0.27
				c0.25,0.12,0.47,0.23,0.65,0.34c0.1,0.06,0.19,0.12,0.28,0.18c0.07-0.09,0.14-0.17,0.22-0.26c0.14-0.16,0.31-0.33,0.52-0.52
				c0.21-0.2,0.45-0.37,0.72-0.5c0.27-0.14,0.55-0.23,0.82-0.28c0.96-0.15,1.77,0.02,2.41,0.49c0.64,0.47,1.04,1.2,1.19,2.16
				c0.15,0.97-0.18,2.02-0.98,3.14l-3.1,4.18C317.27,304.78,317.11,304.88,316.93,304.9z"/>
		</g>
		<g class="st54">
			<path class="st53" d="M289.29,308.65l-9.38,8.92c-1.06,1.01-1.11,2.71-0.09,3.78l4.86,5.11c1.01,1.06,2.71,1.11,3.78,0.09
				l2.77-2.64l3.31,0.08c0.24,0.01,0.44-0.18,0.44-0.42l0.08-3.31l2.77-2.64c1.06-1.01,1.11-2.71,0.09-3.78l-4.86-5.11
				C292.05,307.68,290.35,307.64,289.29,308.65z"/>
			<path class="st7" d="M291.95,320.82c-0.1,0.1-0.23,0.14-0.37,0.14l-3.87-0.07c-0.02,0-0.09,0-0.18,0c-0.08,0-0.21-0.02-0.4-0.05
				c-0.19-0.03-0.38-0.07-0.55-0.12c-0.18-0.05-0.38-0.14-0.6-0.25c-0.22-0.12-0.41-0.26-0.56-0.42c-0.5-0.52-0.75-1.09-0.74-1.68
				c0.01-0.59,0.28-1.14,0.8-1.64c0.15-0.14,0.33-0.26,0.53-0.36c0.2-0.09,0.41-0.16,0.62-0.2c0.2-0.03,0.38-0.06,0.54-0.07
				c0.08-0.01,0.17-0.01,0.25-0.01c0.01-0.08,0.01-0.17,0.02-0.25c0.02-0.16,0.05-0.34,0.09-0.54c0.05-0.21,0.12-0.42,0.22-0.61
				c0.1-0.2,0.23-0.37,0.38-0.52c0.52-0.5,1.08-0.74,1.67-0.73c0.59,0.01,1.14,0.29,1.65,0.81c0.5,0.53,0.75,1.31,0.74,2.34
				l-0.11,3.87C292.1,320.6,292.05,320.72,291.95,320.82z"/>
		</g>
		<g class="st54">
			<path class="st53" d="M314.91,276.07l-8.95-0.77c-1.02-0.09-1.92,0.67-2.01,1.69l-0.42,4.88c-0.09,1.02,0.67,1.92,1.69,2.01
				l2.65,0.23l1.48,1.76c0.11,0.13,0.3,0.14,0.42,0.04l1.76-1.48l2.65,0.23c1.02,0.09,1.92-0.67,2.01-1.69l0.42-4.88
				C316.68,277.06,315.92,276.15,314.91,276.07z"/>
			<path class="st7" d="M309.81,283.04c-0.1-0.01-0.18-0.05-0.24-0.13l-1.75-2.04c-0.01-0.01-0.04-0.04-0.08-0.09
				c-0.03-0.04-0.09-0.12-0.16-0.23c-0.07-0.11-0.14-0.23-0.19-0.34c-0.06-0.12-0.11-0.26-0.14-0.43c-0.04-0.17-0.05-0.33-0.04-0.49
				c0.04-0.5,0.22-0.89,0.53-1.16c0.31-0.27,0.72-0.38,1.22-0.34c0.14,0.01,0.29,0.05,0.43,0.11c0.14,0.06,0.27,0.14,0.39,0.23
				c0.11,0.09,0.21,0.17,0.29,0.25c0.04,0.04,0.08,0.08,0.12,0.12c0.05-0.04,0.09-0.07,0.14-0.1c0.09-0.06,0.2-0.13,0.32-0.2
				c0.13-0.07,0.27-0.13,0.42-0.17c0.15-0.04,0.3-0.05,0.44-0.04c0.5,0.04,0.89,0.22,1.15,0.53c0.26,0.31,0.38,0.73,0.34,1.23
				c-0.04,0.5-0.33,0.99-0.87,1.46l-2.06,1.73C309.99,283.02,309.91,283.05,309.81,283.04z"/>
		</g>
	</g>
	<g>
		<path class="st53" d="M293.44,250.44l-16.01,7.17c-1.82,0.81-2.64,2.97-1.82,4.78l3.91,8.72c0.81,1.82,2.97,2.64,4.78,1.82
			l4.73-2.12l4.19,1.6c0.3,0.11,0.64-0.04,0.75-0.34l1.6-4.19l4.73-2.12c1.82-0.81,2.64-2.97,1.82-4.78l-3.91-8.72
			C297.41,250.44,295.25,249.62,293.44,250.44z"/>
		<path class="st7" d="M291.35,267.18c-0.17,0.08-0.36,0.08-0.53,0.01l-4.92-1.83c-0.03-0.01-0.11-0.04-0.22-0.08
			c-0.1-0.04-0.26-0.12-0.5-0.24c-0.23-0.12-0.45-0.26-0.65-0.4c-0.21-0.15-0.43-0.35-0.65-0.59c-0.23-0.25-0.4-0.52-0.53-0.8
			c-0.4-0.89-0.47-1.73-0.18-2.48c0.28-0.75,0.88-1.33,1.77-1.73c0.25-0.12,0.54-0.19,0.84-0.22c0.3-0.03,0.59-0.02,0.88,0.03
			c0.27,0.05,0.52,0.1,0.72,0.16c0.11,0.03,0.22,0.06,0.32,0.1c0.04-0.1,0.09-0.21,0.14-0.31c0.1-0.19,0.22-0.41,0.36-0.64
			c0.15-0.25,0.34-0.48,0.56-0.68c0.22-0.21,0.47-0.37,0.72-0.49c0.89-0.4,1.72-0.46,2.47-0.18c0.75,0.28,1.33,0.88,1.74,1.78
			c0.41,0.9,0.37,2.01-0.1,3.32l-1.88,4.9C291.64,266.97,291.52,267.1,291.35,267.18z"/>
	</g>
	<g>
		<path class="st53" d="M267.42,200.93l-11.8,5.29c-1.34,0.6-1.94,2.19-1.34,3.53l2.88,6.43c0.6,1.34,2.19,1.94,3.53,1.34l3.49-1.56
			l3.09,1.18c0.22,0.08,0.47-0.03,0.56-0.25l1.18-3.09l3.49-1.56c1.34-0.6,1.94-2.19,1.34-3.53l-2.88-6.43
			C270.35,200.93,268.76,200.33,267.42,200.93z"/>
		<path class="st7" d="M265.88,213.27c-0.13,0.06-0.26,0.06-0.39,0.01l-3.63-1.35c-0.02,0-0.08-0.03-0.17-0.06
			c-0.07-0.03-0.2-0.09-0.37-0.18c-0.17-0.09-0.33-0.19-0.48-0.3c-0.16-0.11-0.32-0.26-0.48-0.44c-0.17-0.18-0.3-0.38-0.39-0.59
			c-0.3-0.66-0.34-1.27-0.14-1.83c0.21-0.55,0.65-0.98,1.3-1.28c0.19-0.08,0.4-0.14,0.62-0.16c0.22-0.02,0.44-0.01,0.65,0.02
			c0.2,0.03,0.38,0.07,0.53,0.11c0.08,0.02,0.16,0.05,0.24,0.07c0.03-0.08,0.07-0.15,0.1-0.23c0.07-0.14,0.16-0.3,0.27-0.48
			c0.11-0.18,0.25-0.35,0.41-0.5c0.17-0.15,0.34-0.28,0.53-0.36c0.66-0.3,1.27-0.34,1.82-0.13c0.55,0.21,0.98,0.65,1.28,1.31
			c0.3,0.66,0.27,1.49-0.08,2.45l-1.39,3.61C266.1,213.11,266.01,213.21,265.88,213.27z"/>
	</g>
	<g>
		<path class="st53" d="M306.33,218.61l-20.9-1.83c-2.37-0.21-4.48,1.56-4.69,3.94l-1,11.39c-0.21,2.37,1.56,4.48,3.94,4.69
			l6.18,0.54l3.45,4.11c0.25,0.29,0.69,0.33,0.98,0.09l4.11-3.45l6.18,0.54c2.37,0.21,4.48-1.56,4.69-3.94l1-11.39
			C310.48,220.93,308.71,218.81,306.33,218.61z"/>
		<path class="st7" d="M294.4,234.88c-0.22-0.02-0.42-0.12-0.56-0.3l-4.07-4.78c-0.03-0.02-0.1-0.1-0.19-0.22
			c-0.08-0.1-0.21-0.28-0.38-0.54c-0.17-0.26-0.32-0.53-0.45-0.8c-0.13-0.28-0.25-0.61-0.33-0.99c-0.09-0.39-0.12-0.78-0.09-1.14
			c0.1-1.17,0.52-2.08,1.25-2.7c0.73-0.62,1.69-0.88,2.86-0.78c0.33,0.03,0.67,0.12,1.01,0.26c0.33,0.14,0.63,0.33,0.91,0.55
			c0.26,0.21,0.48,0.4,0.67,0.58c0.1,0.09,0.19,0.19,0.28,0.29c0.11-0.08,0.22-0.16,0.33-0.24c0.21-0.15,0.46-0.3,0.75-0.46
			c0.31-0.17,0.64-0.3,0.98-0.39c0.36-0.09,0.71-0.12,1.04-0.09c1.16,0.1,2.07,0.52,2.68,1.25c0.62,0.73,0.88,1.7,0.78,2.87
			c-0.1,1.17-0.79,2.32-2.04,3.41l-4.82,4.02C294.83,234.83,294.62,234.89,294.4,234.88z"/>
	</g>
	<g class="st54">
		<path class="st53" d="M260.94,231.44l-13.52,7.8c-1.54,0.89-2.07,2.87-1.18,4.4l4.25,7.37c0.89,1.54,2.87,2.07,4.4,1.18l4-2.31
			l3.86,1.03c0.28,0.07,0.56-0.09,0.64-0.37l1.03-3.86l4-2.31c1.54-0.89,2.07-2.87,1.18-4.4l-4.25-7.37
			C264.46,231.08,262.48,230.55,260.94,231.44z"/>
		<path class="st7" d="M260.61,246.45c-0.15,0.08-0.31,0.11-0.47,0.06l-4.52-1.17c-0.03,0-0.1-0.02-0.21-0.05
			c-0.09-0.03-0.25-0.08-0.46-0.17c-0.21-0.09-0.42-0.19-0.61-0.3c-0.2-0.11-0.41-0.27-0.63-0.46c-0.22-0.2-0.4-0.42-0.54-0.66
			c-0.44-0.76-0.57-1.49-0.39-2.18c0.18-0.69,0.66-1.26,1.41-1.7c0.22-0.13,0.46-0.22,0.73-0.27c0.26-0.05,0.53-0.07,0.79-0.05
			c0.25,0.02,0.47,0.04,0.65,0.07c0.1,0.02,0.2,0.03,0.29,0.06c0.03-0.1,0.06-0.19,0.1-0.28c0.07-0.18,0.15-0.38,0.26-0.6
			c0.11-0.23,0.26-0.46,0.43-0.66c0.18-0.21,0.38-0.37,0.59-0.5c0.75-0.44,1.48-0.56,2.17-0.38c0.69,0.18,1.26,0.66,1.7,1.42
			c0.44,0.76,0.51,1.75,0.21,2.95l-1.22,4.51C260.85,246.23,260.75,246.36,260.61,246.45z"/>
	</g>
	<g class="st54">
		<path class="st53" d="M328.33,251.94l-15.14-3.8c-1.72-0.43-3.48,0.62-3.91,2.34l-2.07,8.25c-0.43,1.72,0.62,3.48,2.34,3.91
			l4.48,1.12l2.05,3.43c0.15,0.25,0.47,0.33,0.71,0.18l3.43-2.05l4.48,1.12c1.72,0.43,3.48-0.62,3.91-2.34l2.07-8.25
			C331.1,254.13,330.05,252.37,328.33,251.94z"/>
		<path class="st7" d="M317.66,262.49c-0.16-0.04-0.29-0.14-0.38-0.28l-2.43-3.99c-0.02-0.02-0.06-0.09-0.11-0.18
			c-0.05-0.08-0.12-0.23-0.21-0.44c-0.09-0.21-0.17-0.43-0.24-0.64c-0.07-0.22-0.11-0.48-0.13-0.77c-0.02-0.3,0-0.58,0.07-0.85
			c0.21-0.85,0.63-1.47,1.24-1.83c0.61-0.37,1.35-0.45,2.19-0.24c0.24,0.06,0.48,0.16,0.71,0.31c0.22,0.14,0.43,0.32,0.6,0.51
			c0.17,0.18,0.31,0.35,0.42,0.51c0.06,0.08,0.12,0.16,0.17,0.25c0.09-0.05,0.18-0.09,0.27-0.14c0.17-0.08,0.37-0.17,0.61-0.25
			c0.24-0.09,0.5-0.15,0.77-0.17c0.27-0.02,0.53,0,0.77,0.06c0.84,0.21,1.46,0.62,1.82,1.24c0.37,0.61,0.45,1.35,0.24,2.2
			c-0.21,0.85-0.85,1.61-1.9,2.26l-4.01,2.39C317.98,262.51,317.82,262.53,317.66,262.49z"/>
	</g>
	<g class="st54">
		<path class="st53" d="M300.2,200.5l-10.28-3.44c-1.17-0.39-2.44,0.25-2.83,1.41l-1.87,5.6c-0.39,1.17,0.25,2.44,1.41,2.83
			l3.04,1.02l1.24,2.48c0.09,0.18,0.31,0.25,0.48,0.16l2.48-1.24l3.04,1.02c1.17,0.39,2.44-0.25,2.83-1.41l1.87-5.6
			C302,202.17,301.37,200.89,300.2,200.5z"/>
		<path class="st7" d="M292.25,207.24c-0.11-0.04-0.2-0.11-0.25-0.22l-1.47-2.89c-0.01-0.02-0.04-0.06-0.07-0.13
			c-0.03-0.06-0.07-0.17-0.12-0.32c-0.05-0.15-0.1-0.3-0.13-0.46c-0.03-0.16-0.05-0.34-0.05-0.54c0-0.21,0.03-0.4,0.09-0.58
			c0.19-0.58,0.51-0.98,0.95-1.2c0.44-0.22,0.96-0.24,1.53-0.05c0.16,0.05,0.32,0.14,0.47,0.25c0.15,0.11,0.28,0.24,0.39,0.38
			c0.1,0.14,0.19,0.26,0.26,0.37c0.04,0.06,0.07,0.12,0.11,0.18c0.06-0.03,0.13-0.06,0.19-0.08c0.12-0.05,0.27-0.09,0.43-0.14
			c0.17-0.05,0.36-0.07,0.54-0.08c0.19,0,0.37,0.03,0.53,0.08c0.57,0.19,0.97,0.51,1.2,0.95c0.22,0.44,0.24,0.96,0.05,1.53
			c-0.19,0.58-0.67,1.07-1.44,1.46l-2.9,1.44C292.47,207.27,292.36,207.28,292.25,207.24z"/>
	</g>
</g>
<g>
	<g>
		<g>
			<path class="st53" d="M534.77,191.48l18.68,9.96c2.12,1.13,2.93,3.79,1.8,5.91l-5.43,10.18c-1.13,2.12-3.79,2.93-5.91,1.8
				l-5.52-2.94l-5.18,1.58c-0.37,0.11-0.77-0.1-0.88-0.47l-1.58-5.18l-5.52-2.94c-2.12-1.13-2.93-3.79-1.8-5.91l5.43-10.18
				C529.99,191.16,532.65,190.35,534.77,191.48z"/>
			<path class="st7" d="M535.5,211.31l-1.86-6.05c-0.46-1.61-0.41-2.96,0.15-4c0.56-1.04,1.31-1.72,2.24-2
				c0.92-0.28,1.92-0.14,2.96,0.42c0.3,0.16,0.58,0.38,0.83,0.65c0.25,0.26,0.45,0.56,0.62,0.87c0.16,0.3,0.28,0.57,0.38,0.81
				c0.05,0.13,0.1,0.25,0.14,0.38c0.13-0.03,0.26-0.06,0.4-0.09c0.26-0.05,0.55-0.09,0.88-0.13c0.35-0.04,0.71-0.02,1.07,0.03
				c0.37,0.06,0.7,0.17,1,0.33c1.04,0.56,1.71,1.31,1.98,2.23c0.28,0.92,0.13,1.92-0.43,2.97c-0.17,0.33-0.41,0.63-0.7,0.92
				c-0.28,0.27-0.56,0.49-0.83,0.66c-0.26,0.16-0.53,0.3-0.82,0.43c-0.29,0.13-0.49,0.21-0.62,0.25c-0.14,0.05-0.24,0.07-0.28,0.08
				l-6.07,1.8c-0.22,0.07-0.44,0.05-0.64-0.06C535.7,211.7,535.56,211.53,535.5,211.31z"/>
		</g>
		<g>
			<path class="st53" d="M570.18,134.02l13.77,7.34c1.56,0.83,2.16,2.79,1.33,4.36l-4,7.51c-0.83,1.56-2.79,2.16-4.36,1.33
				l-4.07-2.17l-3.82,1.16c-0.27,0.08-0.57-0.07-0.65-0.35l-1.16-3.82l-4.07-2.17c-1.56-0.83-2.16-2.79-1.33-4.36l4-7.51
				C566.65,133.78,568.61,133.18,570.18,134.02z"/>
			<path class="st7" d="M570.71,148.64l-1.37-4.46c-0.34-1.19-0.3-2.18,0.11-2.95c0.41-0.77,0.97-1.26,1.65-1.47
				c0.68-0.21,1.42-0.1,2.18,0.31c0.22,0.12,0.42,0.28,0.61,0.48c0.18,0.19,0.33,0.41,0.46,0.64c0.12,0.22,0.21,0.42,0.28,0.59
				c0.04,0.09,0.07,0.19,0.11,0.28c0.1-0.02,0.19-0.05,0.29-0.07c0.19-0.04,0.4-0.07,0.65-0.09c0.26-0.03,0.52-0.02,0.79,0.03
				c0.27,0.04,0.52,0.13,0.74,0.24c0.77,0.41,1.26,0.96,1.46,1.65c0.2,0.68,0.1,1.42-0.31,2.19c-0.13,0.24-0.3,0.47-0.52,0.67
				c-0.21,0.2-0.41,0.36-0.61,0.48c-0.19,0.12-0.39,0.22-0.6,0.32c-0.21,0.09-0.36,0.16-0.45,0.19c-0.1,0.03-0.18,0.05-0.2,0.06
				l-4.48,1.32c-0.16,0.05-0.32,0.04-0.47-0.04C570.86,148.92,570.76,148.79,570.71,148.64z"/>
		</g>
		<g>
			<path class="st53" d="M521.87,152.09l25.32-0.48c2.87-0.05,5.27,2.25,5.33,5.13l0.26,13.8c0.05,2.87-2.25,5.27-5.13,5.33
				l-7.48,0.14l-4.49,4.67c-0.32,0.33-0.86,0.34-1.19,0.02l-4.67-4.49l-7.48,0.14c-2.87,0.05-5.27-2.25-5.33-5.13l-0.26-13.8
				C516.68,154.54,518.99,152.14,521.87,152.09z"/>
			<path class="st7" d="M534.19,172.38l-5.47-5.24c-1.42-1.41-2.15-2.85-2.18-4.27c-0.02-1.42,0.37-2.56,1.17-3.39
				c0.8-0.83,1.92-1.26,3.33-1.29c0.4-0.01,0.82,0.06,1.24,0.19c0.41,0.13,0.8,0.32,1.15,0.55c0.34,0.22,0.63,0.43,0.87,0.62
				c0.13,0.1,0.25,0.21,0.37,0.31c0.12-0.11,0.24-0.22,0.36-0.33c0.24-0.2,0.52-0.42,0.85-0.65c0.35-0.24,0.73-0.44,1.13-0.59
				c0.42-0.15,0.83-0.23,1.24-0.23c1.41-0.02,2.54,0.37,3.37,1.18c0.83,0.8,1.26,1.93,1.28,3.35c0.01,0.44-0.06,0.9-0.2,1.37
				c-0.14,0.45-0.3,0.84-0.48,1.17c-0.18,0.31-0.38,0.63-0.61,0.92c-0.23,0.3-0.39,0.51-0.5,0.62c-0.12,0.13-0.21,0.22-0.24,0.24
				l-5.3,5.42c-0.19,0.2-0.43,0.3-0.7,0.31C534.62,172.67,534.38,172.57,534.19,172.38z"/>
		</g>
		<g class="st54">
			<path class="st53" d="M575.46,171.28l15.64,10.51c1.78,1.19,2.25,3.62,1.06,5.4l-5.73,8.52c-1.19,1.78-3.62,2.25-5.4,1.06
				l-4.62-3.11l-4.73,0.93c-0.34,0.07-0.67-0.16-0.74-0.5l-0.93-4.73l-4.62-3.11c-1.78-1.19-2.25-3.62-1.06-5.4l5.73-8.52
				C571.26,170.57,573.69,170.09,575.46,171.28z"/>
			<path class="st7" d="M574.31,188.91l-1.1-5.53c-0.26-1.47-0.1-2.65,0.5-3.53c0.59-0.87,1.32-1.4,2.16-1.56
				c0.84-0.16,1.71,0.05,2.58,0.64c0.25,0.17,0.48,0.39,0.67,0.65c0.19,0.26,0.35,0.53,0.47,0.83c0.11,0.28,0.2,0.53,0.27,0.75
				c0.03,0.12,0.07,0.23,0.09,0.35c0.12-0.02,0.24-0.03,0.36-0.04c0.23-0.02,0.49-0.03,0.79-0.03c0.32,0,0.63,0.04,0.94,0.13
				c0.32,0.09,0.6,0.22,0.85,0.38c0.87,0.59,1.39,1.31,1.55,2.16c0.16,0.84-0.06,1.72-0.65,2.59c-0.18,0.27-0.42,0.52-0.71,0.75
				c-0.28,0.22-0.54,0.39-0.79,0.51c-0.24,0.12-0.5,0.22-0.76,0.3c-0.27,0.09-0.46,0.14-0.57,0.17c-0.13,0.03-0.22,0.04-0.25,0.04
				l-5.54,1.04c-0.2,0.04-0.39,0-0.56-0.11C574.45,189.27,574.35,189.11,574.31,188.91z"/>
		</g>
		<g class="st54">
			<path class="st53" d="M530.74,130.8l12.66-3.29c1.44-0.37,2.92,0.5,3.29,1.93l1.79,6.9c0.37,1.44-0.5,2.92-1.93,3.29l-3.74,0.97
				l-1.69,2.88c-0.12,0.21-0.39,0.28-0.6,0.16l-2.88-1.69l-3.74,0.97c-1.44,0.37-2.92-0.5-3.29-1.93l-1.79-6.9
				C528.44,132.65,529.31,131.17,530.74,130.8z"/>
			<path class="st7" d="M539.38,139.51l-3.38-1.97c-0.88-0.54-1.42-1.17-1.61-1.88c-0.18-0.71-0.12-1.33,0.18-1.84
				c0.3-0.51,0.81-0.87,1.52-1.05c0.2-0.05,0.42-0.07,0.65-0.05c0.22,0.02,0.44,0.06,0.64,0.14c0.2,0.07,0.37,0.14,0.51,0.21
				c0.08,0.04,0.15,0.07,0.23,0.11c0.05-0.07,0.09-0.14,0.14-0.21c0.09-0.13,0.21-0.27,0.35-0.43c0.15-0.16,0.31-0.31,0.5-0.43
				c0.19-0.13,0.39-0.21,0.59-0.27c0.7-0.18,1.32-0.12,1.84,0.19c0.51,0.3,0.87,0.82,1.05,1.53c0.06,0.22,0.08,0.46,0.06,0.71
				c-0.01,0.24-0.05,0.46-0.1,0.65c-0.05,0.18-0.12,0.36-0.19,0.54c-0.08,0.18-0.14,0.3-0.18,0.37c-0.04,0.08-0.08,0.13-0.09,0.15
				l-2.01,3.36c-0.07,0.12-0.18,0.2-0.31,0.24C539.63,139.6,539.49,139.58,539.38,139.51z"/>
		</g>
	</g>
	<g>
		<g>
			<path class="st53" d="M569.63,98.94l-21.08,1.97c-2.39,0.22-4.17,2.36-3.94,4.76l1.07,11.49c0.22,2.39,2.36,4.17,4.76,3.94
				l6.23-0.58l4.17,3.46c0.3,0.25,0.75,0.21,0.99-0.09l3.46-4.17l6.23-0.58c2.39-0.22,4.17-2.36,3.94-4.76l-1.07-11.49
				C574.16,100.49,572.02,98.71,569.63,98.94z"/>
			<path class="st7" d="M560.73,117.25c-0.23,0.02-0.44-0.04-0.61-0.19l-4.91-4c-0.03-0.02-0.12-0.09-0.23-0.18
				c-0.1-0.08-0.26-0.24-0.47-0.47c-0.22-0.23-0.41-0.47-0.59-0.71c-0.18-0.25-0.35-0.57-0.51-0.93c-0.16-0.37-0.26-0.75-0.3-1.12
				c-0.11-1.18,0.14-2.16,0.75-2.9c0.61-0.75,1.52-1.18,2.69-1.29c0.34-0.03,0.69-0.01,1.05,0.08c0.35,0.08,0.69,0.21,1,0.38
				c0.29,0.16,0.55,0.31,0.77,0.46c0.11,0.08,0.22,0.15,0.33,0.24c0.09-0.1,0.18-0.2,0.28-0.3c0.18-0.18,0.4-0.38,0.66-0.6
				c0.27-0.22,0.58-0.41,0.91-0.56c0.34-0.15,0.68-0.25,1.01-0.28c1.17-0.11,2.14,0.14,2.89,0.76c0.74,0.61,1.18,1.53,1.29,2.71
				c0.11,1.18-0.36,2.45-1.41,3.75l-4.06,4.86C561.15,117.12,560.96,117.22,560.73,117.25z"/>
		</g>
		<g>
			<path class="st53" d="M559.17,32.25l-15.54,1.45c-1.76,0.16-3.07,1.74-2.91,3.51l0.79,8.47c0.16,1.76,1.74,3.07,3.51,2.91
				l4.59-0.43l3.07,2.55c0.22,0.18,0.55,0.15,0.73-0.07l2.55-3.07l4.59-0.43c1.76-0.16,3.07-1.74,2.91-3.51l-0.79-8.47
				C562.51,33.4,560.93,32.09,559.17,32.25z"/>
			<path class="st7" d="M552.61,45.75c-0.17,0.02-0.32-0.03-0.45-0.14l-3.62-2.95c-0.02-0.01-0.09-0.06-0.17-0.13
				c-0.07-0.06-0.19-0.18-0.35-0.35c-0.16-0.17-0.31-0.34-0.44-0.52c-0.13-0.19-0.26-0.42-0.38-0.68c-0.12-0.27-0.19-0.55-0.22-0.82
				c-0.08-0.87,0.1-1.59,0.56-2.14c0.45-0.55,1.12-0.87,1.98-0.95c0.25-0.02,0.51,0,0.77,0.06c0.26,0.06,0.51,0.16,0.74,0.28
				c0.22,0.12,0.41,0.23,0.56,0.34c0.08,0.06,0.16,0.11,0.24,0.17c0.07-0.07,0.14-0.15,0.21-0.22c0.14-0.14,0.3-0.28,0.49-0.44
				c0.2-0.17,0.43-0.31,0.67-0.42c0.25-0.11,0.5-0.18,0.75-0.2c0.86-0.08,1.58,0.1,2.13,0.56c0.55,0.45,0.87,1.12,0.95,1.99
				c0.08,0.87-0.27,1.8-1.04,2.77l-2.99,3.58C552.92,45.66,552.78,45.74,552.61,45.75z"/>
		</g>
		<g>
			<path class="st53" d="M596.75,67.58l-23.17-10.23c-2.63-1.16-5.73,0.04-6.89,2.67l-5.57,12.63c-1.16,2.63,0.04,5.73,2.67,6.89
				l6.85,3.02l2.34,6.04c0.17,0.43,0.66,0.65,1.09,0.48l6.04-2.34l6.85,3.02c2.63,1.16,5.73-0.04,6.89-2.67l5.57-12.63
				C600.58,71.85,599.38,68.75,596.75,67.58z"/>
			<path class="st7" d="M576.78,81.53c-0.25-0.11-0.43-0.3-0.53-0.56l-2.79-7.04c-0.02-0.04-0.07-0.16-0.13-0.32
				c-0.05-0.15-0.13-0.4-0.22-0.77c-0.09-0.36-0.16-0.73-0.2-1.09c-0.04-0.37-0.04-0.8,0.01-1.27c0.05-0.48,0.16-0.93,0.34-1.34
				c0.57-1.3,1.4-2.17,2.48-2.59c1.08-0.42,2.28-0.35,3.57,0.22c0.37,0.16,0.72,0.39,1.05,0.69c0.32,0.29,0.59,0.62,0.82,0.98
				c0.21,0.34,0.39,0.65,0.53,0.93c0.07,0.14,0.14,0.29,0.21,0.44c0.15-0.05,0.31-0.1,0.47-0.15c0.3-0.08,0.65-0.16,1.04-0.24
				c0.42-0.08,0.85-0.1,1.27-0.06c0.44,0.04,0.85,0.14,1.22,0.3c1.29,0.57,2.16,1.4,2.58,2.48c0.42,1.08,0.34,2.28-0.23,3.58
				c-0.57,1.3-1.8,2.35-3.66,3.1l-7.07,2.72C577.3,81.64,577.03,81.64,576.78,81.53z"/>
		</g>
		<g class="st54">
			<path class="st53" d="M539.9,64.59l-18.48,3.65c-2.1,0.41-3.48,2.47-3.06,4.57l1.99,10.07c0.41,2.1,2.47,3.48,4.57,3.06
				l5.46-1.08l4,2.68c0.29,0.19,0.68,0.11,0.87-0.17l2.68-4l5.46-1.08c2.1-0.41,3.48-2.47,3.06-4.57l-1.99-10.07
				C544.05,65.55,542,64.17,539.9,64.59z"/>
			<path class="st7" d="M533.68,81.61c-0.2,0.04-0.39,0-0.56-0.11l-4.71-3.1c-0.03-0.01-0.11-0.06-0.22-0.14
				c-0.09-0.07-0.25-0.19-0.46-0.37c-0.21-0.18-0.41-0.38-0.59-0.58c-0.19-0.21-0.37-0.47-0.54-0.77c-0.18-0.32-0.3-0.64-0.36-0.96
				c-0.21-1.03-0.07-1.92,0.4-2.64c0.48-0.72,1.24-1.18,2.27-1.39c0.29-0.06,0.61-0.07,0.94-0.02c0.32,0.04,0.63,0.13,0.92,0.25
				c0.28,0.12,0.52,0.23,0.72,0.34c0.11,0.06,0.21,0.12,0.31,0.18c0.07-0.1,0.15-0.19,0.22-0.29c0.15-0.18,0.32-0.37,0.53-0.59
				c0.22-0.22,0.47-0.42,0.75-0.58c0.29-0.17,0.58-0.28,0.87-0.34c1.03-0.21,1.91-0.07,2.63,0.41c0.71,0.48,1.18,1.24,1.39,2.28
				c0.21,1.04-0.1,2.2-0.91,3.45l-3.15,4.67C534.04,81.46,533.88,81.57,533.68,81.61z"/>
		</g>
		<g class="st54">
			<path class="st53" d="M596.78,44.52l-10.4-7.92c-1.18-0.9-2.88-0.67-3.78,0.51l-4.32,5.67c-0.9,1.18-0.67,2.88,0.51,3.78
				l3.08,2.34l0.45,3.31c0.03,0.24,0.25,0.41,0.49,0.37l3.31-0.45l3.08,2.34c1.18,0.9,2.88,0.67,3.78-0.51l4.32-5.67
				C598.19,47.12,597.96,45.42,596.78,44.52z"/>
			<path class="st7" d="M585.08,49.12c-0.11-0.08-0.18-0.2-0.2-0.34l-0.56-3.87c-0.01-0.02-0.02-0.09-0.03-0.18
				c-0.01-0.08-0.02-0.22-0.02-0.41c0-0.19,0.01-0.39,0.03-0.57c0.02-0.19,0.08-0.41,0.16-0.64c0.08-0.24,0.19-0.45,0.33-0.63
				c0.44-0.58,0.97-0.92,1.56-1c0.59-0.08,1.18,0.1,1.77,0.54c0.17,0.13,0.32,0.29,0.44,0.47c0.12,0.18,0.22,0.38,0.29,0.59
				c0.07,0.2,0.12,0.37,0.16,0.53c0.02,0.08,0.04,0.16,0.05,0.25c0.08-0.01,0.17-0.01,0.25-0.02c0.16-0.01,0.34,0,0.55,0.01
				c0.22,0.01,0.44,0.05,0.65,0.12c0.22,0.07,0.41,0.17,0.58,0.3c0.58,0.44,0.92,0.96,1,1.55c0.08,0.59-0.1,1.19-0.54,1.77
				c-0.44,0.59-1.19,0.96-2.21,1.12l-3.88,0.51C585.32,49.24,585.19,49.2,585.08,49.12z"/>
		</g>
	</g>
</g>
</svg>
