<?xml version="1.0" encoding="utf-8"?>
<!-- Generator: Adobe Illustrator 28.0.0, SVG Export Plug-In . SVG Version: 6.00 Build 0)  -->
<svg version="1.1" id="Layer_1" xmlns="http://www.w3.org/2000/svg" xmlns:xlink="http://www.w3.org/1999/xlink" x="0px" y="0px"
	 viewBox="0 0 797 478" style="enable-background:new 0 0 797 478;" xml:space="preserve">
<style type="text/css">
	.st0{display:none;}
	.st1{display:inline;}
	.st2{fill:#1E0D9B;}
	.st3{fill:#91CBE8;}
	.st4{fill:#FFFFFF;}
	.st5{fill:#EEE4D9;}
	.st6{fill:#444244;}
	.st7{fill:#BEC0C2;}
	.st8{opacity:0.7;}
	.st9{opacity:0.8;}
	.st10{fill:#D6723A;}
	.st11{fill:#58857A;}
	.st12{fill:#76A699;}
	.st13{fill:#514342;}
	.st14{fill:#9EBFD8;}
	.st15{opacity:0.8;fill:#9EBFD8;}
	.st16{opacity:0.8;fill:#514342;}
	.st17{opacity:0.8;fill:#D6723A;}
	.st18{display:inline;fill:#E0DFEA;}
	.st19{fill:#FFA887;}
	.st20{fill:#FCA685;}
	.st21{fill:#3B314A;}
	.st22{fill:#617690;}
	.st23{fill:#FFFFF8;}
	.st24{fill:#EFE5DA;}
	.st25{fill:#30323E;}
	.st26{fill:#353B4A;}
	.st27{fill:#383B4F;}
	.st28{fill:#424459;}
	.st29{fill:#EF7957;}
	.st30{fill:#F39F84;}
	.st31{fill:#463C3A;}
</style>
<g id="XMLID_1096_" class="st0">
	<g id="XMLID_507_" class="st1">
		<g id="XMLID_505_">
			<path class="st2" d="M408.8,443.1c-3,0-5.8-0.1-8.6-0.2c-19.2-1-33.4-5.6-44.7-14.5c-22.1-17.2-31.5-49.4-45.7-98.1
				c-3.3-11.3-6.7-23-10.6-35.8c-15.6-50.7-15.6-87.5,0-123.1c17.8-40.7,57.7-81.4,125.3-128.1l0.6,0.9l-0.6-0.9
				c93.6-64.6,154-23.5,202.5,9.5c8.5,5.8,16.4,11.2,24.2,15.8c12.9,7.7,26.7,14.4,40,20.9c41.1,20,80,38.9,86.8,82.8
				c4.5,29-1,48.9-8.5,76.5c-7.7,28-17.2,62.9-21.5,123.1c-4.6,64.6-56,61.8-127.2,57.9c-43.2-2.4-92.3-5.1-144.9,5.2
				C448.1,440.5,426.4,443.1,408.8,443.1z M519.3,11.5c-27.1,0-57.8,9.1-93.4,33.6C358.5,91.6,318.9,132,301.3,172.2
				c-15.4,35.1-15.4,71.4,0.1,121.6c3.9,12.8,7.4,24.5,10.7,35.8c14.1,48.3,23.4,80.2,44.9,97c21.4,16.7,55.8,18.5,118.8,6.2
				c52.9-10.3,102.1-7.6,145.5-5.2c35.4,1.9,66,3.6,87.8-3.1c23.5-7.2,35-23.5,37-52.7c4.3-60.4,13.8-95.4,21.5-123.6
				c7.5-27.3,12.8-47,8.4-75.6c-6.6-42.7-45-61.4-85.5-81.2c-13.4-6.5-27.2-13.2-40.2-21c-7.8-4.7-15.9-10.1-24.3-15.9
				C596.4,34.6,562.5,11.5,519.3,11.5z"/>
		</g>
		<path id="XMLID_504_" class="st3" d="M436.4,55.1C297.1,151.1,284,215.9,311.4,305C349.7,429.4,345,472.4,487,444.8
			c142.1-27.7,264,39,271.2-62.1c8.6-120.9,38.8-141.9,29.9-199.4c-8.9-57.4-73.5-71.6-126.3-102.9S545.6-20.3,436.4,55.1z"/>
	</g>
	<g id="XMLID_1088_" class="st1">
		<g id="XMLID_709_">
			<g id="XMLID_712_">
				<path class="st4" d="M751.1,238c4.2,0.2,7.6-3.4,7.2-7.5c-3.7-44.4-4.8-72.4,0.7-118.3c-72.4,4.6-114.8,6-188.8,0
					c3.2,44.3,4.1,73.1,0.6,118.3C569.7,245.8,583.8,230.7,751.1,238z"/>
				<path class="st5" d="M751.4,238.8c-0.1,0-0.2,0-0.3,0c-81.7-3.6-127.2-1.8-151.6-0.8c-18.5,0.7-25.4,1-28.1-1.8
					c-1.4-1.4-1.4-3.6-1.3-5.7c3.5-45.2,2.6-74.1-0.6-118.2l-0.1-0.9l0.9,0.1c75.1,6.1,117.1,4.6,188.7,0l0.9-0.1l-0.1,0.9
					c-5.3,44.6-4.5,72.5-0.7,118.2c0.2,2.2-0.6,4.4-2.1,6C755.5,237.9,753.5,238.8,751.4,238.8z M661.4,235.2
					c23.5,0,52.9,0.5,89.7,2.1c1.8,0.1,3.5-0.6,4.8-1.9c1.2-1.3,1.9-3.1,1.7-4.8c-3.8-45.5-4.6-73.3,0.6-117.6
					c-70.9,4.5-112.8,6-187.2,0c3.1,43.7,4,72.6,0.6,117.6c-0.2,2.4,0.1,3.7,0.9,4.6c2.2,2.3,9.5,2,27,1.3
					C612.9,235.9,632.7,235.2,661.4,235.2z"/>
			</g>
			<g id="XMLID_711_">
				<path class="st6" d="M751.8,105.1c3.8-0.2,7.3,2.8,7.3,7.1c-73.5,4.5-114.4,6.2-188.8,0C570.2,97.7,575.9,112.9,751.8,105.1z"/>
				<path class="st6" d="M658.4,117c-26.3,0-53.6-1.2-88.2-4l-0.7-0.1v-0.7c0-2.3,0.1-4.2,1.4-5.5c2.3-2.2,7.6-2,23.2-1.3
					c23.9,1,68.5,3,157.7-1c2.1-0.1,4.1,0.7,5.7,2.1c1.5,1.5,2.4,3.5,2.4,5.7v0.7l-0.7,0C719.9,115.3,689.9,117,658.4,117z
					 M571,111.5c75.3,6.2,116.2,4.3,187.3,0c-0.2-1.5-0.8-2.9-1.9-3.9c-1.2-1.2-2.9-1.8-4.6-1.7c-89.2,3.9-133.8,2-157.8,1
					c-14.3-0.6-20.2-0.9-22.1,0.9C571.2,108.4,571,109.6,571,111.5z"/>
			</g>
			<g id="XMLID_1139_">
				<path id="XMLID_1143_" class="st7" d="M748.7,111.4c2.6-0.2,3.6,0,3.5-1c-0.1-1.8,0-2.9-0.9-2.8c-2.6,0.2-3.6,0-3.5,1
					C747.9,110.4,747.7,111.5,748.7,111.4z"/>
				<g id="XMLID_1140_">
					<g id="XMLID_1142_">
						<path class="st4" d="M748.8,111c-0.1,0-0.2,0-0.3-0.1c-0.1-0.1-0.1-0.4,0-0.5l2.4-2.3c0.1-0.1,0.4-0.1,0.5,0
							c0.1,0.1,0.1,0.4,0,0.5l-2.4,2.3C749,111,748.9,111,748.8,111z"/>
					</g>
					<g id="XMLID_1141_">
						<path class="st4" d="M751.3,110.8c-0.1,0-0.2,0-0.2-0.1l-2.7-1.9c-0.2-0.1-0.2-0.3-0.1-0.5c0.1-0.2,0.4-0.2,0.5-0.1l2.7,1.9
							c0.2,0.1,0.2,0.3,0.1,0.5C751.5,110.8,751.4,110.8,751.3,110.8z"/>
					</g>
				</g>
			</g>
		</g>
		<g id="XMLID_1085_" class="st8">
			<g id="XMLID_780_" class="st9">
				<path id="XMLID_814_" class="st10" d="M619.5,134.4c-30.3,0-31.4,0.9-31.4-2.3c0-2.4-0.5-5.3,2.3-5.3c30.3,0,31.4-0.9,31.4,2.3
					C621.8,131.4,622.2,134.4,619.5,134.4z"/>
				<path id="XMLID_778_" class="st10" d="M694,134.4c-61.1,0-60.9,1.2-60.9-3.2c0-2.2,0.3-4.5,3.2-4.5H694
					C698.3,126.8,698.4,134.4,694,134.4z"/>
				<path id="XMLID_779_" class="st10" d="M738.9,134.4c-30.3,0-31.4,0.9-31.4-2.3c0-2.4-0.5-5.3,2.3-5.3c30.3,0,31.4-0.9,31.4,2.3
					C741.1,131.4,741.6,134.4,738.9,134.4z"/>
			</g>
			<g id="XMLID_781_" class="st9">
				<path id="XMLID_784_" class="st10" d="M694,145.2h-57.8c-4.2,0-4.4-7.6,0-7.6H694C698.3,137.6,698.4,145.2,694,145.2z"/>
			</g>
			<g id="XMLID_787_" class="st9">
				<path id="XMLID_795_" class="st10" d="M619.5,156c-30.3,0-31.4,0.9-31.4-2.3c0-2.4-0.5-5.3,2.3-5.3c30.3,0,31.4-0.9,31.4,2.3
					v3.1C621.8,155,620.7,156,619.5,156z"/>
				<path id="XMLID_794_" class="st10" d="M694,156h-57.8c-4.2,0-4.4-7.6,0-7.6c61.1,0,60.9-1.2,60.9,3.2
					C697.2,153.7,696.8,156,694,156z"/>
				<path id="XMLID_788_" class="st10" d="M738.9,156c-30.3,0-31.4,0.9-31.4-2.3c0-2.4-0.5-5.3,2.3-5.3c30.3,0,31.4-0.9,31.4,2.3
					C741.1,153,741.6,156,738.9,156z"/>
			</g>
			<g id="XMLID_809_" class="st9">
				<path id="XMLID_812_" class="st10" d="M619.5,166.8c-30.3,0-31.4,0.9-31.4-2.3c0-2.4-0.5-5.3,2.3-5.3h29.1c1.3,0,2.3,1,2.3,2.3
					v3.1C621.8,165.8,620.7,166.8,619.5,166.8z"/>
				<path id="XMLID_810_" class="st10" d="M738.9,166.8c-30.3,0-31.4,0.9-31.4-2.3c0-2.4-0.5-5.3,2.3-5.3c30.3,0,31.4-0.9,31.4,2.3
					C741.1,163.8,741.6,166.8,738.9,166.8z"/>
			</g>
			<g id="XMLID_813_" class="st9">
				<path id="XMLID_817_" class="st10" d="M620,177.6h-30.2c-1,0-1.8-0.8-1.8-1.8v-4.1c0-1,0.8-1.8,1.8-1.8H620c1,0,1.8,0.8,1.8,1.8
					v4.1C621.8,176.8,621,177.6,620,177.6z"/>
				<path id="XMLID_816_" class="st10" d="M694,177.6h-57.8c-4.2,0-4.4-7.6,0-7.6H694c3.9,0,3.2,5.2,3.2,4.5
					C697.2,176.2,695.8,177.6,694,177.6z"/>
				<path id="XMLID_815_" class="st10" d="M738.9,177.6c-30.3,0-31.4,0.9-31.4-2.3c0-2.4-0.5-5.3,2.3-5.3c30.3,0,31.4-0.9,31.4,2.3
					C741.1,174.6,741.6,177.6,738.9,177.6z"/>
			</g>
			<g id="XMLID_818_" class="st9">
				<path id="XMLID_1063_" class="st10" d="M619.5,188.4h-29.1c-1.3,0-2.3-1-2.3-2.3V183c0-1.3,1-2.3,2.3-2.3
					c30.3,0,31.4-0.9,31.4,2.3v3.1C621.8,187.4,620.7,188.4,619.5,188.4z"/>
				<path id="XMLID_850_" class="st10" d="M694,188.4h-57.8c-4.2,0-4.4-7.6,0-7.6H694c3.9,0,3.2,5.2,3.2,4.5
					C697.2,187,695.8,188.4,694,188.4z"/>
			</g>
			<g id="XMLID_1067_" class="st9">
				<path id="XMLID_1070_" class="st10" d="M620,199.2h-30.2c-1,0-1.8-0.8-1.8-1.8v-4.1c0-1,0.8-1.8,1.8-1.8H620
					c1,0,1.8,0.8,1.8,1.8v4.1C621.8,198.4,621,199.2,620,199.2z"/>
				<path id="XMLID_1068_" class="st10" d="M739.4,199.2h-30.2c-1,0-1.8-0.8-1.8-1.8v-4.1c0-1,0.8-1.8,1.8-1.8h30.2
					c1,0,1.8,0.8,1.8,1.8v4.1C741.1,198.4,740.4,199.2,739.4,199.2z"/>
			</g>
			<g id="XMLID_1071_" class="st9">
				<path id="XMLID_1075_" class="st10" d="M620,210h-30.2c-1,0-1.8-0.8-1.8-1.8v-4.1c0-1,0.8-1.8,1.8-1.8H620c1,0,1.8,0.8,1.8,1.8
					v4.1C621.8,209.2,621,210,620,210z"/>
				<path id="XMLID_1074_" class="st10" d="M694,210h-57.8c-4.2,0-4.4-7.6,0-7.6H694c3.9,0,3.2,5.2,3.2,4.5
					C697.2,208.6,695.8,210,694,210z"/>
			</g>
			<g id="XMLID_1076_" class="st9">
				<path id="XMLID_1083_" class="st10" d="M620,220.8h-30.2c-1,0-1.8-0.8-1.8-1.8v-4.1c0-1,0.8-1.8,1.8-1.8H620
					c1,0,1.8,0.8,1.8,1.8v4.1C621.8,220,621,220.8,620,220.8z"/>
				<path id="XMLID_1081_" class="st10" d="M694,220.8h-57.8c-4.2,0-4.4-7.6,0-7.6c61.1,0,60.9-1.2,60.9,3.2v1.3
					C697.2,219.4,695.8,220.8,694,220.8z"/>
				<path id="XMLID_1079_" class="st10" d="M739.4,220.8h-30.2c-1,0-1.8-0.8-1.8-1.8v-4.1c0-1,0.8-1.8,1.8-1.8h30.2
					c1,0,1.8,0.8,1.8,1.8v4.1C741.1,220,740.4,220.8,739.4,220.8z"/>
			</g>
		</g>
	</g>
	<g id="XMLID_1094_" class="st1">
		<g id="XMLID_1100_">
			<path id="XMLID_1114_" class="st11" d="M698.2,264c20.6-16,38.1-69.7,36.2-101.1c-2-31.5-33.6,13.2-37.8,54.6
				C692.4,258.8,698.2,264,698.2,264z"/>
			<path id="XMLID_1113_" class="st12" d="M684.5,326.3c2.2-12.4,15.3-44.4,38.3-50c27.4-6.6,12.4,16.8-3,30.4
				C704.4,320.4,684.5,326.3,684.5,326.3z"/>
			<path id="XMLID_1112_" class="st12" d="M702.4,267.5c19.8-4.5,49.6-21.5,60.1-45.3c10.5-23.8-21.7-18.3-41.2,6.2
				C701.9,252.8,702.4,267.5,702.4,267.5z"/>
			<path id="XMLID_1111_" class="st11" d="M681.5,303.9c3.3-7.6,17.6-35.1,5.3-62.6c-9.5-21-19.7,0-15.2,21.8
				C676,284.9,681.5,303.9,681.5,303.9z"/>
			<g id="XMLID_1109_">
				<path id="XMLID_1110_" class="st12" d="M673.8,335.2c0,0,17.2-53,5.2-85c-0.3-0.7,0.8-1.1,1.1-0.4c10.5,28.1-0.7,69.8-4.4,81.8
					c15.3-24.8,43.4-156.8,40.7-142.9C701.6,264.6,679.4,338.7,673.8,335.2z"/>
			</g>
			<g id="XMLID_1107_">
				<path id="XMLID_1108_" class="st11" d="M676.4,337.6c-1.7-1.1,26.8-38.1,39.8-45.4c0.7-0.4,1.2,0.6,0.6,1
					C703.1,301,676.4,337.6,676.4,337.6z"/>
			</g>
			<g id="XMLID_1105_">
				<path id="XMLID_1106_" class="st11" d="M694,280.6c-2.2-1.1,29.6-45.2,55.7-58.5c0.7-0.3,1.2,0.7,0.5,1
					c-22.2,11.3-49.2,45.7-55.4,57.2C694.6,280.7,694.3,280.8,694,280.6z"/>
			</g>
		</g>
		<g id="XMLID_1098_">
			<path id="XMLID_1099_" class="st11" d="M706.2,255.4c3.4-3.3,12.6-21.3,14.1-26c0.1-0.3,0.4-0.5,0.7-0.4
				c1.7,0.6-10.4,23.8-14,27.3C706.5,256.8,705.7,256,706.2,255.4z"/>
		</g>
	</g>
	<g id="XMLID_1101_" class="st1">
		<g id="XMLID_1104_">
			<path id="XMLID_1125_" class="st11" d="M408.9,197.7c-20.6-16-38.1-69.7-36.2-101.1c2-31.5,33.6,13.2,37.8,54.6
				C414.7,192.5,408.9,197.7,408.9,197.7z"/>
			<path id="XMLID_1124_" class="st12" d="M422.7,259.9c-2.2-12.4-15.3-44.4-38.3-50c-27.4-6.6-12.4,16.8,3,30.4
				C402.8,254.1,422.7,259.9,422.7,259.9z"/>
			<path id="XMLID_1123_" class="st12" d="M404.7,201.2c-19.8-4.5-49.6-21.5-60.1-45.3c-10.5-23.8,21.7-18.3,41.2,6.2
				C405.3,186.5,404.7,201.2,404.7,201.2z"/>
			<path id="XMLID_1122_" class="st11" d="M425.6,237.5c-3.3-7.6-17.6-35.1-5.3-62.6c9.5-21,19.7,0,15.2,21.8
				C431.2,218.6,425.6,237.5,425.6,237.5z"/>
			<g id="XMLID_1119_">
				<path id="XMLID_1120_" class="st12" d="M433.3,268.9c0,0-17.2-53-5.2-85c0.3-0.7-0.8-1.1-1.1-0.4c-10.5,28.1,0.7,69.8,4.4,81.8
					c-15.3-24.8-43.4-156.8-40.7-142.9c7.9,40.3,29.4,133.1,41.9,146.4C432.8,269,433.1,269,433.3,268.9z"/>
			</g>
			<g id="XMLID_1117_">
				<path id="XMLID_1118_" class="st11" d="M430.7,271.3c1.7-1.1-26.8-38.1-39.8-45.4c-0.7-0.4-1.2,0.6-0.6,1
					c10,5.7,31.1,30.8,39.5,44.2C430.1,271.4,430.5,271.5,430.7,271.3z"/>
			</g>
			<g id="XMLID_1115_">
				<path id="XMLID_1116_" class="st11" d="M413.4,213.5c-14.5-27.2-54.8-61.2-56.7-57.5c-0.1,0.3,0,0.6,0.3,0.8
					c22.2,11.3,49.2,45.7,55.4,57.2C412.7,214.7,413.7,214.2,413.4,213.5z"/>
			</g>
		</g>
		<g id="XMLID_1102_">
			<path id="XMLID_1103_" class="st11" d="M400.9,189.1c-3.4-3.3-12.6-21.3-14.1-26c-0.2-0.7-1.3-0.4-1.1,0.4
				c1.6,5,10.8,23.1,14.4,26.5C400.7,190.5,401.5,189.6,400.9,189.1z"/>
		</g>
	</g>
	<g id="XMLID_866_" class="st1">
		<g id="XMLID_385_">
			<g id="XMLID_314_">
				<path class="st4" d="M587,197.5c-72.3,19-116.1,18.8-186,0c-6.6-1.8-4.8,3-4.8-134.1c71.6,20.5,118,22.1,195.6,0v127.9
					C591.8,194.2,589.8,196.7,587,197.5z"/>
				<path class="st5" d="M493.3,212.4c-28.7,0-57.3-4.7-92.5-14.2c-0.2-0.1-0.4-0.1-0.6-0.1c-5.1-1.3-5.1-1.3-4.9-63.6
					c0.1-18.3,0.2-41.1,0.2-71v-1l0.9,0.3c74.7,21.4,120.3,21.4,195.2,0l0.9-0.3v128.8c0,3.3-2.2,6.1-5.3,6.9
					C551,207.7,522.1,212.4,493.3,212.4z M396.9,64.4c0,29.5-0.1,52-0.2,70.1c-0.2,60.6-0.2,61.2,3.8,62.2c0.2,0,0.4,0.1,0.6,0.2
					c70.3,18.9,113.7,18.9,185.6,0c2.5-0.7,4.3-2.9,4.3-5.5V64.4c-39.1,11.1-69.7,15.9-99.3,15.7C463.4,79.9,435,75.2,396.9,64.4z"
					/>
			</g>
			<g id="XMLID_319_">
				<path class="st6" d="M583.8,56.9c-69.5,16.9-113.2,18.3-179.5,0.3c-4.1-1.1-8.1,2-8.1,6.2c75.9,21.5,119.1,21.1,195.6,0
					C591.8,58.7,587.6,56,583.8,56.9z"/>
				<path class="st6" d="M493.4,80c-30,0-59.8-5.3-97.4-15.9l-0.5-0.2v-0.6c0-2.2,1-4.3,2.8-5.7c1.8-1.4,4.1-1.8,6.2-1.2
					c63.8,17.3,107.3,17.2,179.1-0.3c2.1-0.5,4.4,0,6.1,1.3c1.8,1.4,2.7,3.5,2.7,5.9V64l-0.5,0.1C553.5,74.7,523.3,80,493.4,80z
					 M397,62.8c74.4,20.9,118.1,20.9,194,0c-0.1-1.7-0.9-3.2-2.2-4.2c-1.4-1.1-3.2-1.5-4.9-1c-72.1,17.6-115.8,17.6-179.9,0.3
					c-1.7-0.5-3.5-0.1-4.9,1C397.9,59.9,397.1,61.3,397,62.8z"/>
			</g>
			<g id="XMLID_1132_">
				<path id="XMLID_1136_" class="st7" d="M582.5,63.6c2.5-0.9,3.4-1,3.1-1.9c-0.6-1.7-0.8-2.8-1.7-2.4c-2.5,0.9-3.4,1-3.1,1.9
					C581.4,62.9,581.6,64,582.5,63.6z"/>
				<g id="XMLID_1133_">
					<g id="XMLID_1135_">
						<path class="st4" d="M582.4,63.2c-0.1,0-0.1,0-0.2,0c-0.2-0.1-0.2-0.3-0.1-0.5l1.6-2.8c0.1-0.2,0.3-0.2,0.5-0.1
							c0.2,0.1,0.2,0.3,0.1,0.5l-1.6,2.8C582.6,63.2,582.5,63.2,582.4,63.2z"/>
					</g>
					<g id="XMLID_1134_">
						<path class="st4" d="M584.7,62.4c0,0-0.1,0-0.1,0l-3.1-1.1c-0.2-0.1-0.3-0.3-0.2-0.5c0.1-0.2,0.3-0.3,0.5-0.2l3.1,1.1
							c0.2,0.1,0.3,0.3,0.2,0.5C585,62.3,584.9,62.4,584.7,62.4z"/>
					</g>
				</g>
			</g>
		</g>
		<g id="XMLID_865_">
			<g id="XMLID_776_">
				<path class="st6" d="M424.7,126.3h2.4v8.3c0,3.6-1.7,4.7-4.3,4.7c-0.6,0-1.5-0.1-2-0.3l0.3-1.9c0.4,0.1,0.9,0.2,1.5,0.2
					c1.3,0,2.2-0.6,2.2-2.8V126.3z"/>
				<path class="st6" d="M434.8,139.1l-0.2-1c-0.6,0.7-1.6,1.2-2.8,1.2c-1.9,0-2.9-1.4-2.9-2.8c0-2.3,2.1-3.5,5.5-3.5v-0.2
					c0-0.6-0.2-1.6-1.9-1.6c-0.9,0-1.9,0.3-2.5,0.7l-0.5-1.5c0.7-0.4,1.9-0.8,3.4-0.8c3,0,3.8,1.9,3.8,3.9v3.4c0,0.8,0,1.7,0.1,2.2
					H434.8z M434.5,134.6c-1.7,0-3.2,0.3-3.2,1.7c0,0.9,0.6,1.3,1.3,1.3c0.9,0,1.6-0.6,1.8-1.3c0.1-0.2,0.1-0.4,0.1-0.5V134.6z"/>
				<path class="st6" d="M440.5,129.8l1.5,4.7c0.3,0.8,0.5,1.6,0.6,2.3c0.2-0.8,0.4-1.5,0.7-2.3l1.5-4.7h2.5l-3.6,9.3h-2.3l-3.5-9.3
					H440.5z"/>
				<path class="st6" d="M453.9,139.1l-0.2-1c-0.6,0.7-1.6,1.2-2.8,1.2c-1.9,0-2.9-1.4-2.9-2.8c0-2.3,2.1-3.5,5.5-3.5v-0.2
					c0-0.6-0.2-1.6-1.9-1.6c-0.9,0-1.9,0.3-2.5,0.7l-0.5-1.5c0.7-0.4,1.9-0.8,3.4-0.8c3,0,3.8,1.9,3.8,3.9v3.4c0,0.8,0,1.7,0.1,2.2
					H453.9z M453.6,134.6c-1.7,0-3.2,0.3-3.2,1.7c0,0.9,0.6,1.3,1.3,1.3c0.9,0,1.6-0.6,1.8-1.3c0.1-0.2,0.1-0.4,0.1-0.5V134.6z"/>
				<path class="st6" d="M462.3,136.6c0.8,0.4,1.9,0.8,3.1,0.8c1.5,0,2.3-0.7,2.3-1.8c0-1-0.6-1.5-2.3-2.1c-2.1-0.8-3.5-1.9-3.5-3.7
					c0-2.1,1.8-3.7,4.5-3.7c1.4,0,2.4,0.3,3.1,0.6l-0.6,1.9c-0.5-0.2-1.4-0.6-2.6-0.6c-1.5,0-2.1,0.8-2.1,1.5c0,1,0.7,1.5,2.5,2.1
					c2.2,0.8,3.3,2,3.3,3.8c0,2.1-1.6,3.9-4.9,3.9c-1.4,0-2.8-0.4-3.5-0.8L462.3,136.6z"/>
				<path class="st6" d="M479.1,138.8c-0.5,0.2-1.5,0.5-2.6,0.5c-2.9,0-4.8-1.9-4.8-4.7c0-2.8,1.9-5,5.2-5c0.9,0,1.7,0.2,2.3,0.4
					l-0.4,1.8c-0.4-0.2-0.9-0.4-1.8-0.4c-1.8,0-2.9,1.3-2.8,3c0,1.9,1.2,3,2.8,3c0.8,0,1.4-0.2,1.9-0.4L479.1,138.8z"/>
				<path class="st6" d="M480.9,132.8c0-1.3,0-2.2-0.1-3h2l0.1,1.8h0.1c0.5-1.3,1.5-2,2.5-2c0.2,0,0.4,0,0.6,0.1v2.2
					c-0.2,0-0.4-0.1-0.7-0.1c-1.1,0-1.9,0.7-2.1,1.8c0,0.2-0.1,0.5-0.1,0.7v4.8h-2.3V132.8z"/>
				<path class="st6" d="M490.2,127.2c0,0.7-0.5,1.3-1.3,1.3c-0.8,0-1.3-0.6-1.3-1.3c0-0.7,0.5-1.3,1.3-1.3
					C489.7,125.9,490.2,126.5,490.2,127.2z M487.7,139.1v-9.3h2.4v9.3H487.7z"/>
				<path class="st6" d="M492.6,132.9c0-1.2,0-2.2-0.1-3.1h2.1l0.1,1.4c0.7-1.1,1.8-1.6,3.2-1.6c2.1,0,3.9,1.8,3.9,4.7
					c0,3.4-2.1,5-4.2,5c-1.2,0-2.1-0.5-2.6-1.2c0,0,0,4.8,0,4.8h-2.3V132.9z M494.9,135.2c0,0.2,0,0.4,0.1,0.6
					c0.2,1,1.1,1.6,2.1,1.6c1.5,0,2.4-1.2,2.4-3.1c0-1.6-0.8-3-2.3-3c-1,0-1.9,0.7-2.1,1.7c-0.1,0.2-0.1,0.4-0.1,0.6V135.2z"/>
				<path class="st6" d="M506.4,127.2v2.7h2.2v1.8h-2.2v4.1c0,1.1,0.3,1.7,1.2,1.7c0.4,0,0.7-0.1,0.9-0.1l0,1.8
					c-0.3,0.1-1,0.2-1.7,0.2c-0.9,0-1.6-0.3-2-0.8c-0.5-0.5-0.7-1.4-0.7-2.6v-4.4h-1.3v-1.8h1.3v-2.1L506.4,127.2z"/>
			</g>
			<g id="XMLID_864_">
				<path id="XMLID_857_" class="st13" d="M406.6,166.3c4.9,0,7.2-0.5,7.2,1.7c0,4.9,0.5,7.2-1.7,7.2c-4.9,0-7.2,0.5-7.2-1.7
					C405,168.6,404.5,166.3,406.6,166.3z"/>
				<path id="XMLID_856_" class="st13" d="M406.6,146.9c4.9,0,7.2-0.5,7.2,1.7c0,4.9,0.5,7.2-1.7,7.2c-4.9,0-7.2,0.5-7.2-1.7
					C405,149.2,404.5,146.9,406.6,146.9z"/>
				<path id="XMLID_854_" class="st13" d="M406.6,126.3c4.9,0,7.2-0.5,7.2,1.7c0,4.9,0.5,7.2-1.7,7.2c-4.9,0-7.2,0.5-7.2-1.7
					C405,128.6,404.5,126.3,406.6,126.3z"/>
				<path id="XMLID_853_" class="st13" d="M406.6,109.4c4.9,0,7.2-0.5,7.2,1.7c0,4.9,0.5,7.2-1.7,7.2c-4.9,0-7.2,0.5-7.2-1.7V111
					C405,110.1,405.7,109.4,406.6,109.4z"/>
				<path id="XMLID_852_" class="st13" d="M406.6,89.6c4.9,0,7.2-0.5,7.2,1.7c0,4.9,0.5,7.2-1.7,7.2c-4.9,0-7.2,0.5-7.2-1.7
					C405,91.9,404.5,89.6,406.6,89.6z"/>
			</g>
			<g id="XMLID_877_" class="st9">
				<path id="XMLID_858_" class="st13" d="M426.1,89.6c50.8,0,51-1,51,2.5c0,3,0.5,6.3-2.5,6.3c-50.8,0-51,1-51-2.5
					C423.6,92.9,423,89.6,426.1,89.6z"/>
				<path id="XMLID_859_" class="st13" d="M484.7,89.6c30.7,0,32.2-0.9,32.2,2.5c0,3,0.5,6.3-2.5,6.3c-30.7,0-32.2,0.9-32.2-2.5
					C482.2,92.9,481.7,89.6,484.7,89.6z"/>
				<path id="XMLID_860_" class="st13" d="M525.8,89.6c32.2,0,33.4-0.9,33.4,2.5c0,3,0.5,6.3-2.5,6.3c-32.2,0-33.4,0.9-33.4-2.5
					C523.2,92.9,522.7,89.6,525.8,89.6z"/>
			</g>
			<g id="XMLID_878_" class="st9">
				<path id="XMLID_863_" class="st13" d="M426.1,109.4c50.8,0,51-1,51,2.5c0,3,0.5,6.3-2.5,6.3c-50.8,0-51,1-51-2.5v-3.8
					C423.6,110.5,424.7,109.4,426.1,109.4z"/>
				<path id="XMLID_862_" class="st13" d="M484.7,109.4c30.7,0,32.2-0.9,32.2,2.5c0,3,0.5,6.3-2.5,6.3c-30.7,0-32.2,0.9-32.2-2.5
					C482.2,112.7,481.7,109.4,484.7,109.4z"/>
				<path id="XMLID_861_" class="st13" d="M525.8,109.4c32.2,0,33.4-0.9,33.4,2.5c0,3,0.5,6.3-2.5,6.3c-32.2,0-33.4,0.9-33.4-2.5
					C523.2,112.7,522.7,109.4,525.8,109.4z"/>
			</g>
			<g id="XMLID_880_" class="st9">
				<path id="XMLID_873_" class="st13" d="M426.1,146.9c50.8,0,51-1,51,2.5c0,3,0.5,6.3-2.5,6.3c-50.8,0-51,1-51-2.5
					C423.6,150.3,423,146.9,426.1,146.9z"/>
				<path id="XMLID_869_" class="st13" d="M484.7,146.9c30.7,0,32.2-0.9,32.2,2.5c0,3,0.5,6.3-2.5,6.3c-30.7,0-32.2,0.9-32.2-2.5
					C482.2,150.3,481.7,146.9,484.7,146.9z"/>
				<path id="XMLID_868_" class="st13" d="M525.8,146.9c32.2,0,33.4-0.9,33.4,2.5c0,3,0.5,6.3-2.5,6.3c-32.2,0-33.4,0.9-33.4-2.5
					v-3.8C523.2,148.1,524.4,146.9,525.8,146.9z"/>
			</g>
			<g id="XMLID_881_" class="st9">
				<path id="XMLID_876_" class="st13" d="M426.1,166.3c50.8,0,51-1,51,2.5c0,3,0.5,6.3-2.5,6.3c-50.8,0-51,1-51-2.5v-3.8
					C423.6,167.4,424.7,166.3,426.1,166.3z"/>
				<path id="XMLID_875_" class="st13" d="M484.7,166.3c30.7,0,32.2-0.9,32.2,2.5c0,3,0.5,6.3-2.5,6.3c-30.7,0-32.2,0.9-32.2-2.5
					v-3.8C482.2,167.4,483.4,166.3,484.7,166.3z"/>
				<path id="XMLID_874_" class="st13" d="M525.8,166.3c32.2,0,33.4-0.9,33.4,2.5c0,3,0.5,6.3-2.5,6.3c-32.2,0-33.4,0.9-33.4-2.5
					C523.2,169.7,522.7,166.3,525.8,166.3z"/>
			</g>
		</g>
	</g>
	<g id="XMLID_899_" class="st1">
		<g id="XMLID_560_">
			<g id="XMLID_517_">
				<path class="st4" d="M309.2,293.4c-16.8,0.7,3.6-27.7-7.8-125.1c0-0.4,0.3-0.8,0.7-0.7c71.6,4.6,113.9,5.9,187.2,0
					c0.4,0,0.7,0.3,0.7,0.7c-3.2,43.8-4,72.6-0.6,117.6C490.6,301.2,476.5,286.1,309.2,293.4z"/>
				<path class="st5" d="M308.5,294.1c-2.2,0-3.8-0.6-4.9-1.7c-2.9-3-2.3-10-1.3-22.7c1.6-19,4.2-50.8-1.7-101.3
					c0-0.4,0.1-0.8,0.4-1.1c0.3-0.3,0.7-0.5,1.1-0.4c73.6,4.7,115.9,5.8,187.1,0c0.4,0,0.8,0.1,1.1,0.4c0.3,0.3,0.4,0.7,0.4,1.1
					c-3.1,43.7-4,72.4-0.6,117.5c0.2,2.1,0.1,4.2-1.3,5.7c-2.7,2.8-9.6,2.5-28.1,1.8c-24.4-1-69.8-2.8-151.6,0.8
					C309,294.1,308.7,294.1,308.5,294.1z M302.1,168.3c5.9,50.5,3.3,82.4,1.7,101.5c-1,12.3-1.6,19,0.9,21.6c0.9,1,2.3,1.3,4.5,1.3
					c81.8-3.6,127.3-1.8,151.7-0.8c17.5,0.7,24.8,1,27-1.3c0.8-0.8,1.1-2.1,0.9-4.6c-3.5-45.1-2.6-73.9,0.6-117.6
					C418,174.1,375.7,173.1,302.1,168.3z"/>
			</g>
			<g id="XMLID_518_">
				<path class="st6" d="M482.7,160.6c-155.1,8.8-181.5-9.2-181.5,6.9c73.5,4.5,114.4,6.2,188.8,0
					C490.1,163.6,486.7,160.4,482.7,160.6z"/>
				<path class="st6" d="M401.9,172.3c-31.5,0-61.5-1.7-100.7-4l-0.7,0v-0.7c0-2.4,0.6-4.1,1.8-5.3c3.4-3.2,11.3-2.8,30.4-1.8
					c24.9,1.3,71.3,3.8,149.9-0.7c2.1-0.1,4.2,0.6,5.7,2.1c1.6,1.5,2.4,3.5,2.4,5.6v0.7l-0.7,0.1
					C455.5,171.2,428.2,172.3,401.9,172.3z M302,166.9c71.1,4.3,112,6.2,187.3,0c-0.2-1.5-0.8-2.8-1.9-3.8c-1.3-1.2-2.9-1.8-4.6-1.7
					c-78.7,4.5-125.1,2-150.1,0.7c-17.6-0.9-26.4-1.4-29.3,1.4C302.5,164.2,302.1,165.3,302,166.9z"/>
			</g>
			<g id="XMLID_1127_">
				<path id="XMLID_1131_" class="st7" d="M480.4,166.8c2.6-0.2,3.6,0,3.5-1c-0.1-1.8,0-2.9-0.9-2.8c-2.6,0.2-3.6,0-3.5,1l0.1,2.1
					C479.6,166.5,479.9,166.8,480.4,166.8z"/>
				<g id="XMLID_1128_">
					<g id="XMLID_1130_">
						<path class="st4" d="M480.5,166.4c-0.1,0-0.2,0-0.3-0.1c-0.1-0.1-0.1-0.4,0-0.5l2.4-2.3c0.1-0.1,0.4-0.1,0.5,0
							c0.1,0.1,0.1,0.4,0,0.5l-2.4,2.3C480.6,166.3,480.6,166.4,480.5,166.4z"/>
					</g>
					<g id="XMLID_1129_">
						<path class="st4" d="M483,166.2c-0.1,0-0.2,0-0.2-0.1l-2.7-1.9c-0.2-0.1-0.2-0.3-0.1-0.5c0.1-0.2,0.3-0.2,0.5-0.1l2.7,1.9
							c0.2,0.1,0.2,0.3,0.1,0.5C483.2,166.1,483.1,166.2,483,166.2z"/>
					</g>
				</g>
			</g>
		</g>
		<g id="XMLID_898_">
			<g id="XMLID_882_">
				<path class="st10" d="M323.3,218.8c1.1-0.2,2.7-0.4,4.8-0.4c2.3,0,4,0.5,5.1,1.4c1,0.8,1.7,2.2,1.7,3.8c0,1.6-0.5,3-1.5,3.9
					c-1.2,1.2-3.2,1.8-5.4,1.8c-0.6,0-1.1,0-1.5-0.1v6.5h-3.1V218.8z M326.4,226.8c0.4,0.1,0.9,0.1,1.5,0.1c2.3,0,3.8-1.1,3.8-3.2
					c0-1.9-1.3-2.9-3.5-2.9c-0.9,0-1.5,0.1-1.8,0.2V226.8z"/>
				<path class="st10" d="M339.5,223.4l2.2,6.7c0.3,0.8,0.5,1.7,0.7,2.4h0.1c0.2-0.7,0.4-1.6,0.7-2.4l1.9-6.6h3.4l-3.1,8.5
					c-1.7,4.6-2.9,6.7-4.3,8c-1.2,1.1-2.5,1.5-3.3,1.6l-0.7-2.6c0.5-0.1,1.2-0.4,1.8-0.9c0.6-0.4,1.3-1.1,1.7-2
					c0.1-0.2,0.2-0.4,0.2-0.6c0-0.1,0-0.3-0.2-0.6l-4.5-11.4H339.5z"/>
				<path class="st10" d="M353.9,219.8v3.5h3v2.3h-3v5.5c0,1.5,0.4,2.3,1.6,2.3c0.5,0,0.9-0.1,1.2-0.2l0.1,2.4
					c-0.5,0.2-1.3,0.3-2.3,0.3c-1.1,0-2.1-0.4-2.7-1c-0.7-0.7-1-1.8-1-3.5v-5.8h-1.8v-2.3h1.8v-2.8L353.9,219.8z"/>
				<path class="st10" d="M359.3,217.7h3.2v7.4c0.4-0.6,0.9-1.1,1.6-1.4c0.6-0.4,1.4-0.6,2.1-0.6c2.1,0,4.3,1.4,4.3,5.4v7.3h-3.1v-7
					c0-1.8-0.7-3.2-2.4-3.2c-1.2,0-2.1,0.8-2.4,1.8c-0.1,0.3-0.1,0.6-0.1,0.9v7.4h-3.2V217.7z"/>
				<path class="st10" d="M385.6,229.5c0,4.6-3.2,6.6-6.4,6.6c-3.5,0-6.2-2.4-6.2-6.4c0-4.1,2.7-6.6,6.4-6.6
					C383.2,223.1,385.6,225.7,385.6,229.5z M376.3,229.6c0,2.4,1.2,4.2,3.1,4.2c1.8,0,3-1.8,3-4.3c0-1.9-0.9-4.2-3-4.2
					C377.2,225.4,376.3,227.5,376.3,229.6z"/>
				<path class="st10" d="M388.2,227.1c0-1.4,0-2.6-0.1-3.7h2.8l0.2,1.9h0.1c0.5-1,1.9-2.1,3.9-2.1c2.2,0,4.4,1.4,4.4,5.3v7.4h-3.1
					v-7c0-1.8-0.7-3.1-2.4-3.1c-1.2,0-2.1,0.9-2.4,1.8c-0.1,0.3-0.1,0.7-0.1,1v7.3h-3.2V227.1z"/>
			</g>
			<g id="XMLID_888_" class="st8">
				<path id="XMLID_884_" class="st10" d="M345.3,197.9c-32.3,0-33.4,0.9-33.4-2.4c0-2.5-0.5-5.7,2.4-5.7c32.3,0,33.4-0.9,33.4,2.4
					C347.7,194.7,348.2,197.9,345.3,197.9z"/>
				<path id="XMLID_885_" class="st10" d="M389.2,197.9c-32.3,0-33.4,0.9-33.4-2.4c0-2.5-0.5-5.7,2.4-5.7c32.3,0,33.4-0.9,33.4,2.4
					C391.6,194.7,392.1,197.9,389.2,197.9z"/>
				<path id="XMLID_886_" class="st10" d="M433.1,197.9c-32.3,0-33.4,0.9-33.4-2.4c0-2.5-0.5-5.7,2.4-5.7c32.3,0,33.4-0.9,33.4,2.4
					v3.3C435.6,196.8,434.5,197.9,433.1,197.9z"/>
				<path id="XMLID_887_" class="st10" d="M477.1,197.9c-32.3,0-33.4,0.9-33.4-2.4c0-2.5-0.5-5.7,2.4-5.7c32.3,0,33.4-0.9,33.4,2.4
					C479.5,194.7,480,197.9,477.1,197.9z"/>
			</g>
			<g id="XMLID_889_" class="st8">
				<path id="XMLID_895_" class="st10" d="M345.3,211.7c-32.3,0-33.4,0.9-33.4-2.4c0-2.5-0.5-5.7,2.4-5.7c32.3,0,33.4-0.9,33.4,2.4
					C347.7,208.5,348.2,211.7,345.3,211.7z"/>
				<path id="XMLID_892_" class="st10" d="M389.2,211.7c-32.3,0-33.4,0.9-33.4-2.4c0-2.5-0.5-5.7,2.4-5.7c32.3,0,33.4-0.9,33.4,2.4
					C391.6,208.5,392.1,211.7,389.2,211.7z"/>
				<path id="XMLID_891_" class="st10" d="M433.1,211.7c-32.3,0-33.4,0.9-33.4-2.4c0-2.5-0.5-5.7,2.4-5.7h31c1.3,0,2.4,1.1,2.4,2.4
					v3.3C435.6,210.6,434.5,211.7,433.1,211.7z"/>
				<path id="XMLID_890_" class="st10" d="M477.1,211.7c-32.3,0-33.4,0.9-33.4-2.4c0-2.5-0.5-5.7,2.4-5.7c32.3,0,33.4-0.9,33.4,2.4
					C479.5,208.5,480,211.7,477.1,211.7z"/>
				<path id="XMLID_896_" class="st10" d="M477.1,232.3c-32.3,0-33.4,0.9-33.4-2.4c0-2.5-0.5-5.7,2.4-5.7c32.3,0,33.4-0.9,33.4,2.4
					C479.5,229.1,480,232.3,477.1,232.3z"/>
			</g>
			<g id="XMLID_929_" class="st8">
				<path id="XMLID_940_" class="st10" d="M345.3,253c-32.3,0-33.4,0.9-33.4-2.4c0-2.5-0.5-5.7,2.4-5.7c32.3,0,33.4-0.9,33.4,2.4
					C347.7,249.8,348.2,253,345.3,253z"/>
				<path id="XMLID_933_" class="st10" d="M389.2,253c-32.3,0-33.4,0.9-33.4-2.4c0-2.5-0.5-5.7,2.4-5.7c32.3,0,33.4-0.9,33.4,2.4
					v3.3C391.6,251.9,390.5,253,389.2,253z"/>
				<path id="XMLID_931_" class="st10" d="M433.1,253c-32.3,0-33.4,0.9-33.4-2.4c0-2.5-0.5-5.7,2.4-5.7c32.3,0,33.4-0.9,33.4,2.4
					v3.3C435.6,251.9,434.5,253,433.1,253z"/>
				<path id="XMLID_930_" class="st10" d="M477.1,253c-32.3,0-33.4,0.9-33.4-2.4c0-2.5-0.5-5.7,2.4-5.7c32.3,0,33.4-0.9,33.4,2.4
					C479.5,249.8,480,253,477.1,253z"/>
			</g>
			<g id="XMLID_941_" class="st8">
				<path id="XMLID_946_" class="st10" d="M345.3,266.8c-32.3,0-33.4,0.9-33.4-2.4c0-2.5-0.5-5.7,2.4-5.7c32.3,0,33.4-0.9,33.4,2.4
					C347.7,263.6,348.2,266.8,345.3,266.8z"/>
				<path id="XMLID_945_" class="st10" d="M389.2,266.8c-32.3,0-33.4,0.9-33.4-2.4c0-2.5-0.5-5.7,2.4-5.7c32.3,0,33.4-0.9,33.4,2.4
					C391.6,263.6,392.1,266.8,389.2,266.8z"/>
				<path id="XMLID_944_" class="st10" d="M433.1,266.8c-32.3,0-33.4,0.9-33.4-2.4c0-2.5-0.5-5.7,2.4-5.7c32.3,0,33.4-0.9,33.4,2.4
					C435.6,263.6,436,266.8,433.1,266.8z"/>
				<path id="XMLID_942_" class="st10" d="M477.1,266.8c-32.3,0-33.4,0.9-33.4-2.4c0-2.5-0.5-5.7,2.4-5.7c32.3,0,33.4-0.9,33.4,2.4
					C479.5,263.6,480,266.8,477.1,266.8z"/>
			</g>
			<g id="XMLID_962_" class="st8">
				<path id="XMLID_976_" class="st10" d="M345.3,280.6c-32.3,0-33.4,0.9-33.4-2.4c0-2.5-0.5-5.7,2.4-5.7c32.3,0,33.4-0.9,33.4,2.4
					C347.7,277.4,348.2,280.6,345.3,280.6z"/>
				<path id="XMLID_975_" class="st10" d="M389.2,280.6c-32.3,0-33.4,0.9-33.4-2.4c0-2.5-0.5-5.7,2.4-5.7c32.3,0,33.4-0.9,33.4,2.4
					v3.3C391.6,279.5,390.5,280.6,389.2,280.6z"/>
				<path id="XMLID_973_" class="st10" d="M433.1,280.6c-32.3,0-33.4,0.9-33.4-2.4c0-2.5-0.5-5.7,2.4-5.7c32.3,0,33.4-0.9,33.4,2.4
					C435.6,277.4,436,280.6,433.1,280.6z"/>
				<path id="XMLID_964_" class="st10" d="M477.1,280.6c-32.3,0-33.4,0.9-33.4-2.4c0-2.5-0.5-5.7,2.4-5.7c32.3,0,33.4-0.9,33.4,2.4
					C479.5,277.4,480,280.6,477.1,280.6z"/>
			</g>
		</g>
	</g>
	<g id="XMLID_1059_" class="st1">
		<g id="XMLID_721_">
			<g id="XMLID_714_">
				<path class="st4" d="M548.8,336.9c-5.7-1.6-4,5.8-4-163.5c0,0,105.5,26.8,162.3,0v159C707.1,344.6,641,362.5,548.8,336.9z"/>
				<path class="st5" d="M638.8,350.5c-25,0-55.7-3.5-90.1-13c-0.2-0.1-0.4-0.1-0.6-0.2c-4.2-1-4.2-1-4-72
					c0.1-22.1,0.2-52.5,0.2-91.9v-0.7l0.7,0.2c0.3,0.1,26.7,6.7,59.8,10c30.5,3,72.9,3.8,102.1-10l0.8-0.4v159.9
					c0,1.8-1.2,3.7-3.6,5.5C695.8,344.2,672.5,350.5,638.8,350.5z M549,336.4c80.4,22.3,140.2,11.4,154.4,0.7
					c2.1-1.6,3.2-3.2,3.2-4.6V174.4c-29.4,13.5-71.6,12.8-101.9,9.7c-30.1-3-54.8-8.8-59.2-9.9c0,39.1-0.1,69.2-0.2,91.2
					c-0.2,68.8-0.2,70.1,3.1,70.9C548.5,336.3,548.7,336.3,549,336.4z"/>
			</g>
			<g id="XMLID_720_">
				<path class="st6" d="M699.5,168.4c-47.7,19.8-124.8,3.7-147.9-1.9c-2.5-0.6-6.8,0.2-6.8,7c0,0,108.2,26.8,162.3,0
					C707.1,169.5,703.1,166.9,699.5,168.4z"/>
				<path class="st6" d="M640.7,185.9c-12.4,0-24.4-0.8-35.1-1.8c-33.5-3.3-60.7-10-61-10.1l-0.4-0.1v-0.5c0-3,0.8-5.2,2.5-6.5
					c2-1.6,4.3-1.2,5-1c22.6,5.5,99.9,21.7,147.5,1.9c1.9-0.8,4.1-0.6,5.8,0.6c1.7,1.1,2.7,3,2.7,5v0.4l-0.3,0.2
					C689,183.1,664.2,185.9,640.7,185.9z M545.4,173c7.6,1.8,109.5,25.4,161.2,0.1c-0.1-1.5-0.9-2.9-2.2-3.7
					c-1.4-0.9-3.1-1.1-4.7-0.4c-17.2,7.1-38.1,9.6-59,9.6c-37.5,0-74.7-8-89.2-11.5c-0.5-0.1-2.4-0.5-4,0.8
					C546.1,168.9,545.4,170.6,545.4,173z"/>
			</g>
			<g id="XMLID_1144_">
				<path id="XMLID_1174_" class="st7" d="M699.4,174.2c2.5-0.9,3.4-1.1,3.1-2c-0.7-1.7-0.8-2.7-1.7-2.4c-2.5,0.9-3.4,1.1-3.1,2
					C698.4,173.5,698.5,174.5,699.4,174.2z"/>
				<g id="XMLID_1145_">
					<g id="XMLID_1160_">
						<path class="st4" d="M699.3,173.8c-0.1,0-0.1,0-0.2,0c-0.2-0.1-0.2-0.3-0.1-0.5l1.6-2.9c0.1-0.2,0.3-0.2,0.5-0.1
							c0.2,0.1,0.2,0.3,0.1,0.5l-1.6,2.9C699.6,173.7,699.4,173.8,699.3,173.8z"/>
					</g>
					<g id="XMLID_1158_">
						<path class="st4" d="M701.7,172.9c0,0-0.1,0-0.1,0l-3.1-1.1c-0.2-0.1-0.3-0.3-0.2-0.5s0.3-0.3,0.5-0.2l3.1,1.1
							c0.2,0.1,0.3,0.3,0.2,0.5C702,172.8,701.8,172.9,701.7,172.9z"/>
					</g>
				</g>
			</g>
		</g>
		<g id="XMLID_1058_">
			<g id="XMLID_906_">
				<g>
					<path class="st6" d="M636.5,233.9c-0.6,0.3-1.8,0.6-3.3,0.6c-4.1,0-6.6-2.6-6.6-6.5c0-4.2,2.9-6.8,6.9-6.8
						c1.5,0,2.7,0.3,3.1,0.6l-0.5,1.9c-0.6-0.3-1.5-0.5-2.5-0.5c-2.6,0-4.5,1.6-4.5,4.7c0,2.8,1.7,4.6,4.5,4.6c1,0,1.9-0.2,2.6-0.5
						L636.5,233.9z"/>
					<path class="st6" d="M643.6,224.1v4.3h4.1v1.5h-4.1v4.4h-1.6v-4.4h-4.1v-1.5h4.1v-4.3H643.6z"/>
					<path class="st6" d="M655,224.1v4.3h4.1v1.5H655v4.4h-1.6v-4.4h-4.1v-1.5h4.1v-4.3H655z"/>
				</g>
			</g>
			<g id="XMLID_908_">
				<g>
					<path class="st10" d="M632.2,261.1c1.1-0.2,2.7-0.4,4.8-0.4c2.3,0,4,0.5,5.1,1.4c1,0.8,1.7,2.2,1.7,3.8c0,1.6-0.5,3-1.5,3.9
						c-1.2,1.2-3.2,1.8-5.4,1.8c-0.6,0-1.1,0-1.5-0.1v6.5h-3.1V261.1z M635.3,269.1c0.4,0.1,0.9,0.1,1.5,0.1c2.3,0,3.8-1.1,3.8-3.2
						c0-1.9-1.3-2.9-3.5-2.9c-0.9,0-1.5,0.1-1.8,0.2V269.1z"/>
					<path class="st10" d="M649.6,260.9v6.9h7.3v-6.9h3.1v17.2h-3.1v-7.6h-7.3v7.6h-3.1v-17.2H649.6z"/>
					<path class="st10" d="M663.6,261.1c1.1-0.2,2.7-0.4,4.8-0.4c2.3,0,4,0.5,5.1,1.4c1,0.8,1.7,2.2,1.7,3.8c0,1.6-0.5,3-1.5,3.9
						c-1.2,1.2-3.2,1.8-5.4,1.8c-0.6,0-1.1,0-1.5-0.1v6.5h-3.1V261.1z M666.7,269.1c0.4,0.1,0.9,0.1,1.5,0.1c2.3,0,3.8-1.1,3.8-3.2
						c0-1.9-1.3-2.9-3.5-2.9c-0.9,0-1.5,0.1-1.8,0.2V269.1z"/>
				</g>
			</g>
			<g id="XMLID_912_">
				<g>
					<path class="st6" d="M668.5,319.9c-0.6,0.3-1.8,0.6-3.3,0.6c-4.1,0-6.6-2.6-6.6-6.5c0-4.2,2.9-6.8,6.9-6.8
						c1.5,0,2.7,0.3,3.1,0.6l-0.5,1.9c-0.6-0.3-1.5-0.5-2.5-0.5c-2.6,0-4.5,1.6-4.5,4.7c0,2.8,1.7,4.6,4.5,4.6c1,0,1.9-0.2,2.6-0.5
						L668.5,319.9z"/>
					<path class="st6" d="M670.9,320.3l0.5-3.6h-1.6v-1.5h1.8l0.3-2.4h-1.6v-1.5h1.9l0.5-3.5h1.4l-0.5,3.5h1.9l0.5-3.5h1.4l-0.5,3.5
						h1.5v1.5h-1.8l-0.3,2.4h1.6v1.5h-1.9l-0.5,3.6h-1.5l0.5-3.6h-1.8l-0.5,3.6H670.9z M674.9,315.3l0.3-2.4h-1.9l-0.3,2.4H674.9z"
						/>
				</g>
			</g>
			<g id="XMLID_1001_" class="st9">
				<path id="XMLID_928_" class="st14" d="M613.6,202.1h-29.4c-0.9,0-1.7-0.8-1.7-1.7v-4c0-0.9,0.8-1.7,1.7-1.7h29.4
					c0.9,0,1.7,0.8,1.7,1.7v4C615.3,201.3,614.6,202.1,613.6,202.1z"/>
				<path id="XMLID_994_" class="st10" d="M650.4,202.1c-29.5,0-30.6,0.8-30.6-2.2c0-2.2-0.5-5.2,2.2-5.2c29.5,0,30.6-0.8,30.6,2.2
					C652.6,199.1,653,202.1,650.4,202.1z"/>
				<path id="XMLID_1000_" class="st14" d="M687.6,202.1c-29.5,0-30.6,0.8-30.6-2.2c0-2.2-0.5-5.2,2.2-5.2c29.5,0,30.6-0.8,30.6,2.2
					C689.8,199.1,690.3,202.1,687.6,202.1z"/>
			</g>
			<g id="XMLID_1002_" class="st9">
				<path id="XMLID_1005_" class="st14" d="M613.6,217.6h-29.4c-0.9,0-1.7-0.8-1.7-1.7v-4c0-0.9,0.8-1.7,1.7-1.7h29.4
					c0.9,0,1.7,0.8,1.7,1.7v4C615.3,216.8,614.6,217.6,613.6,217.6z"/>
				<path id="XMLID_1004_" class="st14" d="M650.4,217.6c-29.5,0-30.6,0.8-30.6-2.2c0-2.2-0.5-5.2,2.2-5.2c29.5,0,30.6-0.8,30.6,2.2
					C652.6,214.7,653,217.6,650.4,217.6z"/>
			</g>
			<path id="XMLID_1010_" class="st15" d="M613.6,233.2h-29.4c-0.9,0-1.7-0.8-1.7-1.7v-4c0-0.9,0.8-1.7,1.7-1.7h29.4
				c0.9,0,1.7,0.8,1.7,1.7v4C615.3,232.4,614.6,233.2,613.6,233.2z"/>
			<g id="XMLID_1013_" class="st9">
				<path id="XMLID_1041_" class="st14" d="M613.1,248.7c-29.5,0-30.6,0.8-30.6-2.2c0-2.2-0.5-5.2,2.2-5.2c29.5,0,30.6-0.8,30.6,2.2
					v3C615.3,247.7,614.3,248.7,613.1,248.7z"/>
				<path id="XMLID_1035_" class="st14" d="M650.9,248.7h-29.4c-0.9,0-1.7-0.8-1.7-1.7v-4c0-0.9,0.8-1.7,1.7-1.7h29.4
					c0.9,0,1.7,0.8,1.7,1.7v4C652.6,248,651.8,248.7,650.9,248.7z"/>
				<path id="XMLID_1034_" class="st14" d="M687.6,248.7c-29.5,0-30.6,0.8-30.6-2.2c0-2.2-0.5-5.2,2.2-5.2c29.5,0,30.6-0.8,30.6,2.2
					C689.8,245.8,690.3,248.7,687.6,248.7z"/>
			</g>
			<path id="XMLID_1045_" class="st16" d="M613.1,264.3c-29.5,0-30.6,0.8-30.6-2.2c0-2.2-0.5-5.2,2.2-5.2h28.3c1.2,0,2.2,1,2.2,2.2
				v3C615.3,263.3,614.3,264.3,613.1,264.3z"/>
			<path id="XMLID_1049_" class="st16" d="M613.1,279.8c-29.5,0-30.6,0.8-30.6-2.2c0-2.2-0.5-5.2,2.2-5.2c29.5,0,30.6-0.8,30.6,2.2
				v3C615.3,278.8,614.3,279.8,613.1,279.8z"/>
			<g id="XMLID_1050_" class="st9">
				<path id="XMLID_1053_" class="st14" d="M613.1,295.4c-29.5,0-30.6,0.8-30.6-2.2c0-2.2-0.5-5.2,2.2-5.2c29.5,0,30.6-0.8,30.6,2.2
					C615.3,292.4,615.8,295.4,613.1,295.4z"/>
				<path id="XMLID_1052_" class="st14" d="M650.4,295.4c-29.5,0-30.6,0.8-30.6-2.2c0-2.2-0.5-5.2,2.2-5.2c29.5,0,30.6-0.8,30.6,2.2
					C652.6,292.4,653,295.4,650.4,295.4z"/>
				<path id="XMLID_1051_" class="st14" d="M687.6,295.4c-29.5,0-30.6,0.8-30.6-2.2c0-2.2-0.5-5.2,2.2-5.2c29.5,0,30.6-0.8,30.6,2.2
					C689.8,292.4,690.3,295.4,687.6,295.4z"/>
			</g>
			<path id="XMLID_1057_" class="st15" d="M613.1,310.9c-29.5,0-30.6,0.8-30.6-2.2c0-2.2-0.5-5.2,2.2-5.2h28.3c1.2,0,2.2,1,2.2,2.2
				v3C615.3,309.9,614.3,310.9,613.1,310.9z"/>
			<path id="XMLID_1056_" class="st17" d="M650.4,310.9H622c-1.2,0-2.2-1-2.2-2.2v-3c0-1.2,1-2.2,2.2-2.2c29.5,0,30.6-0.8,30.6,2.2
				v3C652.6,309.9,651.6,310.9,650.4,310.9z"/>
			<path id="XMLID_1061_" class="st15" d="M613.1,326.5c-29.5,0-30.6,0.8-30.6-2.2c0-2.2-0.5-5.2,2.2-5.2c29.5,0,30.6-0.8,30.6,2.2
				C615.3,323.5,615.8,326.5,613.1,326.5z"/>
			<path id="XMLID_1060_" class="st15" d="M650.4,326.5c-29.5,0-30.6,0.8-30.6-2.2c0-2.2-0.5-5.2,2.2-5.2c29.5,0,30.6-0.8,30.6,2.2
				C652.6,323.5,653,326.5,650.4,326.5z"/>
			<path id="XMLID_991_" class="st16" d="M670.7,225h5.5c0.9,0,1.7,0.7,1.7,1.7c0,4.9,0.5,7.2-1.7,7.2c-4.9,0-7.2,0.5-7.2-1.7v-5.5
				C669,225.8,669.8,225,670.7,225z"/>
			<path id="XMLID_1007_" class="st16" d="M682.7,225h5.5c0.9,0,1.7,0.7,1.7,1.7c0,4.9,0.5,7.2-1.7,7.2c-4.9,0-7.2,0.5-7.2-1.7v-5.5
				C681,225.8,681.8,225,682.7,225z"/>
			<path id="XMLID_1043_" class="st16" d="M558.5,302.8c4.9,0,7.2-0.5,7.2,1.7c0,4.9,0.5,7.2-1.7,7.2c-4.9,0-7.2,0.5-7.2-1.7
				C556.8,305.1,556.3,302.8,558.5,302.8z"/>
			<path id="XMLID_1008_" class="st16" d="M570.5,302.8c4.9,0,7.2-0.5,7.2,1.7c0,4.9,0.5,7.2-1.7,7.2c-4.9,0-7.2,0.5-7.2-1.7v-5.5
				C568.8,303.6,569.5,302.8,570.5,302.8z"/>
			<path id="XMLID_1046_" class="st16" d="M558.5,271.7c4.9,0,7.2-0.5,7.2,1.7c0,4.9,0.5,7.2-1.7,7.2c-4.9,0-7.2,0.5-7.2-1.7
				C556.8,274,556.3,271.7,558.5,271.7z"/>
			<path id="XMLID_1044_" class="st16" d="M570.5,271.7c4.9,0,7.2-0.5,7.2,1.7c0,4.9,0.5,7.2-1.7,7.2c-4.9,0-7.2,0.5-7.2-1.7
				C568.8,274,568.3,271.7,570.5,271.7z"/>
			<path id="XMLID_1048_" class="st16" d="M558.5,240.6c4.9,0,7.2-0.5,7.2,1.7c0,4.9,0.5,7.2-1.7,7.2c-4.9,0-7.2,0.5-7.2-1.7
				C556.8,242.9,556.3,240.6,558.5,240.6z"/>
			<path id="XMLID_1047_" class="st16" d="M570.5,240.6c4.9,0,7.2-0.5,7.2,1.7c0,4.9,0.5,7.2-1.7,7.2c-4.9,0-7.2,0.5-7.2-1.7
				C568.8,242.9,568.3,240.6,570.5,240.6z"/>
			<path id="XMLID_1055_" class="st16" d="M558.1,209.5h6.3c0.7,0,1.3,0.6,1.3,1.3v6.3c0,0.7-0.6,1.3-1.3,1.3h-6.3
				c-0.7,0-1.3-0.6-1.3-1.3v-6.3C556.8,210.1,557.4,209.5,558.1,209.5z"/>
			<path id="XMLID_1054_" class="st16" d="M570.1,209.5h6.3c0.7,0,1.3,0.6,1.3,1.3v6.3c0,0.7-0.6,1.3-1.3,1.3h-6.3
				c-0.7,0-1.3-0.6-1.3-1.3v-6.3C568.8,210.1,569.4,209.5,570.1,209.5z"/>
			<path id="XMLID_1006_" class="st16" d="M687.6,310.7c10,0,12.6-0.6,12.6,2.1c0,3.7,0.6,6.7-2.1,6.7c-10,0-12.6,0.6-12.6-2.1
				C685.4,313.7,684.9,310.7,687.6,310.7z"/>
		</g>
	</g>
	<g id="XMLID_1092_" class="st1">
		<g id="XMLID_782_">
			<path class="st4" d="M503.7,345.4c-73.4-4.7-97.8,8.4-95.9-6.1c0.6-4.7,1.2-10.9,1.2-17.4c0-9.8,8.3-17.6,18.1-17
				c71.5,4.2,96.6-8.4,93.4,6.5c-1.6,7.4-2.8,14.6-2.7,20.8C517.7,339.9,511.2,345.9,503.7,345.4z"/>
			<path class="st5" d="M418.4,347.1c-5.2,0-8.4-0.6-10.1-2.4c-1.2-1.3-1.6-3-1.3-5.5c0.5-4.2,1.2-10.6,1.2-17.3
				c0-4.9,2-9.5,5.6-12.9c3.6-3.4,8.4-5.1,13.3-4.8c30.8,1.8,53.1,0.5,67.9-0.4c15-0.9,22.5-1.3,25.3,1.9c1.2,1.3,1.4,3.2,0.9,5.8
				c-1.3,6.1-2.8,13.9-2.7,20.7c0,3.8-1.5,7.4-4.3,10c-2.8,2.7-6.6,4-10.5,3.8c-32.7-2.1-55.7-0.7-70.9,0.3
				C426.8,346.8,422.1,347.1,418.4,347.1z M426,305.7c-4.2,0-8.1,1.6-11.2,4.5c-3.3,3.1-5.1,7.3-5.1,11.8c0,6.7-0.6,13.2-1.2,17.4
				c-0.3,2,0,3.4,0.9,4.3c2.4,2.6,10.3,2.1,23.2,1.3c15.3-1,38.3-2.4,71.1-0.3c3.4,0.2,6.9-1,9.4-3.4c2.5-2.4,3.9-5.5,3.8-9
				c-0.1-6.9,1.4-14.8,2.7-21c0.5-2.2,0.3-3.6-0.5-4.6c-2.3-2.7-10.5-2.2-24.1-1.4c-14.8,0.9-37.2,2.2-68.1,0.4
				C426.6,305.7,426.3,305.7,426,305.7z"/>
		</g>
		<g id="XMLID_1090_">
			<g>
				<path class="st6" d="M473.3,329.9c-0.6,0.3-1.8,0.6-3.3,0.6c-4.1,0-6.6-2.6-6.6-6.5c0-4.2,2.9-6.8,6.9-6.8
					c1.5,0,2.7,0.3,3.1,0.6l-0.5,1.9c-0.6-0.3-1.5-0.5-2.5-0.5c-2.6,0-4.5,1.6-4.5,4.7c0,2.8,1.7,4.6,4.5,4.6c1,0,1.9-0.2,2.6-0.5
					L473.3,329.9z"/>
				<path class="st6" d="M475.7,330.3l0.5-3.6h-1.6v-1.5h1.8l0.3-2.4h-1.6v-1.5h1.9l0.5-3.5h1.4l-0.5,3.5h1.9l0.5-3.5h1.4l-0.5,3.5
					h1.5v1.5h-1.8l-0.3,2.4h1.6v1.5H481l-0.5,3.6H479l0.5-3.6h-1.8l-0.5,3.6H475.7z M479.8,325.3l0.3-2.4h-1.9l-0.3,2.4H479.8z"/>
			</g>
		</g>
		<path id="XMLID_1069_" class="st17" d="M455.9,322.4c-29.5,0-30.6,0.8-30.6-2.2c0-2.2-0.5-5.2,2.2-5.2c29.5,0,30.6-0.8,30.6,2.2
			C458.2,319.5,458.6,322.4,455.9,322.4z"/>
		<path id="XMLID_849_" class="st15" d="M455.9,334.3c-29.5,0-30.6,0.8-30.6-2.2c0-2.2-0.5-5.2,2.2-5.2c29.5,0,30.6-0.8,30.6,2.2
			C458.2,331.4,458.6,334.3,455.9,334.3z"/>
		<path id="XMLID_811_" class="st16" d="M493.2,319.3c10,0,12.6-0.6,12.6,2.1c0,3.7,0.6,6.7-2.1,6.7c-10,0-12.6,0.6-12.6-2.1
			C491,322.2,490.5,319.3,493.2,319.3z"/>
		<path id="XMLID_1091_" class="st16" d="M417.2,315c5.3,0,7.3-0.4,7.3,1.5c0,3.8,0.4,5.9-1.5,5.9c-5.3,0-7.3,0.4-7.3-1.5
			C415.7,317.1,415.2,315,417.2,315z"/>
		<path id="XMLID_1093_" class="st16" d="M417.2,326.9c5.3,0,7.3-0.4,7.3,1.5c0,3.8,0.4,5.9-1.5,5.9c-5.3,0-7.3,0.4-7.3-1.5
			C415.7,329,415.2,326.9,417.2,326.9z"/>
	</g>
	<path id="XMLID_1097_" class="st18" d="M616.7,462.1c0,18.6-142,18.6-142,0C474.7,443.5,616.7,443.5,616.7,462.1z"/>
	<g id="XMLID_99_" class="st1">
		<path id="XMLID_1662_" class="st19" d="M535.6,152.5c0.1,8.3,2.8,14.4-12.4,21.6c9.1,12.5,18,17.1,18,17.1s19.1-8.6,25.7-14.3
			c-8.1-5.9-13.9-6.6-13.8-14.5c0-1.9-0.1-9.6-0.1-9.8L535.6,152.5z"/>
		<path id="XMLID_1660_" class="st19" d="M550.4,155.4c4.3-1.2,11.8-13.3,10-29.3c-1.3-11.1-24.3-19.8-27.7-0.1
			c-1.6,11.3-10.6,11.5-2.5,14.8c0,0-1.9,10.1,6.3,13.1C533.8,152.8,543.3,157.3,550.4,155.4z"/>
		<g id="XMLID_1620_">
			<path id="XMLID_1626_" class="st20" d="M510.9,447.6c2.8,2.1,7.1,1.7,11-0.6l4-19.3l-14.7,0.4L510.9,447.6z"/>
		</g>
		<g id="XMLID_1613_">
			<path id="XMLID_1619_" class="st20" d="M582.7,447.6c-2.8,2.1-7.1,1.7-11-0.6l-4-19.3l14.7,0.4L582.7,447.6z"/>
		</g>
		<g id="XMLID_1612_">
			<path class="st21" d="M572.3,254.7c13.4,52.9,15.5,185.2,12.8,185.9c-1.7,0.4-15.9,2.9-16.6,0.1c-14.2-65.1-24.5-128-24.5-128
				c-5.8,64.9-16.2,128.1-20.1,128.6c-3.5,0.5-15.7-0.8-15.9-3.5c-1-14.4-3.1-153.4,5.8-183.8L572.3,254.7z"/>
			<path class="st22" d="M573.1,442.4c-1.8,0-3.4-0.2-4.2-0.7c-0.4-0.2-0.6-0.5-0.7-0.9c-12.4-56.6-21.8-112.2-24-125.2
				c-2.7,29.3-6.5,60.4-10.5,85.6c-2.9,18.3-6.9,40.1-9.6,40.5c-3,0.4-13-0.5-15.6-2.7c-0.5-0.4-0.7-0.8-0.7-1.2
				c-1.1-15.9-3-153.9,5.8-183.9l0.1-0.3l0.3,0l58.7,0.6l0.1,0.3c7.6,29.9,11,82.3,12.4,111c1.9,39.6,1.8,72.9,0.5,75.1
				c-0.1,0.1-0.2,0.2-0.3,0.3C584.1,441.2,577.7,442.4,573.1,442.4z M544,309.8l0.5,2.9c0.1,0.6,10.4,63.7,24.5,128
				c0,0.2,0.2,0.3,0.4,0.4c2.4,1.5,13.3-0.3,15.7-0.8c1.1-2,1.3-33.8-0.6-74.3c-1.4-28.6-4.8-80.9-12.3-110.9l-57.8-0.6
				c-8.7,30.5-6.8,167.5-5.7,183.4c0,0.2,0.2,0.4,0.5,0.7c2.3,1.9,11.9,2.9,15.1,2.5c1-0.1,4-8.7,9-39.9c4.1-26,8-58.3,10.8-88.4
				L544,309.8z"/>
		</g>
		<g id="XMLID_1587_">
			<path id="XMLID_1589_" class="st21" d="M559.1,264c0.3,0,0.2-10.6,0.2-10.4c0-0.3-2-0.2-1.7-0.2c-0.3,0-0.2,10.6-0.2,10.4
				C557.4,264.1,559.4,264,559.1,264z"/>
			<path id="XMLID_1588_" class="st21" d="M524.9,263.2c0.3,0,0.2-10.6,0.2-10.4c0-0.3-2-0.2-1.7-0.2c-0.3,0-0.2,10.6-0.2,10.4
				C523.2,263.3,525.2,263.2,524.9,263.2z"/>
		</g>
		<g id="XMLID_1577_">
			<path class="st23" d="M553.9,165.5c-6.5,3.6-14.6,3.4-19.8,0.7c-12,3.6-23.8,5.6-23.5,17.4c0.5,24.5-1.2,69.2,3.3,70.4
				c20.4,5.7,57.5,3.9,60.7,0c4.2-5.3,2.6-39.5,1-61.6C574.7,180.3,566.6,169.2,553.9,165.5z"/>
			<path class="st24" d="M547.5,258.1c-11.5,0-24.4-1.1-33.7-3.6c-3.3-0.9-3.5-19.8-3.5-48.4c0-8.2,0-15.9-0.1-22.4
				c-0.2-10.8,9.6-13.6,19.9-16.6c1.3-0.4,2.6-0.7,3.9-1.1l0.1,0l0.1,0.1c4.6,2.3,12.7,3.1,19.5-0.7l0.1-0.1l0.1,0
				c12.2,3.6,21,14.6,21.9,27.4c1.8,25.3,3.1,56.6-1.1,61.8C573.1,256.6,561.2,258.1,547.5,258.1z M534.1,166.6
				c-1.3,0.4-2.5,0.7-3.7,1.1c-10.5,3.1-19.6,5.7-19.4,15.9c0.1,6.5,0.1,14.2,0.1,22.4c0,20.9-0.1,46.9,3,47.7
				c20.8,5.8,57.4,3.7,60.3,0.1c3.1-3.9,3.5-25.7,0.9-61.3c-0.9-12.6-9.2-23.1-21.3-26.7C547,169.7,538.9,168.9,534.1,166.6z"/>
		</g>
		<g id="XMLID_75_">
			<g id="XMLID_54_">
				<path class="st25" d="M562.5,161c-2.2,0-5.2-0.4-9.4-1.3c-0.2,0-0.3-0.2-0.3-0.4c0-0.2,0.2-0.3,0.4-0.3
					c7.7,1.6,11.3,1.7,12.7,0.4c1.1-1,0.7-3.1,0.2-6.1c-0.6-3.1-1.3-7.4-0.6-12.4c2.5-16.3-5.3-22.7-10.2-25c-7-3.4-15.6-2.2-18.6,1
					c-0.1,0.2-0.4,0.2-0.5,0c-0.2-0.1-0.2-0.4,0-0.5c3.1-3.4,12.1-4.7,19.4-1.2c5.1,2.4,13.2,9,10.6,25.8c-0.7,4.9,0,8.9,0.6,12.2
					c0.6,3.1,1,5.4-0.4,6.7C565.7,160.6,564.5,161,562.5,161z"/>
			</g>
			<g id="XMLID_57_">
				<path class="st25" d="M544.4,155.4c-0.1,0-0.1,0-0.2-0.1c-5.3-3.2-5.7-9.8-6-14.3c-0.1-1.5-0.2-2.7-0.4-3.4
					c-0.9-2.6-3.2-4.2-5.5-5.8c-1.7-1.2-3.3-2.3-4-3.7c-1-1.8-1.2-5.2,0.4-7.9c1-1.8,3.2-3.9,7.8-3.9c0.2,0,0.4,0.2,0.4,0.4
					s-0.2,0.4-0.4,0.4c-4.2,0-6.2,1.9-7.1,3.5c-1.5,2.5-1.3,5.5-0.4,7.1c0.7,1.3,2.2,2.3,3.8,3.5c2.3,1.6,4.8,3.4,5.7,6.2
					c0.3,0.8,0.3,2.1,0.4,3.6c0.3,4.3,0.7,10.7,5.7,13.7c0.2,0.1,0.2,0.3,0.1,0.5C544.6,155.3,544.5,155.4,544.4,155.4z"/>
			</g>
		</g>
		<path id="XMLID_519_" class="st25" d="M538.6,114.8c10-3.5,22.5,2.5,24.7,10.3c1.7,6,3.8,29.5-3.8,24.7
			c-8.3-5.2-13-19.2-18.4-26.8C540.2,121.6,531.9,117.2,538.6,114.8z"/>
		<path id="XMLID_520_" class="st25" d="M547.9,120.9c4,3.7,3.3,5.8,4.3,9.3c2.5,8.5,13,11.7,13.5,25.4c0.2,4-1.8,4.9-5.5,4.1
			c-15.1-3.4-20.7-2.4-20.4-13.3c0.4-14.8-3.9-12.4-8.5-17C523.8,121.9,535.5,109.2,547.9,120.9z"/>
		<g id="XMLID_39_">
			<g id="XMLID_30_">
				<path class="st26" d="M536.5,129c-0.1,0-0.2,0-0.2-0.1c-4-3.1-4.2-5.7-3.7-7.4c0.6-1.9,2.4-3.1,3.8-3.2c0.2,0,0.4,0.2,0.4,0.4
					s-0.2,0.4-0.4,0.4c-0.9,0-2.5,1-3.1,2.7c-0.5,1.4-0.3,3.7,3.4,6.6c0.2,0.1,0.2,0.4,0.1,0.5C536.7,129,536.6,129,536.5,129z"/>
			</g>
			<g id="XMLID_31_">
				<path class="st26" d="M557.7,120.7c-0.1,0-0.2,0-0.3-0.1c-6.7-6.3-12.9-5.2-17.6-3.5c-0.2,0.1-0.4,0-0.5-0.2
					c-0.1-0.2,0-0.4,0.2-0.5c4.5-1.6,11.3-3,18.4,3.7c0.1,0.1,0.2,0.4,0,0.5C557.9,120.7,557.8,120.7,557.7,120.7z"/>
			</g>
			<g id="XMLID_32_">
				<path class="st26" d="M541,125.8c-0.2,0-0.4-0.2-0.4-0.4c0.1-2.8-1-5.6-3-7.6c-0.1-0.1-0.1-0.4,0-0.5c0.1-0.1,0.4-0.1,0.5,0
					c2.1,2.1,3.3,5.1,3.2,8.1C541.4,125.6,541.2,125.8,541,125.8z"/>
			</g>
			<g id="XMLID_33_">
				<path class="st26" d="M550.5,121.9c-0.1,0-0.1,0-0.2-0.1c-3.6-2.5-5.8-2.9-9.2-1.3c-0.2,0.1-0.4,0-0.5-0.2
					c-0.1-0.2,0-0.4,0.2-0.5c3.6-1.7,6.1-1.3,9.9,1.4c0.2,0.1,0.2,0.3,0.1,0.5C550.7,121.8,550.6,121.9,550.5,121.9z"/>
			</g>
			<g id="XMLID_34_">
				<path class="st26" d="M551,146.2c0,0-0.1,0-0.1,0c-0.2-0.1-0.3-0.3-0.2-0.5c2.3-6.7,2.3-12,0.1-16c-2.5-4.4-6.9-5.3-7.1-5.3
					c-0.2,0-0.3-0.2-0.3-0.4c0-0.2,0.2-0.3,0.4-0.3c0.2,0,5,1,7.6,5.7c2.4,4.1,2.4,9.7,0,16.6C551.3,146.1,551.1,146.2,551,146.2z"
					/>
			</g>
			<g id="XMLID_36_">
				<path class="st26" d="M561.5,145.8c-0.1,0-0.2,0-0.3-0.1c-4.4-5.6-3-10.4-1.8-14.3c0.8-2.6,1.4-4.9,0.1-6.7
					c-0.1-0.2-0.1-0.4,0.1-0.5c0.2-0.1,0.4-0.1,0.5,0.1c1.5,2.1,0.8,4.5,0,7.3c-1.2,3.9-2.5,8.3,1.7,13.6c0.1,0.2,0.1,0.4-0.1,0.5
					C561.7,145.7,561.6,145.8,561.5,145.8z"/>
			</g>
			<g id="XMLID_37_">
				<path class="st26" d="M554.8,154.4c0,0-0.1,0-0.1,0l-5.7-1.6c-5.9-1.7-5.5-4.3-5-7.3c0.4-2.9,1-6.5-3.6-10.9
					c-0.1-0.1-0.2-0.4,0-0.5c0.1-0.1,0.4-0.2,0.5,0c4.9,4.7,4.3,8.5,3.9,11.5c-0.4,3-0.7,4.9,4.5,6.5l5.7,1.6
					c0.2,0.1,0.3,0.3,0.3,0.5C555.1,154.3,555,154.4,554.8,154.4z"/>
			</g>
			<g id="XMLID_38_">
				<path class="st26" d="M561.4,159.1c-0.7,0-1.4-0.1-2.2-0.2c-0.2,0-0.3-0.2-0.3-0.4c0-0.2,0.2-0.3,0.4-0.3
					c1.7,0.2,3.8,0.3,4.4-0.6c0.5-0.7,0.2-1.9-0.8-3.7c-0.1-0.2,0-0.4,0.1-0.5c0.2-0.1,0.4,0,0.5,0.1c1.1,2.1,1.4,3.5,0.7,4.5
					C563.8,158.8,562.7,159.1,561.4,159.1z"/>
			</g>
			<g id="XMLID_43_">
				<path class="st26" d="M558.4,151.6c-0.2,0-0.4-0.2-0.4-0.4c0-0.2,0.1-0.4,0.4-0.4c1.9-0.1,3.7-1.2,4.6-2.9
					c0.1-0.2,0.3-0.2,0.5-0.2c0.2,0.1,0.2,0.3,0.2,0.5C562.6,150.2,560.5,151.5,558.4,151.6C558.4,151.6,558.4,151.6,558.4,151.6z"
					/>
			</g>
		</g>
		<g id="XMLID_710_">
			<path class="st22" d="M529.2,289c0.7,2.2,2.4,3.8,4.6,4.4c35.5,9,70.7,4,60.1-10.3c-12.7-17.2-7.6-48.4-10.5-67.2
				c-6.8-44.1-29.4-51.7-29.4-51.7c-8.6,13.3-23.7,3.2-23.7,3.2c-5.7,1.8-20.2,6.6-20.2,6.6C503.2,200.5,524.2,272.5,529.2,289z"/>
			<path class="st21" d="M568.2,298.2c-10.4,0-22.6-1.5-34.5-4.5c-2.3-0.6-4.1-2.3-4.8-4.6c-4.4-14.5-26.1-88.4-19.1-115.2l0.1-0.2
				l0.2-0.1c0.1,0,14.6-4.9,20.2-6.6l0.2-0.1l0.1,0.1c0.1,0,7.3,4.8,14.4,3.4c3.5-0.7,6.5-2.9,8.8-6.4l0.2-0.2l0.3,0.1
				c0.2,0.1,22.9,8.2,29.6,52c0.9,5.9,1,13,1.2,20.6c0.3,16.3,0.6,34.8,9.2,46.5c2.3,3.1,2.6,5.8,1,8.2
				C592.1,295.8,581.6,298.2,568.2,298.2z M529.6,288.9c0.6,2,2.3,3.6,4.3,4.1c26.9,6.8,55.3,5.7,60.7-2.3c1.4-2.1,1.1-4.6-1-7.4
				c-8.8-11.9-9.1-30.5-9.4-46.9c-0.1-7.5-0.2-14.6-1.2-20.5c-6.3-40.8-26.4-50.3-28.9-51.3c-2.4,3.6-5.4,5.7-9.1,6.5
				c-6.9,1.4-13.7-2.7-14.8-3.4c-5.4,1.7-18.1,5.9-19.9,6.5C503.6,201.1,525.2,274.5,529.6,288.9L529.6,288.9z"/>
		</g>
		<g id="XMLID_25_">
			<g id="XMLID_11_">
				<path class="st21" d="M577.8,297.8c-0.1,0-0.2,0-0.3-0.1c-12.7-14.4-12.3-30-11.8-48.1c0.5-21.6,1.2-48.4-20.8-82.5
					c-0.1-0.2-0.1-0.4,0.1-0.5c0.2-0.1,0.4-0.1,0.5,0.1c22.2,34.3,21.5,61.3,20.9,82.9c-0.5,17.9-0.8,33.4,11.6,47.6
					c0.1,0.2,0.1,0.4,0,0.5C578,297.8,577.9,297.8,577.8,297.8z"/>
			</g>
			<g id="XMLID_24_">
				<path class="st21" d="M585.4,296.5c-0.1,0-0.2-0.1-0.3-0.1c-8.5-11.2-10-19.5-11-24.9c-1-5.7-1.5-8.3-8.3-8.8
					c-0.2,0-0.4-0.2-0.3-0.4c0-0.2,0.2-0.4,0.4-0.3c7.3,0.6,7.9,3.7,8.9,9.4c1,5.4,2.4,13.6,10.8,24.6c0.1,0.2,0.1,0.4-0.1,0.5
					C585.6,296.5,585.5,296.5,585.4,296.5z"/>
			</g>
		</g>
		<g id="XMLID_713_">
			<path class="st27" d="M551.7,158.1c0.9-0.5,2-0.4,2.4,0.5c2.3,4.9,4.2,8.6-3.5,11.7c-15.3,6.1-12.9,3.9-20.3-2.9
				C532.6,166.7,536.9,167.2,551.7,158.1z"/>
			<path class="st28" d="M539,174.2c-2.4,0-3.7-1.2-5.8-3.4c-0.9-0.9-1.8-1.9-3.1-3.1l-0.5-0.4l0.6-0.2c0.4-0.1,0.9-0.2,1.4-0.3
				c2.7-0.5,7.6-1.5,19.8-9c0.6-0.4,1.2-0.5,1.8-0.3c0.5,0.1,0.9,0.5,1.1,1l0.1,0.2c1.4,2.9,2.6,5.4,1.7,7.7
				c-0.7,1.7-2.4,3.1-5.5,4.3C544.7,173.1,541.4,174.2,539,174.2z M531.1,167.6c1.1,1,1.9,1.9,2.7,2.7c3.9,4.1,4.4,4.6,16.7-0.3
				c2.8-1.1,4.5-2.4,5.1-3.9c0.8-2-0.4-4.4-1.7-7.1l-0.1-0.2c-0.1-0.3-0.4-0.5-0.7-0.6c-0.4-0.1-0.8,0-1.2,0.2
				c-12.3,7.6-17.4,8.5-20.1,9.1C531.6,167.5,531.3,167.5,531.1,167.6z"/>
		</g>
		<g id="XMLID_716_">
			<path id="XMLID_719_" class="st29" d="M409.6,216.8c-4.4,1.9,3.3,5.8,14.7,0.2c-1.9-1-3.2-0.5-5.2-0.3
				C415.4,217.2,411.1,216.1,409.6,216.8z"/>
			<path id="XMLID_718_" class="st30" d="M398.5,229.7c-0.5,0.3-1.4,0-1.6-0.6c-0.7-1.9,9.7-6.5,20-6.5
				C411.3,225.2,403.7,226.8,398.5,229.7z"/>
			<path id="XMLID_717_" class="st19" d="M430.6,214.3l14,3.5l-5.6,12.6l-9.6-7.5c-1.9-1.4-0.1-1.1-30.3,3.4c-1.8,0.3-2.4-1-0.8-1.8
				c2.8-1.4,7.3-2.8,10.4-2.4c-2.1-0.4-7.7,0.8-7.5-0.8c0.1-1.7,9.3-1.5,12.2-2.3C416.9,218.3,425.6,212,430.6,214.3z"/>
		</g>
		<g id="XMLID_715_">
			<path class="st22" d="M475.8,227l-38.7-13.6c-2.3-0.8-5.8,9.5-6.6,12.9c-0.9,4,48,31.7,57.5,29.7c11-2.4,24.5-32.4,30.3-42.7
				c4-7.1,4.9-43.3-8.1-39.3c-3.6,1.1-25.4,41.6-30.8,51.6C478.7,226.9,477.2,227.5,475.8,227z"/>
			<path class="st21" d="M486.8,256.4c-10.9,0-48.7-21.3-55.4-28c-1-1-1.4-1.7-1.2-2.2c0.7-3,3.5-11.7,5.9-13
				c0.4-0.2,0.8-0.3,1.1-0.1l38.7,13.6c1.2,0.4,2.5-0.1,3.1-1.2c10.1-18.9,27.6-50.8,31-51.8c2.7-0.8,4.9-0.1,6.8,2.2
				c6.2,7.7,5.1,31.8,1.8,37.7c-1,1.8-2.3,4.3-3.8,7.2c-7,13.4-17.5,33.7-26.7,35.7C487.7,256.4,487.3,256.4,486.8,256.4z
				 M436.8,213.7c-0.1,0-0.2,0-0.4,0.1c-2.1,1.2-4.9,9.4-5.6,12.5c0,0-0.1,0.4,1,1.5c6.8,6.8,47.6,29.6,56,27.7
				c8.8-1.9,19.7-22.8,26.2-35.3c1.5-2.9,2.8-5.4,3.8-7.2c3.2-5.6,4.2-29.5-1.7-36.8c-1.6-2-3.6-2.6-6-1.9
				c-2.3,0.7-13.7,19.9-30.6,51.5c-0.8,1.4-2.5,2.1-4,1.6L437,213.7C436.9,213.7,436.9,213.7,436.8,213.7z"/>
		</g>
		<g id="XMLID_6_">
			<path class="st13" d="M568.1,459.2c-0.4,6.6,8.8,7.3,16.1,5.9c3.2-0.6,5.2-3.8,4.3-7c-1.8-6.1-4.9-14-9.6-14.5
				C567.2,442.3,568.7,449.5,568.1,459.2z"/>
			<path class="st31" d="M578.2,466c-3.4,0-6.6-0.6-8.6-2.3c-1.3-1.1-1.9-2.7-1.8-4.5c0.1-1.2,0.1-2.4,0.1-3.6
				c0.2-4.8,0.3-8.7,2.7-10.8c1.7-1.5,4.4-2,8.4-1.5c4.8,0.5,8,8.3,9.8,14.7c0.5,1.6,0.2,3.3-0.6,4.7c-0.9,1.4-2.3,2.4-3.9,2.7
				C582.4,465.8,580.2,466,578.2,466z M576.5,443.8c-2.4,0-4.2,0.5-5.4,1.5c-2.2,1.9-2.3,5.6-2.5,10.3c0,1.1-0.1,2.3-0.1,3.6
				c-0.1,1.6,0.4,3,1.6,4c2.9,2.6,9.2,2.5,14.2,1.6c1.5-0.3,2.7-1.1,3.5-2.4c0.8-1.3,1-2.7,0.6-4.2c-1.5-5.1-4.6-13.7-9.3-14.2
				C578.1,443.8,577.2,443.8,576.5,443.8z"/>
		</g>
		<g id="XMLID_7_">
			<path class="st13" d="M524.7,459.2c0.4,6.6-8.8,7.2-16.1,5.9c-3.2-0.6-5.2-3.8-4.3-7c1.8-6.1,4.9-14,9.6-14.5
				C525.7,442.3,524.2,449.5,524.7,459.2z"/>
			<path class="st31" d="M514.8,466c-2.1,0-4.3-0.2-6.2-0.6c-1.6-0.3-3.1-1.3-3.9-2.7c-0.9-1.4-1.1-3.1-0.6-4.7
				c1.9-6.4,5.1-14.2,9.9-14.7c4-0.4,6.7,0.1,8.4,1.6c2.4,2.1,2.6,6,2.7,10.8c0,1.1,0.1,2.3,0.1,3.6c0.1,1.9-0.5,3.4-1.8,4.5
				C521.4,465.4,518.1,466,514.8,466z M516.4,443.8c-0.8,0-1.6,0-2.5,0.1c-4.7,0.5-7.8,9.1-9.3,14.2c-0.4,1.4-0.2,2.9,0.6,4.2
				c0.8,1.3,2,2.1,3.5,2.4c4.9,0.9,11.2,1,14.2-1.5c1.1-1,1.7-2.3,1.6-4c-0.1-1.2-0.1-2.4-0.1-3.6c-0.1-4.7-0.3-8.4-2.5-10.3
				C520.6,444.3,518.9,443.8,516.4,443.8z"/>
		</g>
		<g id="XMLID_872_">
			<path class="st27" d="M542.6,260.9l-0.9-4.4c-0.2-0.9-19.2,2.2-18.9,3.9l0.7,3.4C523.7,264.6,542.9,262.6,542.6,260.9z"/>
			<path class="st28" d="M525,264.3c-1.8,0-1.8-0.3-1.9-0.5l-0.7-3.4c0-0.2,0-0.4,0.3-0.7c1.8-1.6,17.2-4.3,19-3.7
				c0.3,0.1,0.3,0.3,0.4,0.4l0.9,4.4c0.1,0.6-0.5,1.2-4.2,1.9c-2.6,0.5-6.3,1-9.7,1.3C527.2,264.3,525.9,264.3,525,264.3z
				 M523.8,263.5c2,0.6,17.5-1.5,18.4-2.6l-0.8-4.2c-2.1-0.6-17.4,2.5-18.2,3.6L523.8,263.5z"/>
		</g>
	</g>
</g>
<image style="overflow:visible;" width="1456" height="768" xlink:href="E:\vector files\untitlsssssed.png"  transform="matrix(0.5474 0 0 0.5474 0 33.1244)">
</image>
</svg>
