<?xml version="1.0" encoding="UTF-8"?>
<svg id="Layer_2" data-name="Layer 2" xmlns="http://www.w3.org/2000/svg" xmlns:xlink="http://www.w3.org/1999/xlink" viewBox="0 0 355.48 428.31">
  <defs>
    <style>
      .cls-1 {
        font-family: ArialMT, Arial;
        font-size: 45.98px;
      }

      .cls-1, .cls-2 {
        fill: #262262;
      }

      .cls-3 {
        fill: #ffb127;
      }

      .cls-3, .cls-4, .cls-5, .cls-6 {
        stroke: #000;
        stroke-miterlimit: 10;
      }

      .cls-7 {
        fill: #f93f26;
      }

      .cls-7, .cls-8, .cls-9, .cls-10, .cls-11, .cls-12, .cls-13, .cls-14, .cls-15, .cls-16, .cls-17, .cls-18, .cls-19, .cls-20, .cls-21, .cls-22, .cls-23, .cls-24, .cls-25, .cls-26 {
        stroke-width: 0px;
      }

      .cls-2 {
        font-size: 44.05px;
      }

      .cls-2, .cls-27 {
        font-family: Arial-Black, Arial;
        font-weight: 800;
      }

      .cls-8 {
        fill: #73d5d8;
      }

      .cls-9 {
        fill: #e8eced;
      }

      .cls-10 {
        fill: #007da9;
      }

      .cls-27 {
        fill: #54b2cc;
        font-size: 12.72px;
      }

      .cls-11, .cls-4 {
        fill: #f7f7f7;
      }

      .cls-13 {
        fill: #0f0f0f;
      }

      .cls-14 {
        fill: #889399;
      }

      .cls-15 {
        fill: #e8e9ea;
      }

      .cls-28 {
        letter-spacing: .05em;
      }

      .cls-16 {
        fill: red;
      }

      .cls-17 {
        fill: none;
      }

      .cls-29 {
        letter-spacing: .02em;
      }

      .cls-30 {
        clip-path: url(#clippath-1);
      }

      .cls-18 {
        fill: #a0a8af;
      }

      .cls-31, .cls-25 {
        opacity: .4;
      }

      .cls-19 {
        fill: url(#New_Gradient_Swatch_1-3);
      }

      .cls-20 {
        fill: #8ee8e8;
      }

      .cls-21 {
        fill: url(#New_Gradient_Swatch_1);
      }

      .cls-32 {
        letter-spacing: -.05em;
      }

      .cls-22 {
        fill: #ff1800;
      }

      .cls-33 {
        clip-path: url(#clippath);
      }

      .cls-23 {
        fill: url(#New_Gradient_Swatch_1-2);
      }

      .cls-34 {
        letter-spacing: -.02em;
      }

      .cls-24 {
        fill: url(#New_Gradient_Swatch_1-4);
      }

      .cls-25 {
        fill: #4f4f4f;
      }

      .cls-5 {
        fill: #f2f2f2;
      }

      .cls-26, .cls-6 {
        fill: #a3acb2;
      }

      .cls-35 {
        letter-spacing: .05em;
      }
    </style>
    <clipPath id="clippath">
      <path class="cls-17" d="m120.86,300.93h90.49c2.44,0,4.41,1.98,4.41,4.41v29.97c0,2.44-1.98,4.41-4.41,4.41h-90.49c-2.44,0-4.41-1.98-4.41-4.41v-29.97c0-2.44,1.98-4.41,4.41-4.41Z"/>
    </clipPath>
    <linearGradient id="New_Gradient_Swatch_1" data-name="New Gradient Swatch 1" x1="249" y1="274.9" x2="259.76" y2="274.9" gradientUnits="userSpaceOnUse">
      <stop offset="0" stop-color="#2400e9"/>
      <stop offset="1" stop-color="#ff0007"/>
    </linearGradient>
    <linearGradient id="New_Gradient_Swatch_1-2" data-name="New Gradient Swatch 1" x1="253.75" y1="264.53" x2="255.01" y2="264.53" xlink:href="#New_Gradient_Swatch_1"/>
    <linearGradient id="New_Gradient_Swatch_1-3" data-name="New Gradient Swatch 1" x1="259.15" y1="269.03" x2="265.55" y2="269.03" xlink:href="#New_Gradient_Swatch_1"/>
    <linearGradient id="New_Gradient_Swatch_1-4" data-name="New Gradient Swatch 1" x1="243.22" y1="269.03" x2="249.61" y2="269.03" xlink:href="#New_Gradient_Swatch_1"/>
    <clipPath id="clippath-1">
      <path class="cls-17" d="m246.98,298.66c0-3.29,2.69-5.97,5.97-5.97h10.75c3.29,0,7.43,2.26,9.21,5.02l16.23,25.2c1.78,2.76.54,5.02-2.74,5.02h-33.46c-3.28,0-5.97-2.69-5.97-5.97v-23.3Z"/>
    </clipPath>
  </defs>
  <g id="Layer_1-2" data-name="Layer 1">
    <text class="cls-2" transform="translate(11.68 37.79)"><tspan x="0" y="0">HEA</tspan><tspan class="cls-32" x="102.78" y="0">L</tspan><tspan x="129.92" y="0">THCARE</tspan></text>
    <text class="cls-1" transform="translate(59.69 90.55)"><tspan x="0" y="0">PROJEC</tspan><tspan class="cls-34" x="186.51" y="0">T</tspan></text>
    <g>
      <path class="cls-25" d="m355.07,407.11c0,11.71-79.48,21.2-177.53,21.2S0,418.82,0,407.11s79.48-21.21,177.53-21.21,177.53,9.49,177.53,21.21Z"/>
      <g>
        <rect class="cls-26" x="35.69" y="351.23" width="283.69" height="44.33"/>
        <path class="cls-5" d="m334.52,335.56l-24.05-7.61c-6.27-1.98-14.08-8.26-17.37-13.95l-10.98-18.98c-3.29-5.69-11.36-10.34-17.93-10.34h-31.78c-6.57,0-11.95,5.38-11.95,11.95v86.98c0,6.57,5.38,11.95,11.95,11.95h29.11c0-13.94,11.3-25.23,25.24-25.23s25.24,11.3,25.24,25.23h21.97c6.57,0,11.95-5.38,11.95-11.95v-32.5c0-6.57-5.12-13.57-11.39-15.55Z"/>
        <path class="cls-3" d="m337.88,350.39h.6c1.98,0,3.58,1.61,3.58,3.58v7.77c0,1.98-1.61,3.58-3.58,3.58h-.6c-1.98,0-3.59-1.61-3.59-3.59v-7.76c0-1.98,1.61-3.58,3.58-3.58Z"/>
        <g>
          <path class="cls-12" d="m307.77,395.55c0,11.61-9.41,21.03-21.02,21.03s-21.03-9.41-21.03-21.03,9.41-21.02,21.03-21.02,21.02,9.41,21.02,21.02Z"/>
          <path class="cls-9" d="m298.3,395.55c0,6.38-5.17,11.55-11.55,11.55s-11.55-5.17-11.55-11.55,5.17-11.55,11.55-11.55,11.55,5.17,11.55,11.55Z"/>
        </g>
        <path class="cls-4" d="m228.58,255.29H21.64c-6.57,0-11.95,5.38-11.95,11.95v116.37c0,6.57,5.38,11.95,11.95,11.95h27.76c0-13.94,11.3-25.23,25.24-25.23s25.24,11.3,25.24,25.23h128.7c6.57,0,11.95-5.38,11.95-11.95v-116.37c0-6.57-5.38-11.95-11.95-11.95Z"/>
        <g>
          <path class="cls-12" d="m95.66,395.55c0,11.61-9.41,21.03-21.02,21.03s-21.03-9.41-21.03-21.03,9.41-21.02,21.03-21.02,21.02,9.41,21.02,21.02Z"/>
          <path class="cls-9" d="m86.19,395.55c0,6.38-5.17,11.55-11.55,11.55s-11.55-5.17-11.55-11.55,5.17-11.55,11.55-11.55,11.55,5.17,11.55,11.55Z"/>
        </g>
        <g>
          <path class="cls-15" d="m246.98,336.83c0-2.21,1.8-4.01,4.01-4.01h34.96c2.2,0,4.01,1.8,4.01,4.01v25.23c0,2.21-1.79,3.76-3.97,3.45,0,0-25.32-.95-28,25.45h-7.01c-2.21,0-4.01-1.8-4.01-4.01v-50.12Z"/>
          <path class="cls-18" d="m252.33,346.85c-.74,0-1.34-.6-1.34-1.34v-7.34c0-.74.6-1.34,1.34-1.34h0c.74,0,1.34.6,1.34,1.34v7.34c0,.74-.6,1.34-1.34,1.34h0Z"/>
        </g>
        <g>
          <path class="cls-6" d="m354.98,383.82c0,3.94-3.2,7.14-7.14,7.14h-13.78c-3.95,0-7.14-3.2-7.14-7.14h0c0-3.94,3.2-7.14,7.14-7.14h13.78c3.94,0,7.14,3.2,7.14,7.14h0Z"/>
          <path class="cls-14" d="m328.07,387.71c1.27,1.96,3.48,3.26,5.99,3.26h13.78c2.51,0,4.71-1.3,5.99-3.26h-25.76Z"/>
        </g>
        <g>
          <path class="cls-6" d="m30.1,383.82c0,3.94-3.2,7.14-7.14,7.14h-13.78c-3.94,0-7.14-3.2-7.14-7.14h0c0-3.94,3.2-7.14,7.14-7.14h13.78c3.94,0,7.14,3.2,7.14,7.14h0Z"/>
          <path class="cls-14" d="m3.19,387.71c1.27,1.96,3.48,3.26,5.99,3.26h13.78c2.51,0,4.71-1.3,5.99-3.26H3.19Z"/>
        </g>
        <rect class="cls-22" x="9.02" y="352.23" width="231.51" height="8.02"/>
        <rect class="cls-22" x="9.02" y="319.15" width="106.46" height="8.02"/>
        <rect class="cls-22" x="206.2" y="319.15" width="34.33" height="8.02"/>
        <text class="cls-27" transform="translate(16.28 343.79)"><tspan class="cls-28" x="0" y="0">AM</tspan><tspan class="cls-29" x="23.17" y="0">B</tspan><tspan class="cls-35" x="33.37" y="0">ULANCE</tspan></text>
        <g>
          <path class="cls-16" d="m84.55,291.92c0,11.18-9.07,20.25-20.25,20.25s-20.25-9.07-20.25-20.25,9.07-20.25,20.25-20.25,20.25,9.07,20.25,20.25Z"/>
          <polygon class="cls-11" points="76.81 289.44 70.28 289.44 66.78 285.94 66.78 279.41 61.83 279.41 61.83 285.94 58.32 289.44 51.79 289.44 51.79 294.4 58.32 294.4 61.83 297.9 61.83 304.43 66.78 304.43 66.78 297.9 70.28 294.4 76.81 294.4 76.81 289.44"/>
        </g>
        <g>
          <g>
            <rect class="cls-7" x="16.07" y="264.06" width="7.85" height="7.85"/>
            <rect class="cls-10" x="27.1" y="264.06" width="7.85" height="7.85"/>
          </g>
          <g>
            <rect class="cls-7" x="225.5" y="264.06" width="7.85" height="7.85"/>
            <rect class="cls-10" x="214.47" y="264.06" width="7.85" height="7.85"/>
          </g>
        </g>
        <g>
          <g>
            <path class="cls-8" d="m121.35,301.14h89.51c2.41,0,4.37,1.96,4.37,4.37v29.65c0,2.41-1.96,4.37-4.37,4.37h-89.51c-2.41,0-4.37-1.96-4.37-4.37v-29.65c0-2.41,1.96-4.37,4.37-4.37Z"/>
            <g class="cls-33">
              <g>
                <g class="cls-31">
                  <rect class="cls-20" x="93.27" y="299.01" width="63.96" height="4.41" transform="translate(-171.71 166.18) rotate(-42.97)"/>
                  <rect class="cls-20" x="97.27" y="312.02" width="63.96" height="6.62" transform="translate(-180.26 172.69) rotate(-42.97)"/>
                  <polygon class="cls-20" points="124.98 348.24 121.97 345.01 178.96 292.12 181.97 295.35 124.98 348.24"/>
                  <polygon class="cls-20" points="135.17 353.15 132.91 350.72 195.11 292.12 197.37 294.54 135.17 353.15"/>
                </g>
                <g class="cls-31">
                  <rect class="cls-20" x="162.99" y="324.99" width="63.96" height="4.41" transform="translate(-170.75 220.8) rotate(-42.99)"/>
                  <rect class="cls-20" x="166.99" y="338" width="63.96" height="6.62" transform="translate(-179.27 227.22) rotate(-42.97)"/>
                  <polygon class="cls-20" points="194.7 374.22 191.69 370.99 248.68 318.1 251.69 321.33 194.7 374.22"/>
                  <polygon class="cls-20" points="204.89 379.13 202.63 376.7 264.83 318.1 267.09 320.52 204.89 379.13"/>
                </g>
              </g>
            </g>
          </g>
          <path class="cls-15" d="m210.86,341.02h-89.51c-3.24,0-5.87-2.63-5.87-5.87v-29.65c0-3.24,2.63-5.87,5.87-5.87h89.51c3.24,0,5.87,2.63,5.87,5.87v29.65c0,3.24-2.63,5.87-5.87,5.87Zm-89.51-38.38c-1.58,0-2.86,1.28-2.86,2.86v29.65c0,1.58,1.28,2.86,2.86,2.86h89.51c1.58,0,2.86-1.28,2.86-2.86v-29.65c0-1.58-1.28-2.86-2.86-2.86h-89.51Z"/>
        </g>
        <g>
          <g>
            <path class="cls-21" d="m259.76,279.79v-4.39c0-2.97-2.41-5.38-5.38-5.38s-5.38,2.41-5.38,5.38v4.39h10.76Z"/>
            <path class="cls-23" d="m255.01,267.79v-6.52c0-.81-1.25-.81-1.25,0v6.52c0,.81,1.25.81,1.25,0h0Z"/>
            <g>
              <path class="cls-19" d="m260.25,271.51c1.69-1.36,3.38-2.72,5.08-4.09.63-.51-.26-1.39-.89-.89-1.69,1.36-3.38,2.72-5.08,4.09-.63.51.26,1.39.89.89h0Z"/>
              <path class="cls-24" d="m249.4,270.63c-1.69-1.36-3.39-2.72-5.08-4.09-.62-.5-1.52.38-.89.89,1.69,1.36,3.39,2.72,5.08,4.09.62.5,1.52-.38.89-.89h0Z"/>
            </g>
          </g>
          <rect class="cls-13" x="246.41" y="279.79" width="15.93" height="4.89"/>
        </g>
        <g>
          <g>
            <path class="cls-8" d="m246.98,298.66c0-3.29,2.69-5.97,5.97-5.97h10.75c3.29,0,7.43,2.26,9.21,5.02l16.23,25.2c1.78,2.76.54,5.02-2.74,5.02h-33.46c-3.28,0-5.97-2.69-5.97-5.97v-23.3Z"/>
            <g class="cls-30">
              <g class="cls-31">
                <rect class="cls-20" x="224.89" y="295.48" width="58.1" height="4.01" transform="translate(-134.65 252.97) rotate(-42.98)"/>
                <rect class="cls-20" x="228.52" y="307.3" width="58.1" height="6.01" transform="translate(-142.41 258.81) rotate(-42.97)"/>
                <rect class="cls-20" x="244.53" y="316.92" width="58.1" height="4.01" transform="translate(-143.98 272.01) rotate(-42.97)"/>
                <rect class="cls-20" x="254.13" y="322.25" width="58.1" height="3.01" transform="translate(-144.69 279.78) rotate(-42.96)"/>
              </g>
            </g>
          </g>
          <path class="cls-15" d="m286.41,329.22h-33.46c-4,0-7.26-3.26-7.26-7.26v-23.3c0-4,3.26-7.26,7.26-7.26h10.75c3.74,0,8.26,2.47,10.29,5.61l16.23,25.2c1.13,1.75,1.33,3.48.58,4.86-.76,1.38-2.32,2.15-4.4,2.15Zm-33.46-35.25c-2.58,0-4.68,2.1-4.68,4.69v23.3c0,2.58,2.1,4.69,4.68,4.69h33.46c1.06,0,1.86-.3,2.14-.8.27-.5.1-1.34-.48-2.23l-16.23-25.2c-1.55-2.4-5.27-4.43-8.13-4.43h-10.75Z"/>
        </g>
      </g>
    </g>
  </g>
</svg>