<?xml version="1.0" encoding="utf-8"?>
<!-- Generator: Adobe Illustrator 28.0.0, SVG Export Plug-In . SVG Version: 6.00 Build 0)  -->
<svg version="1.1" id="Layer_1" xmlns="http://www.w3.org/2000/svg" xmlns:xlink="http://www.w3.org/1999/xlink" x="0px" y="0px"
	 viewBox="0 0 380.2 499.6" style="enable-background:new 0 0 380.2 499.6;" xml:space="preserve">
<style type="text/css">
	.st0{fill:#FFFFFF;}
	.st1{fill-rule:evenodd;clip-rule:evenodd;fill:#C3BBC6;}
	.st2{opacity:0.58;fill-rule:evenodd;clip-rule:evenodd;fill:#512452;enable-background:new    ;}
	.st3{opacity:0.58;fill-rule:evenodd;clip-rule:evenodd;fill:#952452;enable-background:new    ;}
	.st4{fill-rule:evenodd;clip-rule:evenodd;fill:#EDEDED;}
	.st5{opacity:0.4;fill-rule:evenodd;clip-rule:evenodd;fill:#8C8C8C;enable-background:new    ;}
	.st6{fill:#D3CDD8;}
	.st7{fill-rule:evenodd;clip-rule:evenodd;fill:#927A9F;}
	.st8{font-family:'ArialMT';}
	.st9{font-size:20.24px;}
	.st10{fill:#FFFFFF;stroke:#000000;stroke-miterlimit:10;}
	.st11{fill:#48484B;}
	.st12{fill:#B5B8BA;}
	.st13{fill:#898B8E;}
	.st14{fill-rule:evenodd;clip-rule:evenodd;fill:#FFEC00;}
	.st15{opacity:0.58;fill-rule:evenodd;clip-rule:evenodd;fill:#6D6D6D;enable-background:new    ;}
	.st16{fill-rule:evenodd;clip-rule:evenodd;fill:#FFFFFF;}
	.st17{fill-rule:evenodd;clip-rule:evenodd;fill:url(#SVGID_1_);}
	.st18{fill-rule:evenodd;clip-rule:evenodd;fill:url(#SVGID_00000091694111203841511590000016126147661723916955_);}
	.st19{fill-rule:evenodd;clip-rule:evenodd;fill:url(#SVGID_00000040540654566135615010000005070375088521070471_);}
	.st20{opacity:0.2;}
	.st21{fill-rule:evenodd;clip-rule:evenodd;fill:#C49AB1;}
	.st22{fill:#343238;}
	.st23{fill:#16B5CA;}
	.st24{fill:#12A9BC;}
	.st25{fill:#0091A1;}
	.st26{fill:#55BFD4;}
	.st27{fill:#FFEA6A;}
	.st28{fill:#F7AC11;}
	.st29{fill:#FDCB31;}
	.st30{fill:#24B5C4;}
	.st31{fill:#4ABED7;}
	.st32{fill:#36959F;}
	.st33{fill:#251E26;}
	
		.st34{opacity:0.75;fill:none;stroke:#FFFFFF;stroke-width:1.7;stroke-linecap:round;stroke-linejoin:round;enable-background:new    ;}
	.st35{fill:#3B383C;}
	.st36{fill:#262227;}
	.st37{opacity:0.7;fill:#262227;enable-background:new    ;}
	.st38{fill:#00A9BD;}
	.st39{fill:#74C7D8;}
	.st40{fill:#DFEBF1;}
	.st41{fill:#016F7C;}
	.st42{fill:#358697;}
	.st43{fill:#2E7481;}
	.st44{fill:#3991A4;}
	.st45{opacity:0.45;fill:#1F5963;enable-background:new    ;}
	.st46{fill:#1F5963;}
	.st47{fill:#297380;}
	.st48{fill:#43434B;}
	.st49{opacity:0.75;fill:url(#SVGID_00000054240859159505192100000012642964096232545413_);enable-background:new    ;}
	.st50{fill:#62C1CA;}
	.st51{fill:#8DD0E2;}
	.st52{fill:#363538;}
</style>
<g>
	<rect class="st0" width="380.2" height="501.8"/>
	<g id="Layer_2_00000021078354443557502150000011344452244848098720_">
		<path class="st0" d="M123.1,23.5c-17.4,6.4-34.2,14.2-50.3,23.6c-4.5,2.6-8.9,5.3-13.2,8.2c1.2,0.5,2.4,1,3.7,1.5
			c-1.8-11.9-0.9-24.1,2.4-35.7c0.9-3.1-3.9-4.4-4.8-1.3c-3.6,12.5-4.3,25.5-2.4,38.3c0.2,1.6,2.4,2.3,3.7,1.5
			c15.2-9.9,31.3-18.5,48-25.6c4.7-2,9.5-3.9,14.3-5.6c1.3-0.5,2.1-1.7,1.8-3.1C125.9,24.1,124.4,23.1,123.1,23.5
			C123.1,23.5,123.1,23.5,123.1,23.5z"/>
	</g>
	<g id="Layer_1-2">
		
			<image style="overflow:visible;enable-background:new    ;" width="5382" height="3172" id="VOVO_LOGO_Image" xlink:href="3DE037C.png"  transform="matrix(6.008918e-02 0 0 6.008918e-02 19.73 20.4986)">
		</image>
		<g>
			<g>
				<polygon class="st1" points="108.8,486.9 -5.7,499.8 409.2,499.8 329.3,489.9 				"/>
				<polygon class="st2" points="365.9,494.4 108.1,497.2 67.5,498.9 41.5,501.7 20.8,504.1 -55,502.3 35,493.9 102.5,489.9 
					328.5,489.9 				"/>
				<polygon class="st3" points="390.9,499.4 412.7,500.4 428,499.8 408.4,498.9 				"/>
				<g>
					<polygon class="st4" points="-7.4,362.7 -5.7,397.3 392.5,397.3 394.1,361.8 					"/>
					<polygon class="st4" points="-5.7,397.3 53,421.1 340.3,421.1 392.5,397.3 					"/>
					<polygon class="st5" points="45.1,409.2 50.3,492.5 64,492.5 64,409.2 					"/>
					<polygon class="st4" points="64,491.4 84.4,491.4 85,416.4 64,408.1 					"/>
					<rect x="40.8" y="491.4" class="st6" width="39.8" height="3.1"/>
					<polygon class="st7" points="101.6,494.5 80.6,494.5 80.6,491.4 100.9,492.2 					"/>
					<text transform="matrix(1 0 0 1 49.97 444.33)" class="st0 st8 st9">1</text>
					<polygon class="st5" points="352.4,409.2 347.2,492.5 333.6,492.5 333.6,409.2 					"/>
					<polygon class="st4" points="333.6,492.5 313.1,492.5 312.5,417.5 333.6,409.2 					"/>
					<rect x="316.9" y="491.4" class="st6" width="39.8" height="3.1"/>
					<g>
						<polygon class="st10" points="187.6,431.5 179,431.5 179.5,481.4 189.7,481.4 						"/>
						<rect x="178.4" y="432.2" class="st11" width="1.1" height="28.1"/>
						<polygon class="st11" points="178.4,475.5 179.5,475.5 179.5,462.5 176.3,462.5 						"/>
						<rect x="180.9" y="481.9" class="st12" width="9.7" height="1.5"/>
						<path class="st13" d="M187.2,440.2h-2.7v0.2c0,0.7,0.6,1.3,1.3,1.3h0.2c0.7,0,1.3-0.6,1.3-1.3V440.2z"/>
						<rect x="183.8" y="483.4" class="st11" width="3.8" height="7.6"/>
					</g>
					<polygon class="st7" points="297.1,494.5 316.9,494.5 316.9,491.4 296.6,492.2 					"/>
					<text transform="matrix(1 0 0 1 337.16 444.33)" class="st0 st8 st9">3</text>
					<path class="st14" d="M-6.5,379.5l243.9,0c9.9,0,7.3-6.3-9.2-6.2l-235.4,1.1L-6.5,379.5L-6.5,379.5z"/>
					<polygon class="st5" points="186.8,409.2 209.5,409.2 205.9,494.5 190.3,494.5 					"/>
					<rect x="183.5" y="491.4" class="st6" width="39.8" height="3.1"/>
					<text transform="matrix(1 0 0 1 193.58 444.33)" class="st0 st8 st9">2</text>
					<polygon class="st15" points="351.1,426.8 333.4,428.4 312.5,442.5 312.5,421.1 208.8,421.1 208.5,429.7 187.6,434.7 
						187.1,421.1 84.9,421.1 84.7,441.9 63.8,429.4 46.2,428.1 46.2,418.4 -5.8,397.3 392.3,397.3 351.8,415.8 					"/>
					<polygon class="st16" points="281.3,412.9 261.9,412.9 260.1,415.2 277,415.2 					"/>
					<polygon class="st16" points="296.8,403.2 268.5,403.2 265.9,406.5 290.5,406.5 					"/>
					<polygon class="st16" points="127,412.9 146.4,412.9 148.2,415.2 131.3,415.2 					"/>
					<polygon class="st16" points="111.5,403.2 139.8,403.2 142.4,406.5 117.8,406.5 					"/>
					<path class="st5" d="M352,415.8c0,0,0.4-4.5,0.9-5.4s3.1-2.3,3.1-2.3l-25,0.5l-28.4,12.5h10.2l-0.2-3.6l21.1-8.3h18.8
						L352,415.8z"/>
					<path class="st5" d="M45.6,415.8c0,0-0.4-4.5-0.9-5.4s-3.1-2.3-3.1-2.3l21.6,0.4L95,421.1H84.8l0.2-3.6L64,409.2H45.1
						C45.1,409.2,45.5,415.8,45.6,415.8z"/>
					
						<linearGradient id="SVGID_1_" gradientUnits="userSpaceOnUse" x1="56.755" y1="875.44" x2="56.755" y2="870.22" gradientTransform="matrix(1 0 0 1 0 -390)">
						<stop  offset="3.000000e-02" style="stop-color:#FFA900"/>
						<stop  offset="0.98" style="stop-color:#FF9B00"/>
					</linearGradient>
					<polygon class="st17" points="49.5,480.2 64,480.2 64,485.4 49.9,485.4 					"/>
					
						<linearGradient id="SVGID_00000027602311668960994200000002303790270638662831_" gradientUnits="userSpaceOnUse" x1="198.13" y1="875.44" x2="198.13" y2="870.22" gradientTransform="matrix(1 0 0 1 0 -390)">
						<stop  offset="3.000000e-02" style="stop-color:#FFA900"/>
						<stop  offset="0.98" style="stop-color:#FF9B00"/>
					</linearGradient>
					
						<polygon style="fill-rule:evenodd;clip-rule:evenodd;fill:url(#SVGID_00000027602311668960994200000002303790270638662831_);" points="
						189.8,480.2 206.5,480.2 206.3,485.4 190,485.4 					"/>
					
						<linearGradient id="SVGID_00000072241140570101171630000017696251499140561337_" gradientUnits="userSpaceOnUse" x1="340.765" y1="875.44" x2="340.765" y2="870.22" gradientTransform="matrix(1 0 0 1 0 -390)">
						<stop  offset="3.000000e-02" style="stop-color:#FFA900"/>
						<stop  offset="0.98" style="stop-color:#FF9B00"/>
					</linearGradient>
					
						<polygon style="fill-rule:evenodd;clip-rule:evenodd;fill:url(#SVGID_00000072241140570101171630000017696251499140561337_);" points="
						333.6,480.2 348,480.2 347.7,485.4 333.6,485.4 					"/>
					<g class="st20">
						<polygon class="st21" points="61.4,494.5 62.2,491.4 69.6,491.4 69,494.5 						"/>
						<polygon class="st21" points="57.6,494.5 57.1,491.4 54.9,491.4 55.6,494.5 						"/>
						<polygon class="st21" points="76.6,494.5 77.2,491.4 79.5,491.4 79.1,494.5 						"/>
						<polygon class="st21" points="190.7,494.5 191.6,491.4 199.9,491.4 199.5,494.5 						"/>
						<polygon class="st21" points="201.6,494.5 202.2,491.4 203,491.4 202.6,494.5 						"/>
						<polygon class="st21" points="318.6,494.5 318.6,491.4 325.4,491.4 324.8,494.5 326.1,491.4 327.5,491.4 326.1,494.5 						
							"/>
						<polygon class="st21" points="346.7,494.5 346.7,491.4 349.8,491.4 349.4,494.5 						"/>
					</g>
					<path class="st5" d="M33.6,413.2c0,0-24.7-11.7-24.6-13.3c0.1-1.6,60-2.7,60-2.7H-5.7C-5.7,397.3,33.6,413.2,33.6,413.2z"/>
					<polygon class="st14" points="393.6,373.4 393.6,379.5 387.4,379.5 383.7,373.4 					"/>
					<polygon class="st14" points="392.4,379.5 229.3,379.5 214.9,375.3 228.2,373.4 392.4,373.4 					"/>
				</g>
			</g>
			
				<image style="overflow:visible;enable-background:new    ;" width="2465" height="3497" xlink:href="3DE0372.png"  transform="matrix(5.015728e-02 0 0 5.015728e-02 -30.2088 283.41)">
			</image>
			<g>
				<path class="st22" d="M276.1,451.7L276.1,451.7c-0.1,0-0.2,0.1-0.2,0.2v1.4h0.4v-1.4C276.3,451.8,276.2,451.7,276.1,451.7z"/>
				<g>
					<path class="st23" d="M300.9,472c0-2.3-1.4-4.4-3.5-5.3l0,0l-1-0.4l-0.7-1.7l-3.2-7.3c-1.1-2.4-3.5-4-6.1-4h-20.6
						c-2.7,0-5.1,1.6-6.1,4l-3.2,7.3l-0.7,1.7l-1,0.4l0,0c-2.1,0.9-3.5,3-3.5,5.3v8.2h49.7L300.9,472L300.9,472L300.9,472z"/>
					<rect x="251.2" y="473.8" class="st24" width="49.7" height="6.4"/>
					<rect x="251.2" y="479.4" class="st25" width="49.7" height="0.9"/>
					<path class="st26" d="M295.4,466.3h-38.7l9.5,4.2c1.5,0.7,3.1,1,4.7,1h10.3c1.6,0,3.2-0.3,4.7-1L295.4,466.3z"/>
					<g>
						<g>
							<path class="st27" d="M256.5,467.5c-1.9,0-3.7,1.2-4.3,3.1c-0.1,0.5-0.2,0.9-0.2,1.4l0,0c0,1.3,0.8,2.5,2.1,2.9l7,2.3
								c0.7,0.2,1.4-0.3,1.4-1v-3.8c0-2.7-2.2-4.9-4.9-4.9L256.5,467.5L256.5,467.5z"/>
							<path class="st28" d="M261.5,476.8c-0.1,0-0.1,0-0.2,0l-7-2.3c-1-0.3-1.7-1.3-1.7-2.4c0-0.4,0.1-0.9,0.2-1.3
								c0.5-1.6,2-2.7,3.8-2.7h1.1c2.4,0,4.4,2,4.4,4.4v3.8c0,0.2-0.1,0.3-0.2,0.4C261.8,476.7,261.6,476.8,261.5,476.8L261.5,476.8
								L261.5,476.8z"/>
							<path class="st29" d="M255.1,468.3c-0.1,0-0.3,0.1-0.4,0.2c-0.4,0.2-0.6,0.5-0.6,0.9v0.6c0,0.6,0.5,1,1,1h0.3
								c0.6,0,1-0.5,1-1v-0.8C256.5,468.5,255.8,468,255.1,468.3L255.1,468.3z"/>
							<path class="st29" d="M259.3,472.3v3c0,0.5,0.3,0.9,0.7,1l1.2,0.4c0.1,0,0.1,0,0.2,0c0.1,0,0.3-0.1,0.4-0.2
								c0.1-0.1,0.2-0.2,0.2-0.4v-3.8c0,0,0-0.1-0.1-0.1l-1.9-0.6C259.7,471.6,259.3,471.9,259.3,472.3L259.3,472.3z"/>
						</g>
						<g>
							<path class="st27" d="M295.6,467.5c1.9,0,3.7,1.2,4.3,3.1c0.1,0.5,0.2,0.9,0.2,1.4l0,0c0,1.3-0.8,2.5-2.1,2.9l-7,2.3
								c-0.7,0.2-1.4-0.3-1.4-1v-3.8c0-2.7,2.2-4.9,4.9-4.9L295.6,467.5L295.6,467.5z"/>
							<path class="st28" d="M290.7,476.8c0.1,0,0.1,0,0.2,0l7-2.3c1-0.3,1.7-1.3,1.7-2.4c0-0.4-0.1-0.9-0.2-1.3
								c-0.5-1.6-2-2.7-3.8-2.7h-1.1c-2.4,0-4.4,2-4.4,4.4v3.8c0,0.2,0.1,0.3,0.2,0.4C290.4,476.7,290.5,476.8,290.7,476.8
								L290.7,476.8L290.7,476.8z"/>
							<path class="st29" d="M297,468.3c0.1,0,0.3,0.1,0.4,0.2c0.4,0.2,0.6,0.5,0.6,0.9v0.6c0,0.6-0.5,1-1,1h-0.3c-0.6,0-1-0.5-1-1
								v-0.8C295.6,468.5,296.3,468,297,468.3L297,468.3z"/>
							<path class="st29" d="M292.8,472.3v3c0,0.5-0.3,0.9-0.7,1l-1.2,0.4c-0.1,0-0.1,0-0.2,0c-0.1,0-0.3-0.1-0.4-0.2
								c-0.1-0.1-0.2-0.2-0.2-0.4v-3.8c0,0,0-0.1,0.1-0.1l1.9-0.6C292.4,471.6,292.8,471.9,292.8,472.3L292.8,472.3z"/>
						</g>
					</g>
					<g>
						<path class="st25" d="M256.4,464.6h-2.7v1.8c0.4,0,0.7,0.1,1,0.3l1-0.4L256.4,464.6L256.4,464.6z"/>
						<path class="st30" d="M253.7,464.5c0-0.7-0.6-1.3-1.3-1.3H250c-0.8,0-1.5,0.7-1.5,1.5v0.6c0,0.8,0.7,1.5,1.5,1.5h3.3
							c0.2,0,0.4-0.2,0.4-0.4L253.7,464.5L253.7,464.5z"/>
						<path class="st31" d="M253.6,464.2c-0.1-0.6-0.7-1-1.3-1H250c-0.7,0-1.2,0.4-1.4,1H253.6L253.6,464.2z"/>
					</g>
					<g>
						<path class="st25" d="M295.7,464.6h2.7v1.8c-0.4,0-0.7,0.1-1,0.3l-1-0.4L295.7,464.6L295.7,464.6z"/>
						<path class="st30" d="M298.5,464.5c0-0.7,0.6-1.3,1.3-1.3h2.3c0.8,0,1.5,0.7,1.5,1.5v0.6c0,0.8-0.7,1.5-1.5,1.5h-3.3
							c-0.2,0-0.4-0.2-0.4-0.4L298.5,464.5L298.5,464.5L298.5,464.5z"/>
						<path class="st31" d="M303.5,464.2c-0.2-0.6-0.8-1-1.4-1h-2.3c-0.6,0-1.2,0.4-1.3,1H303.5z"/>
					</g>
					<polygon class="st32" points="276,466.2 276.1,466.2 295.1,466.2 295.1,465.6 276.1,465.6 276,465.6 257.1,465.6 257.1,466.2 
											"/>
					<path class="st25" d="M291.8,458.2c-1-2.4-3.4-3.9-6-3.9h-19.6c-2.6,0-4.9,1.5-6,3.9l-3.3,7.5h3.2l2-7.2c0.6-1.9,1.4-2.5,4-2.5
						h19.6c2.6,0,3.4,0.6,4,2.5l2,7.2h3.2L291.8,458.2z"/>
					<g>
						<path class="st22" d="M270.6,465.1h-1.6v-1h0.5c0.4,0,0.7-0.4,0.6-0.8l-0.4-3c-0.1-0.7-0.7-1.2-1.4-1.2h-2.3
							c-0.7,0-1.3,0.5-1.4,1.2l-0.4,3c-0.1,0.4,0.2,0.8,0.6,0.8h0.5v1h-1.6c-0.3,0-0.6,0.3-0.6,0.6h8.3
							C271.1,465.3,270.9,465.1,270.6,465.1L270.6,465.1z M265.8,465.1v-1h2.4v1H265.8z"/>
						<path class="st22" d="M281,465.6h8.3c0-0.3-0.3-0.6-0.6-0.6h-1.6v-1h0.5c0.4,0,0.7-0.4,0.6-0.8l-0.4-3
							c-0.1-0.7-0.7-1.2-1.4-1.2H284c-0.7,0-1.3,0.5-1.4,1.2l-0.4,3c-0.1,0.4,0.2,0.8,0.6,0.8h0.5v1h-1.6
							C281.2,465.1,281,465.3,281,465.6L281,465.6z M283.9,465.1v-1h2.4v1H283.9z"/>
						<path class="st33" d="M287.7,465.6c-0.5-0.9-1.5-1.5-2.6-1.5s-2.1,0.6-2.6,1.5h-1c0.5-1.5,2-2.5,3.6-2.5s3.1,1,3.6,2.5H287.7
							L287.7,465.6z"/>
					</g>
					<g>
						<line class="st34" x1="266.3" y1="457.4" x2="272.8" y2="463.9"/>
						<line class="st34" x1="277.4" y1="459.6" x2="279.5" y2="461.7"/>
						<line class="st34" x1="280.5" y1="456.6" x2="288.3" y2="464.5"/>
					</g>
					<g>
						<g>
							<g>
								<rect x="257" y="490.9" class="st35" width="1" height="2.3"/>
								<rect x="255.7" y="490.9" class="st35" width="1" height="2.3"/>
								<path class="st35" d="M258.3,493.1h0.3c0.7,0,1.2-0.5,1.2-1.2v-1.1h-1.5V493.1z"/>
								<path class="st35" d="M253.1,490.9c-0.2,0-0.4,0-0.5-0.1v1.1c0,0.7,0.5,1.2,1.2,1.2h0.3v-2.3H253.1z"/>
								<rect x="254.4" y="490.9" class="st35" width="1" height="2.3"/>
								<rect x="254.1" y="490.9" class="st36" width="0.3" height="2.3"/>
								<rect x="255.4" y="490.9" class="st36" width="0.3" height="2.3"/>
								<rect x="256.7" y="490.9" class="st36" width="0.3" height="2.3"/>
								<rect x="258" y="490.9" class="st36" width="0.3" height="2.3"/>
								<rect x="254.4" y="489.7" class="st36" width="1" height="1.1"/>
								<rect x="254.4" y="489.7" class="st37" width="1" height="1.1"/>
								<rect x="257" y="489.7" class="st36" width="1" height="1.1"/>
								<rect x="257" y="489.7" class="st37" width="1" height="1.1"/>
								<path class="st36" d="M252.6,489.7v1c0.2,0,0.3,0.1,0.5,0.1h1v-1.1L252.6,489.7L252.6,489.7z"/>
								<path class="st37" d="M252.6,489.7v1c0.2,0,0.3,0.1,0.5,0.1h1v-1.1L252.6,489.7L252.6,489.7z"/>
								<rect x="255.7" y="489.7" class="st36" width="1" height="1.1"/>
								<rect x="255.7" y="489.7" class="st37" width="1" height="1.1"/>
								<rect x="258.3" y="489.7" class="st36" width="1.5" height="1.1"/>
								<rect x="258.3" y="489.7" class="st37" width="1.5" height="1.1"/>
								<rect x="254.1" y="489.7" class="st36" width="0.3" height="1.1"/>
								<rect x="254.1" y="489.7" class="st37" width="0.3" height="1.1"/>
								<rect x="255.4" y="489.7" class="st36" width="0.3" height="1.1"/>
								<rect x="255.4" y="489.7" class="st37" width="0.3" height="1.1"/>
								<rect x="256.7" y="489.7" class="st36" width="0.3" height="1.1"/>
								<rect x="256.7" y="489.7" class="st37" width="0.3" height="1.1"/>
								<rect x="258" y="489.7" class="st36" width="0.3" height="1.1"/>
								<rect x="258" y="489.7" class="st37" width="0.3" height="1.1"/>
							</g>
							<g>
								<rect x="294.2" y="490.9" class="st35" width="1" height="2.3"/>
								<rect x="295.5" y="490.9" class="st35" width="1" height="2.3"/>
								<path class="st35" d="M293.8,493.1h-0.3c-0.7,0-1.2-0.5-1.2-1.2v-1.1h1.5V493.1z"/>
								<path class="st35" d="M299,490.9c0.2,0,0.4,0,0.5-0.1v1.1c0,0.7-0.5,1.2-1.2,1.2H298v-2.3H299z"/>
								<rect x="296.7" y="490.9" class="st35" width="1" height="2.3"/>
								<rect x="297.7" y="490.9" class="st36" width="0.3" height="2.3"/>
								<rect x="296.4" y="490.9" class="st36" width="0.3" height="2.3"/>
								<rect x="295.1" y="490.9" class="st36" width="0.3" height="2.3"/>
								<rect x="293.8" y="490.9" class="st36" width="0.3" height="2.3"/>
								<rect x="296.7" y="489.7" class="st36" width="1" height="1.1"/>
								<rect x="296.7" y="489.7" class="st37" width="1" height="1.1"/>
								<rect x="294.2" y="489.7" class="st36" width="1" height="1.1"/>
								<rect x="294.2" y="489.7" class="st37" width="1" height="1.1"/>
								<path class="st36" d="M298,489.7v1.1h1c0.2,0,0.4,0,0.5-0.1v-1L298,489.7L298,489.7z"/>
								<path class="st37" d="M298,489.7v1.1h1c0.2,0,0.4,0,0.5-0.1v-1L298,489.7L298,489.7z"/>
								<rect x="295.5" y="489.7" class="st36" width="1" height="1.1"/>
								<rect x="295.5" y="489.7" class="st37" width="1" height="1.1"/>
								<rect x="292.3" y="489.7" class="st36" width="1.5" height="1.1"/>
								<rect x="292.3" y="489.7" class="st37" width="1.5" height="1.1"/>
								<rect x="297.7" y="489.7" class="st36" width="0.3" height="1.1"/>
								<rect x="297.7" y="489.7" class="st37" width="0.3" height="1.1"/>
								<rect x="296.4" y="489.7" class="st36" width="0.3" height="1.1"/>
								<rect x="296.4" y="489.7" class="st37" width="0.3" height="1.1"/>
								<rect x="295.1" y="489.7" class="st36" width="0.3" height="1.1"/>
								<rect x="295.1" y="489.7" class="st37" width="0.3" height="1.1"/>
								<rect x="293.8" y="489.7" class="st36" width="0.3" height="1.1"/>
								<rect x="293.8" y="489.7" class="st37" width="0.3" height="1.1"/>
							</g>
						</g>
						<g>
							<path class="st30" d="M276.1,480.2h-25.2c-0.6,0-1,0.5-1,1v6.3c0,0.6,0.2,1.1,0.6,1.5c0.4,0.4,1,0.7,1.6,0.7h12
								c0.9,0,1.7-0.2,2.5-0.5l0,0c0.8-0.3,1.7-0.5,2.5-0.5h14c0.9,0,1.7,0.2,2.5,0.5l0,0c0.8,0.3,1.7,0.5,2.5,0.5h11.9
								c0.6,0,1.2-0.3,1.6-0.7c0.4-0.4,0.6-0.9,0.6-1.5v-6.3c0-0.6-0.5-1-1-1H276.1L276.1,480.2z"/>
							<g>
								<g>
									<path class="st38" d="M269.7,484.2c0,0.3,0.2,0.5,0.5,0.5H282c0.3,0,0.5-0.2,0.5-0.5v-2.6c0-0.3-0.2-0.5-0.5-0.5h-11.8
										c-0.3,0-0.5,0.2-0.5,0.5V484.2z M270.3,481.8h11.6v2.4h-11.6V481.8z"/>
									<rect x="270.3" y="481.8" class="st39" width="11.6" height="2.4"/>
								</g>
								<g>
									<g>
										<circle class="st25" cx="255.1" cy="484.8" r="2.2"/>
										<circle class="st40" cx="255.1" cy="484.8" r="1.4"/>
										<path class="st0" d="M256.1,485c-0.4,0.1-0.4-0.3-0.9-0.5c-0.5-0.2-0.8-0.5-0.5-0.7s0.8-0.1,1.1,0.2
											C256.2,484.2,256.4,484.9,256.1,485L256.1,485z"/>
									</g>
									<g>
										<circle class="st25" cx="296.4" cy="484.8" r="2.2"/>
										<circle class="st40" cx="296.4" cy="484.8" r="1.4"/>
										<path class="st0" d="M297.4,485c-0.4,0.1-0.4-0.3-0.9-0.5c-0.5-0.2-0.8-0.5-0.5-0.7s0.8-0.1,1.1,0.2
											C297.5,484.2,297.7,484.9,297.4,485L297.4,485z"/>
									</g>
								</g>
								<g>
									<path class="st41" d="M276.1,485.5h-12.8c-0.2,0-0.4,0.2-0.3,0.4l0,0c0.3,0.9,1.1,1.4,2.1,1.4h11V485.5L276.1,485.5z"/>
									<path class="st25" d="M265.2,486.9c-0.9,0-1.7-0.5-2-1.3c-0.1,0.1-0.2,0.2-0.2,0.4c0.3,0.9,1.1,1.4,2.1,1.4h11v-0.5H265.2
										L265.2,486.9z"/>
									<path class="st41" d="M276.1,485.5h12.8c0.2,0,0.4,0.2,0.3,0.4l0,0c-0.3,0.9-1.1,1.4-2.1,1.4h-11V485.5L276.1,485.5z"/>
									<path class="st25" d="M287,486.9c0.9,0,1.7-0.5,2-1.3c0.1,0.1,0.2,0.2,0.2,0.4c-0.3,0.9-1.1,1.4-2.1,1.4h-11v-0.5H287
										L287,486.9z"/>
								</g>
							</g>
						</g>
					</g>
					<g>
						<path class="st42" d="M280.4,471.5h-8.7c-0.6,0-1.1,0.6-0.8,1.2l1.5,3.5c0.2,0.4,0.6,0.7,1.1,0.7h5.2c0.5,0,0.9-0.3,1.1-0.7
							l1.5-3.5C281.5,472.2,281.1,471.5,280.4,471.5L280.4,471.5z"/>
						<path class="st43" d="M280.4,471.5c0.6,0,1.1,0.6,0.8,1.2l-1.5,3.5c-0.1,0.3-0.5,0.6-0.8,0.7L280.4,471.5z"/>
						<path class="st42" d="M281.7,470.1l-1.5-2.9c-0.2-0.4-0.6-0.6-1.1-0.6H273c-0.5,0-0.9,0.2-1.1,0.6l-1.5,2.9
							c-0.2,0.5,0.2,1,0.8,1h9.7C281.5,471.1,281.9,470.6,281.7,470.1z"/>
						<path class="st44" d="M279.3,469.9L279.3,469.9c0.2,0,0.3,0.1,0.3,0.3v1.5c0,0.2-0.1,0.3-0.3,0.3l0,0c-0.2,0-0.3-0.1-0.3-0.3
							v-1.5C279,470,279.1,469.9,279.3,469.9z"/>
						<path class="st45" d="M279.6,474.5h-7l-0.4,1l0.3,0.7c0.2,0.4,0.6,0.7,1.1,0.7h5.2c0.5,0,0.9-0.3,1.1-0.7l0.3-0.7L279.6,474.5
							L279.6,474.5z"/>
						<path class="st45" d="M271.7,471.5c-0.6,0-1.1,0.6-0.8,1.2l1.5,3.5c0.1,0.3,0.5,0.6,0.8,0.7L271.7,471.5z"/>
						<path class="st44" d="M272.9,469.9L272.9,469.9c-0.2,0-0.3,0.1-0.3,0.3v1.5c0,0.2,0.1,0.3,0.3,0.3l0,0c0.2,0,0.3-0.1,0.3-0.3
							v-1.5C273.1,470,273,469.9,272.9,469.9z"/>
						<path class="st46" d="M276.2,473.5h-0.3c-1,0-1.8,0.8-1.8,1.8v1.7h3.9v-1.7C278,474.3,277.2,473.5,276.2,473.5L276.2,473.5z"
							/>
						<path class="st47" d="M274.6,475.3v-0.2c0-0.6,0.5-1.1,1.1-1.1h0.6c0.6,0,1.1,0.5,1.1,1.1v0.2c0,0.6-0.5,1.1-1.1,1.1h-0.6
							C275.1,476.4,274.6,475.9,274.6,475.3z"/>
					</g>
					<g>
						<path class="st48" d="M275.3,457.9h1.6c0.3,0,0.5-0.2,0.5-0.5v-0.3c0-0.3-0.2-0.5-0.5-0.5h-1.6c-0.3,0-0.5,0.2-0.5,0.5v0.3
							C274.8,457.7,275,457.9,275.3,457.9z"/>
						<path class="st22" d="M278.8,457.2h-1.5v0.1c0,0.3-0.2,0.5-0.5,0.5h-1.6c-0.3,0-0.5-0.2-0.5-0.5v-0.1h-1.5
							c-0.3,0-0.6,0.3-0.6,0.6v0.6c0,0.3,0.3,0.6,0.6,0.6h5.5c0.3,0,0.6-0.3,0.6-0.6v-0.6C279.4,457.5,279.1,457.2,278.8,457.2z"/>
					</g>
					<path class="st22" d="M276.1,457.2L276.1,457.2c-0.2,0-0.4-0.2-0.4-0.4v-2.5h0.8v2.5C276.5,457.1,276.3,457.2,276.1,457.2
						L276.1,457.2z"/>
					
						<linearGradient id="SVGID_00000045584368870583960310000018358563795598348164_" gradientUnits="userSpaceOnUse" x1="265.9293" y1="843.1107" x2="290.5193" y2="867.7007" gradientTransform="matrix(1 0 0 1 0 -390)">
						<stop  offset="0" style="stop-color:#FFFFFF"/>
						<stop  offset="1" style="stop-color:#FFFFFF;stop-opacity:0"/>
					</linearGradient>
					
						<path style="opacity:0.75;fill:url(#SVGID_00000045584368870583960310000018358563795598348164_);enable-background:new    ;" d="
						M295.1,465.6l-3.3-7.5c-1-2.4-3.4-3.9-6-3.9h-19.6c-2.6,0-4.9,1.5-6,3.9l-3.3,7.5H295.1z"/>
				</g>
			</g>
			<g>
				<g>
					<rect x="320" y="427.8" class="st10" width="12.5" height="54.6"/>
					<rect x="323.5" y="440.6" class="st12" width="5.6" height="20.6"/>
					<rect x="318.9" y="432.6" class="st11" width="1.1" height="28.1"/>
					<polygon class="st11" points="318.9,476 320,476 320,462.9 316.8,462.9 					"/>
					<rect x="321.4" y="482.4" class="st12" width="9.7" height="1.5"/>
					<path class="st13" d="M327.7,440.6h-2.7v0.2c0,0.7,0.6,1.3,1.3,1.3h0.2c0.7,0,1.3-0.6,1.3-1.3V440.6z"/>
					<rect x="324.3" y="483.9" class="st11" width="3.8" height="7.6"/>
				</g>
				<g>
					<path class="st50" d="M277.6,475.2c0-0.9-0.7-1.6-1.6-1.6s-1.6,0.7-1.6,1.6s0.7,1.6,1.6,1.6S277.6,476.1,277.6,475.2z"/>
					<path class="st51" d="M276.1,473.9H276c-0.6,0-1,0.5-1,1v1.4h2.2v-1.4C277.2,474.4,276.7,473.9,276.1,473.9z"/>
					<path class="st50" d="M277.2,475.8c0-0.6-0.5-1.1-1.1-1.1s-1.1,0.5-1.1,1.1s0.5,1.1,1.1,1.1S277.2,476.4,277.2,475.8z"/>
					<path class="st52" d="M311,493.8h-18.9c-9,0-16.4-8.2-16.7-18.4c0-0.4,0.3-0.7,0.6-0.7l0,0c0.4,0,0.6,0.3,0.6,0.6
						c0.3,9.4,7.1,16.9,15.4,16.9H311c8.5,0,15.4-7.9,15.4-17.6v-29.6c0-0.4,0.3-0.6,0.6-0.6l0,0c0.4,0,0.6,0.3,0.6,0.6v29.6
						C327.7,485.2,320.2,493.8,311,493.8L311,493.8z"/>
				</g>
			</g>
			<g>
				<g>
					<rect x="65.4" y="432.2" class="st10" width="11.6" height="50.5"/>
					<rect x="68.6" y="444.1" class="st12" width="5.2" height="19.1"/>
					<rect x="181.9" y="443.8" class="st12" width="5.2" height="19.1"/>
					<rect x="76.9" y="436.6" class="st11" width="1.1" height="26.1"/>
					<polygon class="st11" points="78,476.8 76.9,476.8 76.9,464.7 79.9,464.7 					"/>
					<rect x="66.6" y="482.7" class="st12" width="9" height="1.4"/>
					<path class="st13" d="M69.8,444.1h2.5v0.2c0,0.6-0.5,1.2-1.2,1.2H71c-0.6,0-1.2-0.5-1.2-1.2V444.1z"/>
					<rect x="69.4" y="484.1" class="st11" width="3.6" height="7.1"/>
				</g>
				<path class="st52" d="M71,475.6v-27.5c0-0.3-0.3-0.6-0.6-0.6l0,0c-0.3,0-0.6,0.3-0.6,0.6v27.5"/>
				<path class="st52" d="M184.9,473.7v-27.5c0-0.3-0.3-0.6-0.6-0.6l0,0c-0.3,0-0.6,0.3-0.6,0.6v27.5"/>
			</g>
			
				<image style="overflow:visible;enable-background:new    ;" width="2475" height="3496" xlink:href="3DE0373.png"  transform="matrix(6.012121e-02 0 0 6.012121e-02 -41.0088 260.5712)">
			</image>
			
				<image style="overflow:visible;enable-background:new    ;" width="2459" height="3490" xlink:href="3DE0375.png"  transform="matrix(2.010315e-02 0 0 2.010315e-02 319.73 346.38)">
			</image>
		</g>
	</g>
</g>
</svg>
