<?xml version="1.0" encoding="utf-8"?>
<!-- Generator: Adobe Illustrator 28.0.0, SVG Export Plug-In . SVG Version: 6.00 Build 0)  -->
<svg version="1.0" id="Layer_1" xmlns="http://www.w3.org/2000/svg" xmlns:xlink="http://www.w3.org/1999/xlink" x="0px" y="0px"
	 viewBox="0 0 1920 892" style="enable-background:new 0 0 1920 892;" xml:space="preserve">
<style type="text/css">
	.st0{fill:#E2E2E2;stroke:#000000;stroke-miterlimit:10;}
</style>
<path class="st0" d="M-14.72,30c0,0,123.84,40.32,264.96,40.32s427.68-31.68,501.12-27.36s305.28,46.08,475.2,27.36
	S1786.72,4.08,1913.44,30S2092,48.78,2092,48.78l-87.84,763.14L1948,849.36l-28-5.76c0,0-169.28-48.96-242.72-37.44
	c-73.44,11.52-146.88,5.76-174.24-4.32c-27.36-10.08-203.04,28.8-313.92,23.04s-210.24-21.6-280.8-25.92s-208.8-14.4-470.88,25.92
	S39.2,836.4,0,830.64s-260.96-283.68-260.96-283.68L-91.04,22.44L-14.72,30z"/>
</svg>
